<svg width="147" height="145" viewBox="0 0 147 145" fill="none" xmlns="http://www.w3.org/2000/svg">
<path d="M73.0258 140.707C111.052 140.707 141.879 110.084 141.879 72.309C141.879 34.533 111.052 3.91016 73.0258 3.91016C34.9998 3.91016 4.17383 34.533 4.17383 72.309C4.17383 110.084 34.9998 140.707 73.0258 140.707Z" stroke="#D6111F" stroke-width="5" stroke-miterlimit="10"/>
<path d="M46.3751 9.95312C47.1351 10.6186 47.8951 11.2841 48.6551 11.9496C48.8361 12.1082 48.8671 12.3774 48.7261 12.5721L46.5621 15.563C46.4731 15.685 46.3311 15.7573 46.1801 15.7573H43.6721C43.4131 15.7573 43.2021 15.9663 43.2021 16.2241V19.8388C43.2021 19.9773 43.1401 20.1087 43.0331 20.1974L40.7081 22.123C40.6011 22.211 40.5391 22.343 40.5391 22.481V25.171C40.5391 25.401 40.7071 25.597 40.9361 25.632L43.3181 26.002C43.6681 26.056 43.8341 26.461 43.6211 26.743L43.3221 27.139C43.0901 27.447 43.3111 27.886 43.6981 27.886H45.2341C45.3551 27.886 45.4711 27.84 45.5581 27.757L50.0491 23.503C50.1421 23.415 50.1951 23.293 50.1951 23.165V20.6344C50.1951 20.3766 50.4051 20.1677 50.6651 20.1677H55.1201C55.2361 20.1677 55.3481 20.1247 55.4351 20.0472L56.8311 18.7939C56.9171 18.7164 57.0301 18.6735 57.1461 18.6735H60.1581C60.4181 18.6735 60.6281 18.4645 60.6281 18.2067V15.3119C60.6281 15.0662 60.82 14.8625 61.067 14.8462L65.481 14.5538C65.573 14.5477 65.662 14.5147 65.735 14.4589L67.2591 13.3014C67.4101 13.1863 67.6171 13.1736 67.7821 13.2694L71.9551 15.6965C72.0241 15.7364 72.1021 15.7583 72.1811 15.7603L76.3461 15.8637C76.4461 15.8662 76.544 15.8372 76.626 15.7809L79.2531 13.9738C79.3391 13.9149 79.4421 13.8859 79.5461 13.8915L83.415 14.0993C83.466 14.102 83.5161 14.1131 83.5641 14.132L84.4921 14.5006C84.5641 14.5294 84.643 14.5398 84.72 14.5309L87.3171 14.2332C87.4271 14.2206 87.538 14.247 87.631 14.3079L94.1171 18.5805C94.2081 18.6406 94.2761 18.7305 94.3071 18.8346L94.7291 20.2229C94.7811 20.3918 94.9241 20.5175 95.0991 20.5478L96.816 20.8444C97.103 20.894 97.3661 20.6743 97.3661 20.3845C97.3661 20.063 97.6861 19.8377 97.9911 19.944L99.2711 20.389C99.4601 20.4546 99.5861 20.6312 99.5861 20.8296V21.92C99.5861 22.124 99.4531 22.304 99.2571 22.365L96.4811 23.232C96.1351 23.34 96.0371 23.78 96.3061 24.022L101.878 29.064C101.904 29.087 101.932 29.107 101.962 29.124L104.916 30.801C104.987 30.842 105.046 30.899 105.088 30.969L106.331 33.059C106.415 33.201 106.569 33.288 106.735 33.288H110.092C110.309 33.288 110.498 33.14 110.549 32.93L110.947 31.266C110.99 31.088 110.924 30.901 110.777 30.789L107.204 28.051C107.157 28.015 107.118 27.97 107.087 27.919L105.692 25.581C105.528 25.305 105.685 24.951 106.001 24.886L107.848 24.503C107.96 24.48 108.076 24.498 108.175 24.554L111.409 26.361C111.514 26.42 111.593 26.516 111.628 26.631L112.881 30.676C112.897 30.727 112.921 30.774 112.952 30.817L114.747 33.229C114.777 33.268 114.799 33.312 114.815 33.359L115.974 36.814C115.999 36.888 116.043 36.955 116.1 37.008L118.991 39.675C119.074 39.752 119.127 39.855 119.139 39.968L119.655 44.786C119.668 44.908 119.728 45.019 119.823 45.097L123.278 47.923C123.386 48.012 123.449 48.144 123.449 48.283V51.734C123.449 51.786 123.457 51.837 123.474 51.885L124.692 55.423C124.793 55.714 125.145 55.831 125.401 55.658L127.515 54.23C127.612 54.164 127.681 54.064 127.708 53.95L128.397 51.016C128.427 50.891 128.403 50.759 128.33 50.652L125.165 45.935C125.131 45.884 125.107 45.827 125.095 45.767L123.954 40.097C123.917 39.913 123.994 39.725 124.149 39.62L128.183 36.883C128.34 36.776 128.417 36.585 128.377 36.4L126.965 29.873C126.949 29.802 126.919 29.737 126.873 29.68C122.65 24.461 112.871 13.8835 96.5621 8.01152C72.9821 -0.478384 52.3801 6.85582 46.9041 9.00552L46.5041 9.17282C46.1841 9.30622 46.1151 9.72552 46.3751 9.95312Z" fill="#D6111F"/>
<path d="M131.569 36.2881C131.565 36.2981 131.295 37.0701 131.291 37.0811C131.263 37.1621 130.764 38.5881 130.528 39.2631C130.451 39.4821 130.475 39.7231 130.594 39.9231L131.569 41.5681L132.501 43.1831C132.666 43.4701 132.637 43.8291 132.426 44.0861L131.833 44.8061C131.68 44.9911 131.452 45.0981 131.211 45.0981C130.767 45.0981 130.407 45.4561 130.407 45.8971V53.2731C130.407 53.4001 130.376 53.5251 130.318 53.6381L128.566 57.0211C128.487 57.1751 128.459 57.3501 128.488 57.5201L129.028 60.6831C129.068 60.9151 129.209 61.1181 129.413 61.2381L130.938 62.1291C131.18 62.2701 131.33 62.5281 131.334 62.8071L131.458 72.7931C131.459 72.8951 131.48 72.9961 131.519 73.0901L135.526 82.6661C135.618 82.8871 135.805 83.0551 136.036 83.1241L139.913 84.2851C140.377 84.4241 140.857 84.1301 140.938 83.6561C141.854 78.3241 142.551 70.3901 140.944 61.0231C139.078 50.1481 134.908 42.0221 131.951 37.2161C131.927 37.1781 131.908 37.1381 131.891 37.0971L131.569 36.2881Z" fill="#D6111F"/>
<path d="M32.2999 37.0513L36.359 36.3523C36.57 36.3153 36.724 36.1343 36.724 35.9223V33.6983C36.724 33.4933 36.8669 33.3163 37.0679 33.2723L41.837 32.2193C41.868 32.2123 41.898 32.2023 41.927 32.1893L46.4769 30.0923C46.5939 30.0383 46.7289 30.0383 46.8469 30.0923L51.1849 32.0913C51.3409 32.1633 51.44 32.3173 51.44 32.4873V36.0733C51.44 36.2093 51.5039 36.3373 51.6119 36.4203L60.863 43.4443C61.152 43.6633 61.569 43.4583 61.569 43.0973V41.0043C61.569 40.8483 61.486 40.7043 61.35 40.6263L58.8479 39.1873C58.5109 38.9933 58.577 38.4913 58.953 38.3893L59.884 38.1363C59.985 38.1093 60.092 38.1183 60.187 38.1633L63.1029 39.5263C63.2209 39.5813 63.308 39.6853 63.341 39.8113L64.299 43.4593C64.37 43.7273 64.6709 43.8633 64.9209 43.7393L67.101 42.6563C67.318 42.5483 67.582 42.6363 67.69 42.8513L68.76 44.9763C68.806 45.0683 68.884 45.1413 68.98 45.1823L71.241 46.1453C71.403 46.2133 71.507 46.3713 71.507 46.5463V50.1833C71.507 50.3393 71.4229 50.4833 71.2869 50.5613L65.4739 53.8863C65.3109 53.9793 65.2249 54.1663 65.2619 54.3503L66.1099 58.5603C66.1389 58.7033 66.2369 58.8223 66.3729 58.8783L69.9299 60.3393C70.0509 60.3883 70.143 60.4893 70.182 60.6133L71.2559 64.0593C71.3619 64.3973 71.8069 64.4773 72.0239 64.1963L74.8359 60.5613C74.9069 60.4693 74.9389 60.3522 74.9229 60.2362L74.0859 54.1573C74.0419 53.8393 74.347 53.5853 74.655 53.6823L78.1129 54.7752C78.1679 54.7932 78.2189 54.8213 78.2639 54.8583L80.6149 56.8343C80.6589 56.8713 80.7089 56.8993 80.7639 56.9173L85.94 58.5693C86.001 58.5893 86.057 58.6222 86.104 58.6652L91.3839 63.5353L94.859 66.4423C94.958 66.5253 95.015 66.6473 95.015 66.7763V68.0873C95.015 68.3763 94.738 68.5853 94.458 68.5083L91.6859 67.7433C91.6129 67.7233 91.5469 67.6843 91.4929 67.6313L88.7349 64.8913C88.6039 64.7613 88.4059 64.7263 88.2379 64.8043L82.525 67.4653C82.445 67.5023 82.3769 67.5633 82.3319 67.6403L81.565 68.9473C81.372 69.2743 81.663 69.6732 82.036 69.5942L85.7849 68.7963C86.0869 68.7313 86.3599 68.9903 86.3099 69.2933C86.2659 69.5593 86.472 69.8013 86.744 69.8013H88.314C88.713 69.8013 88.9059 70.2873 88.6129 70.5573L78.713 79.6993C78.635 79.7713 78.586 79.8683 78.575 79.9733L77.9929 85.4143C77.9749 85.5763 77.8689 85.7143 77.7169 85.7743L71.5949 88.1833C71.4219 88.2523 71.3109 88.4223 71.3179 88.6073L71.426 91.1713C71.429 91.2513 71.455 91.3293 71.499 91.3953L72.952 93.5552C73 93.6262 73.026 93.7113 73.026 93.7973V96.0322C73.026 96.4312 72.532 96.6213 72.262 96.3263L68.8999 92.6593C68.8309 92.5833 68.736 92.5343 68.634 92.5203L65.1 92.0523C65.049 92.0463 64.9969 92.0483 64.9469 92.0593L61.725 92.7703C61.663 92.7843 61.599 92.7843 61.536 92.7713L56.2009 91.6183C55.9969 91.5743 55.7899 91.6783 55.7059 91.8683L53.42 96.9773C53.368 97.0933 53.3699 97.2263 53.4249 97.3413L55.502 101.698C55.563 101.826 55.684 101.917 55.825 101.941L59.716 102.603C59.887 102.633 60.059 102.559 60.156 102.415L60.828 101.413C60.933 101.258 61.124 101.186 61.306 101.233L63.058 101.692C63.25 101.743 63.385 101.916 63.385 102.114V106.708C63.385 106.949 63.582 107.145 63.824 107.145H68.807C68.955 107.145 69.093 107.218 69.174 107.341L70.0249 108.624C70.0869 108.716 70.11 108.828 70.092 108.937L69.476 112.56C69.443 112.753 69.5439 112.944 69.7219 113.027L73.52 114.802C73.63 114.854 73.7569 114.858 73.8699 114.813L79.905 112.415C79.951 112.396 79.9999 112.386 80.0499 112.384L85.8229 112.14C85.8609 112.138 85.898 112.132 85.934 112.121L89.0759 111.16C89.1229 111.146 89.1709 111.14 89.2199 111.141L96.765 111.387C96.796 111.388 96.826 111.392 96.856 111.399L103.942 113.128C103.962 113.133 103.982 113.14 104.002 113.148L111.628 116.202C111.715 116.237 111.812 116.244 111.903 116.22L120.666 113.959C121.001 113.873 121.3 114.187 121.195 114.514L118.196 123.846C118.172 123.923 118.128 123.99 118.066 124.043C114.112 127.446 108.124 131.819 100.016 135.251C93.7359 137.909 88.0019 139.233 83.5089 139.917C83.2169 139.962 82.9669 139.71 83.0109 139.42L83.4359 136.606C83.4679 136.389 83.334 136.182 83.122 136.121L80.986 135.515C80.9 135.491 80.824 135.441 80.767 135.373L77.4069 131.32C77.3609 131.263 77.3009 131.22 77.2329 131.192L72.2689 129.197C72.1379 129.144 72.04 129.03 72.007 128.893L70.9849 124.606C70.9499 124.459 70.9939 124.304 71.1019 124.197L73.5869 121.728C73.6549 121.66 73.6989 121.572 73.7119 121.476L74.039 118.981C74.058 118.838 74.0049 118.695 73.8969 118.599L71.749 116.69C71.705 116.651 71.654 116.621 71.598 116.602L67.355 115.157C67.309 115.141 67.265 115.117 67.226 115.087L63.79 112.405C63.774 112.393 63.76 112.38 63.746 112.366L59.694 108.219C59.646 108.169 59.5859 108.132 59.5209 108.109L49.045 104.559C48.977 104.536 48.9149 104.496 48.8659 104.443L43.89 99.1393C43.825 99.0693 43.7839 98.9813 43.7739 98.8863L42.7919 89.4963C42.7869 89.4473 42.773 89.3983 42.751 89.3533L40.043 83.7492C39.911 83.4742 39.5419 83.4153 39.3299 83.6363L38.2279 84.7793C38.0979 84.9143 38.069 85.1173 38.156 85.2833L40.488 89.7003C40.521 89.7633 40.5379 89.8323 40.5379 89.9033V91.4093C40.5379 91.7463 40.1709 91.9553 39.8789 91.7873L37.6619 90.5093C37.5629 90.4523 37.49 90.3582 37.459 90.2492L35.14 82.0033C35.127 81.9563 35.122 81.9072 35.125 81.8592L36.117 66.0863C36.122 66.0013 36.152 65.9203 36.203 65.8523L40.4419 60.2183C40.5039 60.1353 40.5349 60.0332 40.5289 59.9302L40.031 51.7813C40.024 51.6663 40.063 51.5543 40.139 51.4673L42.5249 48.7583C42.6099 48.6623 42.6479 48.5343 42.6289 48.4073L41.6799 42.0443C41.6629 41.9303 41.602 41.8283 41.509 41.7593L37.776 38.9783C37.698 38.9193 37.6009 38.8893 37.5029 38.8913L32.8429 38.9913C32.6639 38.9953 32.4999 38.8903 32.4289 38.7253L31.971 37.6513C31.86 37.3923 32.0209 37.0993 32.2999 37.0513Z" fill="#D6111F"/>
<path d="M74.2686 31.2819L76.3706 32.7519C76.4576 32.8129 76.5766 32.7509 76.5766 32.6459V30.2419C76.5766 30.0409 76.7436 29.8799 76.9456 29.8849L83.4396 30.0519L89.2446 32.8969L92.6116 34.3959L94.7866 36.9319C95.0756 37.2699 95.0895 37.7619 94.8195 38.1149L93.5736 39.7439C93.2516 40.1649 93.0816 40.6809 93.0906 41.2089L93.1926 47.0829L95.2825 48.6979V51.4659L88.0836 52.6189L84.2595 48.2919C84.0275 48.0299 83.8786 47.7059 83.8306 47.3599L83.0745 41.9509C83.0115 41.5019 82.7636 41.0989 82.3916 40.8379L76.3006 36.5739C76.0626 36.4069 75.7406 36.4279 75.5266 36.6229L73.2946 38.6509C73.1396 38.7919 72.9046 38.8039 72.7366 38.6789L69.9146 36.5899C69.6686 36.4079 69.5586 36.0959 69.6356 35.8019L69.7506 35.3629C70.3086 33.2339 72.0806 31.6319 74.2686 31.2819Z" fill="#D6111F"/>
<path d="M97.7309 38.4762L98.9059 37.3712C99.0789 37.2082 99.3339 37.1652 99.5509 37.2622L101.133 37.9692C101.283 38.0362 101.362 38.2022 101.319 38.3602L99.8689 43.7402C99.7989 43.9982 99.5309 44.1502 99.2719 44.0782L98.1659 43.7732C97.9199 43.7052 97.7379 43.4992 97.7019 43.2482L97.2239 39.9232C97.1469 39.3882 97.3359 38.8492 97.7309 38.4762Z" fill="#D6111F"/>
<path d="M110.16 38.5921L111.798 44.2421C111.896 44.5791 112.272 44.7521 112.594 44.6091L113.295 44.2981C113.557 44.1821 113.694 43.8921 113.616 43.6171L113.415 42.9111C113.334 42.6231 113.63 42.3721 113.903 42.4971L116.162 43.5331C116.457 43.6681 116.801 43.4921 116.86 43.1751L117.218 41.2631C117.259 41.0441 117.152 40.8241 116.954 40.7211L111.231 37.7261C110.646 37.4191 109.977 37.9611 110.16 38.5921Z" fill="#D6111F"/>
<path d="M18.3463 71.1438C23.6073 71.1438 27.8713 66.9078 27.8713 61.6808C27.8713 56.4548 23.6073 52.2188 18.3463 52.2188C13.0853 52.2188 8.82031 56.4548 8.82031 61.6808C8.82031 66.9078 13.0853 71.1438 18.3463 71.1438Z" fill="#3669C9"/>
<path d="M99.2682 103.913C104.529 103.913 108.793 99.6763 108.793 94.4503C108.793 89.2243 104.529 84.9873 99.2682 84.9873C94.0072 84.9873 89.7422 89.2243 89.7422 94.4503C89.7422 99.6763 94.0072 103.913 99.2682 103.913Z" fill="#3669C9"/>
<path d="M114.939 71.1438C120.2 71.1438 124.465 66.9078 124.465 61.6808C124.465 56.4548 120.2 52.2188 114.939 52.2188C109.678 52.2188 105.414 56.4548 105.414 61.6808C105.414 66.9078 109.678 71.1438 114.939 71.1438Z" fill="#3669C9"/>
<path d="M113.676 26.718C118.937 26.718 123.201 22.482 123.201 17.2557C123.201 12.0296 118.937 7.79297 113.676 7.79297C108.415 7.79297 104.15 12.0296 104.15 17.2557C104.15 22.482 108.415 26.718 113.676 26.718Z" fill="#3669C9"/>
<path d="M65.4605 135.837C70.7215 135.837 74.9866 131.6 74.9866 126.374C74.9866 121.148 70.7215 116.911 65.4605 116.911C60.1995 116.911 55.9355 121.148 55.9355 126.374C55.9355 131.6 60.1995 135.837 65.4605 135.837Z" fill="#3669C9"/>
<path d="M137.935 101.305C143.196 101.305 147.461 97.0689 147.461 91.8429C147.461 86.6159 143.196 82.3799 137.935 82.3799C132.674 82.3799 128.41 86.6159 128.41 91.8429C128.41 97.0689 132.674 101.305 137.935 101.305Z" fill="#3669C9"/>
<path d="M20.7125 120.231C25.9735 120.231 30.2385 115.995 30.2385 110.768C30.2385 105.542 25.9735 101.306 20.7125 101.306C15.4515 101.306 11.1875 105.542 11.1875 110.768C11.1875 115.995 15.4515 120.231 20.7125 120.231Z" fill="#3669C9"/>
<path d="M56.0084 25.852C61.2694 25.852 65.5344 21.6156 65.5344 16.3895C65.5344 11.1634 61.2694 6.92676 56.0084 6.92676C50.7474 6.92676 46.4824 11.1634 46.4824 16.3895C46.4824 21.6156 50.7474 25.852 56.0084 25.852Z" fill="#3669C9"/>
<path d="M70.8365 78.0012C76.0965 78.0012 80.3616 73.7642 80.3616 68.5382C80.3616 63.3122 76.0965 59.0752 70.8365 59.0752C65.5755 59.0752 61.3105 63.3122 61.3105 68.5382C61.3105 73.7642 65.5755 78.0012 70.8365 78.0012Z" fill="#3669C9"/>
<path d="M18.1642 59.8872C19.5712 59.8872 20.7122 58.7542 20.7122 57.3562C20.7122 55.9582 19.5712 54.8252 18.1642 54.8252C16.7572 54.8252 15.6172 55.9582 15.6172 57.3562C15.6172 58.7542 16.7572 59.8872 18.1642 59.8872Z" fill="white"/>
<path d="M99.0861 92.6548C100.493 92.6548 101.634 91.5218 101.634 90.1248C101.634 88.7268 100.493 87.5938 99.0861 87.5938C97.6791 87.5938 96.5391 88.7268 96.5391 90.1248C96.5391 91.5218 97.6791 92.6548 99.0861 92.6548Z" fill="white"/>
<path d="M114.759 59.8872C116.166 59.8872 117.306 58.7542 117.306 57.3562C117.306 55.9582 116.166 54.8252 114.759 54.8252C113.352 54.8252 112.211 55.9582 112.211 57.3562C112.211 58.7542 113.352 59.8872 114.759 59.8872Z" fill="white"/>
<path d="M113.496 15.461C114.903 15.461 116.044 14.3279 116.044 12.9302C116.044 11.5325 114.903 10.3994 113.496 10.3994C112.089 10.3994 110.949 11.5325 110.949 12.9302C110.949 14.3279 112.089 15.461 113.496 15.461Z" fill="white"/>
<path d="M65.2804 124.579C66.6864 124.579 67.8274 123.446 67.8274 122.048C67.8274 120.651 66.6864 119.518 65.2804 119.518C63.8734 119.518 62.7324 120.651 62.7324 122.048C62.7324 123.446 63.8734 124.579 65.2804 124.579Z" fill="white"/>
<path d="M137.755 90.0483C139.162 90.0483 140.302 88.9153 140.302 87.5173C140.302 86.1193 139.162 84.9863 137.755 84.9863C136.348 84.9863 135.207 86.1193 135.207 87.5173C135.207 88.9153 136.348 90.0483 137.755 90.0483Z" fill="white"/>
<path d="M20.5314 108.974C21.9384 108.974 23.0794 107.841 23.0794 106.443C23.0794 105.045 21.9384 103.912 20.5314 103.912C19.1244 103.912 17.9844 105.045 17.9844 106.443C17.9844 107.841 19.1244 108.974 20.5314 108.974Z" fill="white"/>
<path d="M55.8263 14.5948C57.2333 14.5948 58.3743 13.4617 58.3743 12.064C58.3743 10.6663 57.2333 9.5332 55.8263 9.5332C54.4193 9.5332 53.2793 10.6663 53.2793 12.064C53.2793 13.4617 54.4193 14.5948 55.8263 14.5948Z" fill="white"/>
<path d="M70.6554 66.7426C72.0624 66.7426 73.2034 65.6096 73.2034 64.2116C73.2034 62.8146 72.0624 61.6816 70.6554 61.6816C69.2484 61.6816 68.1074 62.8146 68.1074 64.2116C68.1074 65.6096 69.2484 66.7426 70.6554 66.7426Z" fill="white"/>
<path d="M19.0243 60.5176H17.6663C15.7493 60.5176 14.1953 62.0606 14.1953 63.9656V65.0886C14.1953 66.9936 15.7493 68.5376 17.6663 68.5376H19.0243C20.9413 68.5376 22.4953 66.9936 22.4953 65.0886V63.9656C22.4953 62.0606 20.9413 60.5176 19.0243 60.5176Z" fill="white"/>
<path d="M99.9462 93.2861H98.5882C96.6712 93.2861 95.1172 94.8301 95.1172 96.7341V97.8581C95.1172 99.7621 96.6712 101.306 98.5882 101.306H99.9462C101.863 101.306 103.417 99.7621 103.417 97.8581V96.7341C103.417 94.8301 101.863 93.2861 99.9462 93.2861Z" fill="white"/>
<path d="M115.619 60.5176H114.26C112.343 60.5176 110.789 62.0606 110.789 63.9656V65.0886C110.789 66.9936 112.343 68.5376 114.26 68.5376H115.619C117.536 68.5376 119.09 66.9936 119.09 65.0886V63.9656C119.09 62.0606 117.536 60.5176 115.619 60.5176Z" fill="white"/>
<path d="M114.356 16.0918H112.998C111.081 16.0918 109.527 17.6356 109.527 19.54V20.6637C109.527 22.568 111.081 24.112 112.998 24.112H114.356C116.273 24.112 117.828 22.568 117.828 20.6637V19.54C117.828 17.6356 116.273 16.0918 114.356 16.0918Z" fill="white"/>
<path d="M66.1406 125.21H64.7816C62.8646 125.21 61.3105 126.754 61.3105 128.658V129.782C61.3105 131.686 62.8646 133.23 64.7816 133.23H66.1406C68.0576 133.23 69.6115 131.686 69.6115 129.782V128.658C69.6115 126.754 68.0576 125.21 66.1406 125.21Z" fill="white"/>
<path d="M138.615 90.6787H137.256C135.339 90.6787 133.785 92.2227 133.785 94.1267V95.2507C133.785 97.1547 135.339 98.6987 137.256 98.6987H138.615C140.532 98.6987 142.086 97.1547 142.086 95.2507V94.1267C142.086 92.2227 140.532 90.6787 138.615 90.6787Z" fill="white"/>
<path d="M21.3925 109.604H20.0335C18.1165 109.604 16.5625 111.148 16.5625 113.053V114.176C16.5625 116.081 18.1165 117.625 20.0335 117.625H21.3925C23.3095 117.625 24.8635 116.081 24.8635 114.176V113.053C24.8635 111.148 23.3095 109.604 21.3925 109.604Z" fill="white"/>
<path d="M56.6864 15.2256H55.3284C53.4114 15.2256 51.8574 16.7694 51.8574 18.6738V19.7975C51.8574 21.7019 53.4114 23.246 55.3284 23.246H56.6864C58.6034 23.246 60.1584 21.7019 60.1584 19.7975V18.6738C60.1584 16.7694 58.6034 15.2256 56.6864 15.2256Z" fill="white"/>
<path d="M71.5146 67.374H70.1566C68.2396 67.374 66.6855 68.918 66.6855 70.822V71.946C66.6855 73.85 68.2396 75.394 70.1566 75.394H71.5146C73.4316 75.394 74.9856 73.85 74.9856 71.946V70.822C74.9856 68.918 73.4316 67.374 71.5146 67.374Z" fill="white"/>
</svg>
