<svg width="347" height="127" viewBox="0 0 347 127" fill="none" xmlns="http://www.w3.org/2000/svg">
<path fill-rule="evenodd" clip-rule="evenodd" d="M285 24C285 15.5992 285 11.3988 283.365 8.19014C281.927 5.36771 279.632 3.073 276.81 1.6349C273.601 0 269.401 0 261 0H29C20.5992 0 16.3988 0 13.1902 1.6349C10.3677 3.073 8.073 5.36771 6.63489 8.19014C5 11.3988 5 15.5992 5 24V34C5 42.4008 5 46.6012 6.63489 49.8099C8.073 52.6323 10.3677 54.927 13.1902 56.3651C16.3988 58 20.5992 58 29 58H261C269.401 58 273.601 58 276.81 56.3651C279.632 54.927 281.927 52.6323 283.365 49.8099C285 46.6012 285 42.4008 285 34V24Z" fill="#E6E5EB"/>
<path fill-rule="evenodd" clip-rule="evenodd" d="M0 57.6716V58H6C13.732 58 20 51.732 20 44H5.00033C5.00033 46.7383 5.00033 48.1074 4.80939 49.2517C4.24701 52.6218 2.49706 55.5753 0 57.6716Z" fill="#E6E5EB"/>
<path d="M19.821 12.9645V11.6364H29.0938V12.9645H25.206V24H23.7088V12.9645H19.821ZM32.4427 18.0838H35.099C36.1856 18.0838 37.0167 18.3595 37.5922 18.9109C38.1678 19.4622 38.4555 20.1605 38.4555 21.0057C38.4555 21.5611 38.3267 22.0662 38.0692 22.521C37.8116 22.9717 37.4333 23.3319 36.9342 23.6016C36.4352 23.8672 35.8234 24 35.099 24H31.2112V14.7273H32.6359V22.6719H35.099C35.6624 22.6719 36.1253 22.523 36.4875 22.2251C36.8497 21.9273 37.0308 21.545 37.0308 21.0781C37.0308 20.5871 36.8497 20.1867 36.4875 19.8768C36.1253 19.5669 35.6624 19.4119 35.099 19.4119H32.4427V18.0838ZM39.9285 24V14.7273H41.3533V24H39.9285ZM53.8135 22.0682L57.0493 14.7273H58.4015L54.393 24H53.2339L49.2979 14.7273H50.626L53.8135 22.0682ZM50.1672 14.7273V24H48.7425V14.7273H50.1672ZM57.4598 24V14.7273H58.8845V24H57.4598ZM65.2595 24.1932C64.4224 24.1932 63.6879 23.994 63.056 23.5955C62.4282 23.1971 61.9372 22.6397 61.583 21.9233C61.2329 21.2069 61.0578 20.3698 61.0578 19.4119C61.0578 18.446 61.2329 17.6029 61.583 16.8825C61.9372 16.162 62.4282 15.6026 63.056 15.2042C63.6879 14.8058 64.4224 14.6065 65.2595 14.6065C66.0966 14.6065 66.8291 14.8058 67.4569 15.2042C68.0888 15.6026 68.5798 16.162 68.93 16.8825C69.2841 17.6029 69.4612 18.446 69.4612 19.4119C69.4612 20.3698 69.2841 21.2069 68.93 21.9233C68.5798 22.6397 68.0888 23.1971 67.4569 23.5955C66.8291 23.994 66.0966 24.1932 65.2595 24.1932ZM65.2595 22.9134C65.8954 22.9134 66.4186 22.7504 66.8291 22.4244C67.2396 22.0984 67.5435 21.6697 67.7407 21.1385C67.9379 20.6072 68.0365 20.0317 68.0365 19.4119C68.0365 18.7921 67.9379 18.2146 67.7407 17.6793C67.5435 17.1441 67.2396 16.7114 66.8291 16.3814C66.4186 16.0514 65.8954 15.8864 65.2595 15.8864C64.6236 15.8864 64.1004 16.0514 63.6899 16.3814C63.2794 16.7114 62.9755 17.1441 62.7783 17.6793C62.5811 18.2146 62.4825 18.7921 62.4825 19.4119C62.4825 20.0317 62.5811 20.6072 62.7783 21.1385C62.9755 21.6697 63.2794 22.0984 63.6899 22.4244C64.1004 22.7504 64.6236 22.9134 65.2595 22.9134ZM70.815 24V22.6719H71.1531C71.4308 22.6719 71.6622 22.6175 71.8473 22.5089C72.0324 22.3962 72.1813 22.201 72.294 21.9233C72.4107 21.6416 72.4993 21.2512 72.5597 20.7521C72.6241 20.2491 72.6703 19.6091 72.6985 18.8324L72.8675 14.7273H79.0494V24H77.6246V16.0554H74.2198L74.0749 19.3636C74.0427 20.1243 73.9743 20.7944 73.8697 21.3739C73.7691 21.9495 73.6141 22.4324 73.4048 22.8228C73.1996 23.2132 72.9259 23.507 72.5838 23.7042C72.2417 23.9014 71.8131 24 71.2979 24H70.815ZM85.4304 24.1932C84.5933 24.1932 83.8588 23.994 83.2269 23.5955C82.5991 23.1971 82.1081 22.6397 81.7539 21.9233C81.4038 21.2069 81.2287 20.3698 81.2287 19.4119C81.2287 18.446 81.4038 17.6029 81.7539 16.8825C82.1081 16.162 82.5991 15.6026 83.2269 15.2042C83.8588 14.8058 84.5933 14.6065 85.4304 14.6065C86.2675 14.6065 87 14.8058 87.6278 15.2042C88.2597 15.6026 88.7507 16.162 89.1009 16.8825C89.455 17.6029 89.6321 18.446 89.6321 19.4119C89.6321 20.3698 89.455 21.2069 89.1009 21.9233C88.7507 22.6397 88.2597 23.1971 87.6278 23.5955C87 23.994 86.2675 24.1932 85.4304 24.1932ZM85.4304 22.9134C86.0663 22.9134 86.5895 22.7504 87 22.4244C87.4105 22.0984 87.7144 21.6697 87.9116 21.1385C88.1088 20.6072 88.2074 20.0317 88.2074 19.4119C88.2074 18.7921 88.1088 18.2146 87.9116 17.6793C87.7144 17.1441 87.4105 16.7114 87 16.3814C86.5895 16.0514 86.0663 15.8864 85.4304 15.8864C84.7945 15.8864 84.2713 16.0514 83.8608 16.3814C83.4503 16.7114 83.1464 17.1441 82.9492 17.6793C82.752 18.2146 82.6534 18.7921 82.6534 19.4119C82.6534 20.0317 82.752 20.6072 82.9492 21.1385C83.1464 21.6697 83.4503 22.0984 83.8608 22.4244C84.2713 22.7504 84.7945 22.9134 85.4304 22.9134ZM90.8169 26.6562V22.6719H91.5896C91.7787 22.4747 91.9417 22.2614 92.0786 22.032C92.2154 21.8026 92.3341 21.5309 92.4347 21.217C92.5394 20.899 92.6279 20.5127 92.7004 20.0579C92.7728 19.5991 92.8372 19.0457 92.8936 18.3977L93.2075 14.7273H99.0995V22.6719H100.524V26.6562H99.0995V24H92.2416V26.6562H90.8169ZM93.2075 22.6719H97.6748V16.0554H94.5356L94.2941 18.3977C94.1935 19.3677 94.0687 20.2148 93.9198 20.9393C93.7709 21.6637 93.5335 22.2412 93.2075 22.6719ZM106.303 24.1932C105.41 24.1932 104.639 23.996 103.991 23.6016C103.347 23.2031 102.85 22.6477 102.5 21.9354C102.154 21.219 101.981 20.3859 101.981 19.4361C101.981 18.4863 102.154 17.6491 102.5 16.9247C102.85 16.1963 103.337 15.6288 103.961 15.2223C104.589 14.8118 105.321 14.6065 106.158 14.6065C106.641 14.6065 107.118 14.687 107.589 14.848C108.06 15.009 108.488 15.2706 108.875 15.6328C109.261 15.991 109.569 16.4659 109.798 17.0575C110.028 17.6491 110.143 18.3776 110.143 19.2429V19.8466H102.995V18.6151H108.694C108.694 18.0919 108.589 17.625 108.38 17.2145C108.175 16.804 107.881 16.48 107.498 16.2425C107.12 16.0051 106.673 15.8864 106.158 15.8864C105.591 15.8864 105.1 16.0272 104.685 16.3089C104.275 16.5866 103.959 16.9489 103.737 17.3956C103.516 17.8423 103.405 18.3213 103.405 18.8324V19.6534C103.405 20.3537 103.526 20.9473 103.768 21.4343C104.013 21.9173 104.353 22.2855 104.788 22.5391C105.222 22.7886 105.728 22.9134 106.303 22.9134C106.677 22.9134 107.015 22.861 107.317 22.7564C107.623 22.6477 107.887 22.4867 108.108 22.2734C108.329 22.0561 108.501 21.7865 108.621 21.4645L109.998 21.8509C109.853 22.3177 109.609 22.7282 109.267 23.0824C108.925 23.4325 108.503 23.7062 107.999 23.9034C107.496 24.0966 106.931 24.1932 106.303 24.1932ZM119.602 14.7273V22.6719H120.906V26.9943H119.482V24H112.31V14.7273H113.735V22.6719H118.178V14.7273H119.602ZM124.984 11.6364L124.864 20.5227H123.463L123.342 11.6364H124.984ZM124.163 24.0966C123.866 24.0966 123.61 23.9899 123.397 23.7766C123.183 23.5633 123.077 23.3078 123.077 23.0099C123.077 22.7121 123.183 22.4566 123.397 22.2433C123.61 22.0299 123.866 21.9233 124.163 21.9233C124.461 21.9233 124.717 22.0299 124.93 22.2433C125.143 22.4566 125.25 22.7121 125.25 23.0099C125.25 23.2071 125.2 23.3883 125.099 23.5533C125.002 23.7183 124.872 23.8511 124.707 23.9517C124.546 24.0483 124.365 24.0966 124.163 24.0966ZM142.055 11.6364V24H140.558V12.9645H134.328V24H132.831V11.6364H142.055ZM144.882 27.4773V14.7273H146.259V16.2003H146.428C146.532 16.0393 146.677 15.834 146.862 15.5845C147.051 15.331 147.321 15.1056 147.671 14.9084C148.025 14.7071 148.504 14.6065 149.108 14.6065C149.889 14.6065 150.577 14.8017 151.173 15.1921C151.768 15.5825 152.233 16.1359 152.567 16.8523C152.901 17.5687 153.068 18.4138 153.068 19.3878C153.068 20.3698 152.901 21.221 152.567 21.9414C152.233 22.6578 151.77 23.2132 151.179 23.6076C150.587 23.998 149.905 24.1932 149.132 24.1932C148.536 24.1932 148.06 24.0946 147.701 23.8974C147.343 23.6961 147.067 23.4687 146.874 23.2152C146.681 22.9576 146.532 22.7443 146.428 22.5753H146.307V27.4773H144.882ZM146.283 19.3636C146.283 20.0639 146.385 20.6817 146.591 21.217C146.796 21.7482 147.096 22.1648 147.49 22.4666C147.884 22.7644 148.367 22.9134 148.939 22.9134C149.535 22.9134 150.032 22.7564 150.43 22.4425C150.833 22.1245 151.134 21.6979 151.336 21.1626C151.541 20.6233 151.643 20.0237 151.643 19.3636C151.643 18.7116 151.543 18.1241 151.342 17.6009C151.144 17.0736 150.845 16.6571 150.442 16.3512C150.044 16.0413 149.543 15.8864 148.939 15.8864C148.359 15.8864 147.872 16.0333 147.478 16.3271C147.084 16.6168 146.786 17.0233 146.585 17.5465C146.383 18.0657 146.283 18.6714 146.283 19.3636ZM159.009 24.1932C158.171 24.1932 157.437 23.994 156.805 23.5955C156.177 23.1971 155.686 22.6397 155.332 21.9233C154.982 21.2069 154.807 20.3698 154.807 19.4119C154.807 18.446 154.982 17.6029 155.332 16.8825C155.686 16.162 156.177 15.6026 156.805 15.2042C157.437 14.8058 158.171 14.6065 159.009 14.6065C159.846 14.6065 160.578 14.8058 161.206 15.2042C161.838 15.6026 162.329 16.162 162.679 16.8825C163.033 17.6029 163.21 18.446 163.21 19.4119C163.21 20.3698 163.033 21.2069 162.679 21.9233C162.329 22.6397 161.838 23.1971 161.206 23.5955C160.578 23.994 159.846 24.1932 159.009 24.1932ZM159.009 22.9134C159.644 22.9134 160.168 22.7504 160.578 22.4244C160.989 22.0984 161.292 21.6697 161.49 21.1385C161.687 20.6072 161.786 20.0317 161.786 19.4119C161.786 18.7921 161.687 18.2146 161.49 17.6793C161.292 17.1441 160.989 16.7114 160.578 16.3814C160.168 16.0514 159.644 15.8864 159.009 15.8864C158.373 15.8864 157.849 16.0514 157.439 16.3814C157.028 16.7114 156.725 17.1441 156.527 17.6793C156.33 18.2146 156.232 18.7921 156.232 19.4119C156.232 20.0317 156.33 20.6072 156.527 21.1385C156.725 21.6697 157.028 22.0984 157.439 22.4244C157.849 22.7504 158.373 22.9134 159.009 22.9134ZM164.395 26.6562V22.6719H165.168C165.357 22.4747 165.52 22.2614 165.657 22.032C165.794 21.8026 165.912 21.5309 166.013 21.217C166.118 20.899 166.206 20.5127 166.278 20.0579C166.351 19.5991 166.415 19.0457 166.472 18.3977L166.786 14.7273H172.678V22.6719H174.102V26.6562H172.678V24H165.82V26.6562H164.395ZM166.786 22.6719H171.253V16.0554H168.114L167.872 18.3977C167.772 19.3677 167.647 20.2148 167.498 20.9393C167.349 21.6637 167.112 22.2412 166.786 22.6719ZM179.76 24.1932C178.923 24.1932 178.189 23.994 177.557 23.5955C176.929 23.1971 176.438 22.6397 176.084 21.9233C175.734 21.2069 175.559 20.3698 175.559 19.4119C175.559 18.446 175.734 17.6029 176.084 16.8825C176.438 16.162 176.929 15.6026 177.557 15.2042C178.189 14.8058 178.923 14.6065 179.76 14.6065C180.598 14.6065 181.33 14.8058 181.958 15.2042C182.59 15.6026 183.081 16.162 183.431 16.8825C183.785 17.6029 183.962 18.446 183.962 19.4119C183.962 20.3698 183.785 21.2069 183.431 21.9233C183.081 22.6397 182.59 23.1971 181.958 23.5955C181.33 23.994 180.598 24.1932 179.76 24.1932ZM179.76 22.9134C180.396 22.9134 180.92 22.7504 181.33 22.4244C181.741 22.0984 182.044 21.6697 182.242 21.1385C182.439 20.6072 182.537 20.0317 182.537 19.4119C182.537 18.7921 182.439 18.2146 182.242 17.6793C182.044 17.1441 181.741 16.7114 181.33 16.3814C180.92 16.0514 180.396 15.8864 179.76 15.8864C179.125 15.8864 178.601 16.0514 178.191 16.3814C177.78 16.7114 177.477 17.1441 177.279 17.6793C177.082 18.2146 176.983 18.7921 176.983 19.4119C176.983 20.0317 177.082 20.6072 177.279 21.1385C177.477 21.6697 177.78 22.0984 178.191 22.4244C178.601 22.7504 179.125 22.9134 179.76 22.9134ZM185.316 24V22.6719H185.654C185.932 22.6719 186.163 22.6175 186.348 22.5089C186.533 22.3962 186.682 22.201 186.795 21.9233C186.912 21.6416 187 21.2512 187.061 20.7521C187.125 20.2491 187.171 19.6091 187.199 18.8324L187.369 14.7273H193.55V24H192.126V16.0554H188.721L188.576 19.3636C188.544 20.1243 188.475 20.7944 188.371 21.3739C188.27 21.9495 188.115 22.4324 187.906 22.8228C187.701 23.2132 187.427 23.507 187.085 23.7042C186.743 23.9014 186.314 24 185.799 24H185.316ZM195.585 24L199.352 19.2912L195.633 14.7273H197.323L200.414 18.6875H201.187V14.7273H202.612V18.6875H203.36L206.451 14.7273H208.142L204.447 19.2912L208.19 24H206.475L203.336 20.0156H202.612V24H201.187V20.0156H200.463L197.299 24H195.585ZM212.955 24.2173C212.367 24.2173 211.834 24.1067 211.355 23.8853C210.876 23.6599 210.496 23.3359 210.214 22.9134C209.932 22.4867 209.791 21.9716 209.791 21.3679C209.791 20.8366 209.896 20.406 210.105 20.076C210.314 19.742 210.594 19.4804 210.944 19.2912C211.294 19.102 211.681 18.9612 212.103 18.8686C212.53 18.772 212.959 18.6955 213.389 18.6392C213.953 18.5668 214.409 18.5124 214.76 18.4762C215.114 18.436 215.371 18.3696 215.532 18.277C215.697 18.1844 215.78 18.0234 215.78 17.794V17.7457C215.78 17.1501 215.617 16.6873 215.291 16.3572C214.969 16.0272 214.48 15.8622 213.824 15.8622C213.144 15.8622 212.61 16.0111 212.224 16.3089C211.838 16.6068 211.566 16.9247 211.409 17.2628L210.057 16.7798C210.298 16.2164 210.62 15.7777 211.023 15.4638C211.429 15.1458 211.872 14.9245 212.351 14.7997C212.834 14.6709 213.309 14.6065 213.776 14.6065C214.073 14.6065 214.415 14.6428 214.802 14.7152C215.192 14.7836 215.569 14.9265 215.931 15.1438C216.297 15.3612 216.601 15.6892 216.842 16.1278C217.084 16.5665 217.205 17.1541 217.205 17.8906V24H215.78V22.7443H215.707C215.611 22.9455 215.45 23.1609 215.224 23.3903C214.999 23.6197 214.699 23.8149 214.325 23.9759C213.951 24.1368 213.494 24.2173 212.955 24.2173ZM213.172 22.9375C213.735 22.9375 214.21 22.8268 214.597 22.6055C214.987 22.3841 215.281 22.0984 215.478 21.7482C215.679 21.3981 215.78 21.0298 215.78 20.6435V19.3395C215.719 19.4119 215.587 19.4783 215.381 19.5387C215.18 19.5951 214.947 19.6454 214.681 19.6896C214.42 19.7299 214.164 19.7661 213.914 19.7983C213.669 19.8265 213.47 19.8506 213.317 19.8707C212.946 19.919 212.6 19.9975 212.278 20.1062C211.96 20.2108 211.703 20.3698 211.506 20.5831C211.313 20.7924 211.216 21.0781 211.216 21.4403C211.216 21.9354 211.399 22.3097 211.765 22.5632C212.136 22.8127 212.604 22.9375 213.172 22.9375ZM221.23 21.8991L225.697 14.7273H227.339V24H225.914V16.8281L221.471 24H219.805V14.7273H221.23V21.8991ZM224.755 11.6364H226.083C226.083 12.2884 225.858 12.8216 225.407 13.2362C224.956 13.6507 224.345 13.858 223.572 13.858C222.811 13.858 222.206 13.6507 221.755 13.2362C221.308 12.8216 221.085 12.2884 221.085 11.6364H222.413C222.413 11.9503 222.499 12.226 222.672 12.4634C222.85 12.7009 223.149 12.8196 223.572 12.8196C223.995 12.8196 224.296 12.7009 224.478 12.4634C224.663 12.226 224.755 11.9503 224.755 11.6364ZM234.73 24V14.7273H238.521C239.519 14.7273 240.312 14.9527 240.9 15.4034C241.487 15.8542 241.781 16.4498 241.781 17.1903C241.781 17.7538 241.614 18.1905 241.28 18.5004C240.946 18.8062 240.517 19.0135 239.994 19.1222C240.336 19.1705 240.668 19.2912 240.99 19.4844C241.316 19.6776 241.586 19.9432 241.799 20.2812C242.012 20.6153 242.119 21.0258 242.119 21.5128C242.119 21.9877 241.998 22.4123 241.757 22.7866C241.515 23.1609 241.169 23.4567 240.718 23.674C240.268 23.8913 239.728 24 239.1 24H234.73ZM236.082 22.696H239.1C239.592 22.696 239.976 22.5793 240.254 22.3459C240.531 22.1125 240.67 21.7945 240.67 21.392C240.67 20.9131 240.531 20.5368 240.254 20.2631C239.976 19.9854 239.592 19.8466 239.1 19.8466H236.082V22.696ZM236.082 18.6151H238.521C238.903 18.6151 239.231 18.5627 239.505 18.4581C239.779 18.3494 239.988 18.1965 240.133 17.9993C240.282 17.7981 240.356 17.5606 240.356 17.2869C240.356 16.8965 240.193 16.5907 239.867 16.3693C239.541 16.1439 239.092 16.0312 238.521 16.0312H236.082V18.6151ZM19.7727 38.0554V36.7273H27.3068V38.0554H24.2642V46H22.8395V38.0554H19.7727ZM32.6706 46.1932C31.8335 46.1932 31.099 45.994 30.4672 45.5955C29.8393 45.1971 29.3483 44.6397 28.9941 43.9233C28.644 43.2069 28.4689 42.3698 28.4689 41.4119C28.4689 40.446 28.644 39.6029 28.9941 38.8825C29.3483 38.162 29.8393 37.6026 30.4672 37.2042C31.099 36.8058 31.8335 36.6065 32.6706 36.6065C33.5078 36.6065 34.2402 36.8058 34.8681 37.2042C35.4999 37.6026 35.9909 38.162 36.3411 38.8825C36.6953 39.6029 36.8723 40.446 36.8723 41.4119C36.8723 42.3698 36.6953 43.2069 36.3411 43.9233C35.9909 44.6397 35.4999 45.1971 34.8681 45.5955C34.2402 45.994 33.5078 46.1932 32.6706 46.1932ZM32.6706 44.9134C33.3065 44.9134 33.8297 44.7504 34.2402 44.4244C34.6507 44.0984 34.9546 43.6697 35.1518 43.1385C35.349 42.6072 35.4476 42.0317 35.4476 41.4119C35.4476 40.7921 35.349 40.2146 35.1518 39.6793C34.9546 39.1441 34.6507 38.7114 34.2402 38.3814C33.8297 38.0514 33.3065 37.8864 32.6706 37.8864C32.0347 37.8864 31.5115 38.0514 31.101 38.3814C30.6905 38.7114 30.3867 39.1441 30.1895 39.6793C29.9922 40.2146 29.8936 40.7921 29.8936 41.4119C29.8936 42.0317 29.9922 42.6072 30.1895 43.1385C30.3867 43.6697 30.6905 44.0984 31.101 44.4244C31.5115 44.7504 32.0347 44.9134 32.6706 44.9134ZM44.1182 44.0682L47.354 36.7273H48.7062L44.6977 46H43.5386L39.6025 36.7273H40.9307L44.1182 44.0682ZM40.4719 36.7273V46H39.0471V36.7273H40.4719ZM47.7645 46V36.7273H49.1892V46H47.7645ZM55.9988 46L59.7659 41.2912L56.0471 36.7273H57.7375L60.8284 40.6875H61.6011V36.7273H63.0258V40.6875H63.7744L66.8653 36.7273H68.5557L64.8611 41.2912L68.604 46H66.8895L63.7503 42.0156H63.0258V46H61.6011V42.0156H60.8767L57.7133 46H55.9988ZM74.1459 46.1932C73.2524 46.1932 72.4817 45.996 71.8337 45.6016C71.1898 45.2031 70.6927 44.6477 70.3426 43.9354C69.9965 43.219 69.8234 42.3859 69.8234 41.4361C69.8234 40.4863 69.9965 39.6491 70.3426 38.9247C70.6927 38.1963 71.1797 37.6288 71.8035 37.2223C72.4314 36.8118 73.1639 36.6065 74.001 36.6065C74.4839 36.6065 74.9608 36.687 75.4317 36.848C75.9026 37.009 76.3312 37.2706 76.7176 37.6328C77.104 37.991 77.4118 38.4659 77.6412 39.0575C77.8707 39.6491 77.9854 40.3776 77.9854 41.2429V41.8466H70.8376V40.6151H76.5365C76.5365 40.0919 76.4318 39.625 76.2226 39.2145C76.0173 38.804 75.7235 38.48 75.3412 38.2425C74.9629 38.0051 74.5161 37.8864 74.001 37.8864C73.4335 37.8864 72.9425 38.0272 72.528 38.3089C72.1175 38.5866 71.8015 38.9489 71.5802 39.3956C71.3588 39.8423 71.2481 40.3213 71.2481 40.8324V41.6534C71.2481 42.3537 71.3689 42.9473 71.6104 43.4343C71.8559 43.9173 72.1959 44.2855 72.6306 44.5391C73.0653 44.7886 73.5703 44.9134 74.1459 44.9134C74.5202 44.9134 74.8582 44.861 75.1601 44.7564C75.4659 44.6477 75.7296 44.4867 75.9509 44.2734C76.1723 44.0561 76.3433 43.7865 76.464 43.4645L77.8405 43.8509C77.6956 44.3177 77.4521 44.7282 77.11 45.0824C76.7679 45.4325 76.3453 45.7062 75.8422 45.9034C75.3392 46.0966 74.7737 46.1932 74.1459 46.1932ZM83.9438 48.6562V44.6719H84.7165C84.9057 44.4747 85.0687 44.2614 85.2055 44.032C85.3424 43.8026 85.4611 43.5309 85.5617 43.217C85.6663 42.899 85.7549 42.5127 85.8273 42.0579C85.8998 41.5991 85.9642 41.0457 86.0205 40.3977L86.3344 36.7273H92.2265V44.6719H93.6512V48.6562H92.2265V46H85.3685V48.6562H83.9438ZM86.3344 44.6719H90.8018V38.0554H87.6626L87.4211 40.3977C87.3205 41.3677 87.1957 42.2148 87.0468 42.9393C86.8979 43.6637 86.6604 44.2412 86.3344 44.6719ZM96.4599 49.4773C96.2184 49.4773 96.0031 49.4571 95.8139 49.4169C95.6248 49.3807 95.494 49.3445 95.4215 49.3082L95.7837 48.0526C96.1299 48.1411 96.4357 48.1733 96.7013 48.1491C96.967 48.125 97.2024 48.0063 97.4077 47.793C97.617 47.5837 97.8081 47.2436 97.9812 46.7727L98.2468 46.0483L94.8178 36.7273H96.3633L98.9229 44.1165H99.0195L101.579 36.7273H103.125L99.1886 47.3523C99.0115 47.8312 98.7921 48.2276 98.5305 48.5415C98.2689 48.8595 97.9651 49.0949 97.619 49.2479C97.2769 49.4008 96.8905 49.4773 96.4599 49.4773ZM106.068 36.7273L108.289 40.5185L110.511 36.7273H112.153L109.159 41.3636L112.153 46H110.511L108.289 42.402L106.068 46H104.426L107.372 41.3636L104.426 36.7273H106.068ZM117.692 46.1932C116.798 46.1932 116.028 45.996 115.38 45.6016C114.736 45.2031 114.239 44.6477 113.888 43.9354C113.542 43.219 113.369 42.3859 113.369 41.4361C113.369 40.4863 113.542 39.6491 113.888 38.9247C114.239 38.1963 114.726 37.6288 115.349 37.2223C115.977 36.8118 116.71 36.6065 117.547 36.6065C118.03 36.6065 118.507 36.687 118.978 36.848C119.449 37.009 119.877 37.2706 120.263 37.6328C120.65 37.991 120.958 38.4659 121.187 39.0575C121.417 39.6491 121.531 40.3776 121.531 41.2429V41.8466H114.384V40.6151H120.082C120.082 40.0919 119.978 39.625 119.768 39.2145C119.563 38.804 119.269 38.48 118.887 38.2425C118.509 38.0051 118.062 37.8864 117.547 37.8864C116.979 37.8864 116.488 38.0272 116.074 38.3089C115.663 38.5866 115.347 38.9489 115.126 39.3956C114.905 39.8423 114.794 40.3213 114.794 40.8324V41.6534C114.794 42.3537 114.915 42.9473 115.156 43.4343C115.402 43.9173 115.742 44.2855 116.176 44.5391C116.611 44.7886 117.116 44.9134 117.692 44.9134C118.066 44.9134 118.404 44.861 118.706 44.7564C119.012 44.6477 119.275 44.4867 119.497 44.2734C119.718 44.0561 119.889 43.7865 120.01 43.4645L121.386 43.8509C121.241 44.3177 120.998 44.7282 120.656 45.0824C120.314 45.4325 119.891 45.7062 119.388 45.9034C118.885 46.0966 118.32 46.1932 117.692 46.1932ZM124.737 46.0966C124.439 46.0966 124.183 45.9899 123.97 45.7766C123.757 45.5633 123.65 45.3078 123.65 45.0099C123.65 44.7121 123.757 44.4566 123.97 44.2433C124.183 44.0299 124.439 43.9233 124.737 43.9233C125.035 43.9233 125.29 44.0299 125.504 44.2433C125.717 44.4566 125.824 44.7121 125.824 45.0099C125.824 45.2071 125.773 45.3883 125.673 45.5533C125.576 45.7183 125.445 45.8511 125.28 45.9517C125.119 46.0483 124.938 46.0966 124.737 46.0966Z" fill="black"/>
<path fill-rule="evenodd" clip-rule="evenodd" d="M342 91C342 82.5992 342 78.3988 340.365 75.1901C338.927 72.3677 336.632 70.073 333.81 68.6349C330.601 67 326.401 67 318 67H123C114.599 67 110.399 67 107.19 68.6349C104.368 70.073 102.073 72.3677 100.635 75.1901C99 78.3988 99 82.5992 99 91V103C99 111.401 99 115.601 100.635 118.81C102.073 121.632 104.368 123.927 107.19 125.365C110.399 127 114.599 127 123 127H318C326.401 127 330.601 127 333.81 125.365C336.632 123.927 338.927 121.632 340.365 118.81C342 115.601 342 111.401 342 103V91Z" fill="#3669C9"/>
<path fill-rule="evenodd" clip-rule="evenodd" d="M342.029 113H327C327 120.732 333.268 127 341 127H347V126.671C345.569 125.47 344.384 123.987 343.526 122.303C342.404 120.1 342.107 117.397 342.029 113Z" fill="#3669C9"/>
<path d="M124.446 82.5H122.949C122.86 82.0694 122.705 81.6911 122.484 81.3651C122.267 81.0391 122.001 80.7654 121.687 80.544C121.377 80.3187 121.033 80.1496 120.655 80.0369C120.277 79.9242 119.882 79.8679 119.472 79.8679C118.723 79.8679 118.045 80.0571 117.437 80.4354C116.833 80.8137 116.353 81.3711 115.994 82.1076C115.64 82.8441 115.463 83.7476 115.463 84.8182C115.463 85.8887 115.64 86.7923 115.994 87.5288C116.353 88.2653 116.833 88.8227 117.437 89.201C118.045 89.5793 118.723 89.7685 119.472 89.7685C119.882 89.7685 120.277 89.7121 120.655 89.5994C121.033 89.4867 121.377 89.3197 121.687 89.0984C122.001 88.873 122.267 88.5973 122.484 88.2713C122.705 87.9413 122.86 87.563 122.949 87.1364H124.446C124.333 87.7682 124.128 88.3337 123.83 88.8327C123.532 89.3318 123.162 89.7564 122.719 90.1065C122.277 90.4527 121.78 90.7163 121.228 90.8974C120.681 91.0785 120.095 91.169 119.472 91.169C118.417 91.169 117.479 90.9115 116.658 90.3963C115.837 89.8812 115.191 89.1487 114.721 88.1989C114.25 87.2491 114.014 86.1222 114.014 84.8182C114.014 83.5142 114.25 82.3873 114.721 81.4375C115.191 80.4877 115.837 79.7552 116.658 79.2401C117.479 78.7249 118.417 78.4673 119.472 78.4673C120.095 78.4673 120.681 78.5579 121.228 78.739C121.78 78.9201 122.277 79.1857 122.719 79.5359C123.162 79.882 123.532 80.3046 123.83 80.8036C124.128 81.2987 124.333 81.8641 124.446 82.5ZM126.672 91V81.7273H133.965V91H132.54V83.0554H128.097V91H126.672ZM139.295 91.2173C138.708 91.2173 138.175 91.1067 137.696 90.8853C137.217 90.6599 136.836 90.3359 136.555 89.9134C136.273 89.4867 136.132 88.9716 136.132 88.3679C136.132 87.8366 136.237 87.406 136.446 87.076C136.655 86.742 136.935 86.4804 137.285 86.2912C137.635 86.102 138.022 85.9612 138.444 85.8686C138.871 85.772 139.299 85.6955 139.73 85.6392C140.293 85.5668 140.75 85.5124 141.1 85.4762C141.455 85.436 141.712 85.3696 141.873 85.277C142.038 85.1844 142.121 85.0234 142.121 84.794V84.7457C142.121 84.1501 141.958 83.6873 141.632 83.3572C141.31 83.0272 140.821 82.8622 140.165 82.8622C139.485 82.8622 138.951 83.0111 138.565 83.3089C138.179 83.6068 137.907 83.9247 137.75 84.2628L136.398 83.7798C136.639 83.2164 136.961 82.7777 137.364 82.4638C137.77 82.1458 138.213 81.9245 138.692 81.7997C139.175 81.6709 139.65 81.6065 140.116 81.6065C140.414 81.6065 140.756 81.6428 141.143 81.7152C141.533 81.7836 141.909 81.9265 142.272 82.1438C142.638 82.3612 142.942 82.6892 143.183 83.1278C143.425 83.5665 143.545 84.1541 143.545 84.8906V91H142.121V89.7443H142.048C141.952 89.9455 141.791 90.1609 141.565 90.3903C141.34 90.6197 141.04 90.8149 140.666 90.9759C140.291 91.1368 139.835 91.2173 139.295 91.2173ZM139.513 89.9375C140.076 89.9375 140.551 89.8268 140.937 89.6055C141.328 89.3841 141.622 89.0984 141.819 88.7482C142.02 88.3981 142.121 88.0298 142.121 87.6435V86.3395C142.06 86.4119 141.927 86.4783 141.722 86.5387C141.521 86.5951 141.288 86.6454 141.022 86.6896C140.76 86.7299 140.505 86.7661 140.255 86.7983C140.01 86.8265 139.811 86.8506 139.658 86.8707C139.287 86.919 138.941 86.9975 138.619 87.1062C138.301 87.2108 138.044 87.3698 137.847 87.5831C137.653 87.7924 137.557 88.0781 137.557 88.4403C137.557 88.9354 137.74 89.3097 138.106 89.5632C138.476 89.8127 138.945 89.9375 139.513 89.9375ZM149.913 91.1932C149.044 91.1932 148.295 90.9879 147.667 90.5774C147.039 90.1669 146.556 89.6014 146.218 88.881C145.88 88.1606 145.711 87.3376 145.711 86.4119C145.711 85.4702 145.884 84.6391 146.23 83.9187C146.58 83.1942 147.067 82.6288 147.691 82.2223C148.319 81.8118 149.052 81.6065 149.889 81.6065C150.541 81.6065 151.128 81.7273 151.651 81.9688C152.175 82.2102 152.603 82.5483 152.937 82.983C153.271 83.4176 153.479 83.9247 153.559 84.5043H152.134C152.026 84.0817 151.784 83.7074 151.41 83.3814C151.04 83.0514 150.541 82.8864 149.913 82.8864C149.357 82.8864 148.87 83.0312 148.452 83.321C148.037 83.6068 147.713 84.0112 147.48 84.5344C147.251 85.0536 147.136 85.6634 147.136 86.3636C147.136 87.08 147.249 87.7038 147.474 88.2351C147.703 88.7663 148.025 89.1789 148.44 89.4727C148.858 89.7665 149.349 89.9134 149.913 89.9134C150.283 89.9134 150.619 89.849 150.921 89.7202C151.223 89.5914 151.478 89.4062 151.688 89.1648C151.897 88.9233 152.046 88.6335 152.134 88.2955H153.559C153.479 88.8428 153.279 89.3358 152.961 89.7745C152.648 90.2092 152.231 90.5553 151.712 90.8129C151.197 91.0664 150.597 91.1932 149.913 91.1932ZM157.067 88.8991L161.534 81.7273H163.176V91H161.751V83.8281L157.308 91H155.642V81.7273H157.067V88.8991ZM172.668 78.25L173.392 79.1193C173.11 79.393 172.784 79.5842 172.414 79.6928C172.044 79.8015 171.625 79.8679 171.158 79.892C170.691 79.9162 170.172 79.9403 169.601 79.9645C168.957 79.9886 168.424 80.1456 168.001 80.4354C167.578 80.7251 167.252 81.1437 167.023 81.6911C166.794 82.2384 166.647 82.9105 166.582 83.7074H166.703C167.017 83.1278 167.452 82.7012 168.007 82.4276C168.562 82.1539 169.158 82.017 169.794 82.017C170.518 82.017 171.17 82.1861 171.75 82.5241C172.329 82.8622 172.788 83.3633 173.126 84.0273C173.464 84.6914 173.633 85.5104 173.633 86.4844C173.633 87.4543 173.46 88.2914 173.114 88.9957C172.772 89.7 172.291 90.2434 171.671 90.6257C171.056 91.004 170.333 91.1932 169.504 91.1932C168.675 91.1932 167.949 90.998 167.325 90.6076C166.701 90.2132 166.216 89.6296 165.87 88.8569C165.524 88.0801 165.351 87.1203 165.351 85.9773V84.9872C165.351 82.9226 165.701 81.357 166.401 80.2905C167.105 79.224 168.164 78.6726 169.577 78.6364C170.076 78.6203 170.52 78.6162 170.911 78.6243C171.301 78.6323 171.641 78.6142 171.931 78.57C172.221 78.5257 172.466 78.419 172.668 78.25ZM169.504 89.9134C170.064 89.9134 170.545 89.7725 170.947 89.4908C171.353 89.209 171.665 88.8126 171.883 88.3015C172.1 87.7863 172.209 87.1806 172.209 86.4844C172.209 85.8082 172.098 85.2327 171.877 84.7578C171.659 84.2829 171.347 83.9207 170.941 83.6712C170.534 83.4216 170.047 83.2969 169.48 83.2969C169.065 83.2969 168.693 83.3673 168.363 83.5082C168.033 83.649 167.751 83.8563 167.518 84.13C167.285 84.4036 167.103 84.7377 166.975 85.1321C166.85 85.5265 166.784 85.9773 166.775 86.4844C166.775 87.5227 167.019 88.3538 167.506 88.9776C167.993 89.6014 168.659 89.9134 169.504 89.9134ZM179.58 91.1932C178.743 91.1932 178.008 90.994 177.376 90.5955C176.748 90.1971 176.257 89.6397 175.903 88.9233C175.553 88.2069 175.378 87.3698 175.378 86.4119C175.378 85.446 175.553 84.6029 175.903 83.8825C176.257 83.162 176.748 82.6026 177.376 82.2042C178.008 81.8058 178.743 81.6065 179.58 81.6065C180.417 81.6065 181.149 81.8058 181.777 82.2042C182.409 82.6026 182.9 83.162 183.25 83.8825C183.604 84.6029 183.782 85.446 183.782 86.4119C183.782 87.3698 183.604 88.2069 183.25 88.9233C182.9 89.6397 182.409 90.1971 181.777 90.5955C181.149 90.994 180.417 91.1932 179.58 91.1932ZM179.58 89.9134C180.216 89.9134 180.739 89.7504 181.149 89.4244C181.56 89.0984 181.864 88.6697 182.061 88.1385C182.258 87.6072 182.357 87.0317 182.357 86.4119C182.357 85.7921 182.258 85.2146 182.061 84.6793C181.864 84.1441 181.56 83.7114 181.149 83.3814C180.739 83.0514 180.216 82.8864 179.58 82.8864C178.944 82.8864 178.421 83.0514 178.01 83.3814C177.6 83.7114 177.296 84.1441 177.099 84.6793C176.901 85.2146 176.803 85.7921 176.803 86.4119C176.803 87.0317 176.901 87.6072 177.099 88.1385C177.296 88.6697 177.6 89.0984 178.01 89.4244C178.421 89.7504 178.944 89.9134 179.58 89.9134ZM187.84 78.6364L187.719 87.5227H186.319L186.198 78.6364H187.84ZM187.019 91.0966C186.721 91.0966 186.465 90.9899 186.252 90.7766C186.039 90.5633 185.932 90.3078 185.932 90.0099C185.932 89.7121 186.039 89.4566 186.252 89.2433C186.465 89.0299 186.721 88.9233 187.019 88.9233C187.317 88.9233 187.572 89.0299 187.786 89.2433C187.999 89.4566 188.105 89.7121 188.105 90.0099C188.105 90.2071 188.055 90.3883 187.955 90.5533C187.858 90.7183 187.727 90.8511 187.562 90.9517C187.401 91.0483 187.22 91.0966 187.019 91.0966ZM194.6 93.9943V89.6719H195.397C195.67 89.4223 195.928 89.0702 196.169 88.6154C196.415 88.1566 196.622 87.5449 196.791 86.7802C196.964 86.0115 197.079 85.0355 197.135 83.8523L197.401 78.6364H204.742V89.6719H206.166V93.9702H204.742V91H196.024V93.9943H194.6ZM197.184 89.6719H203.317V79.9645H198.753L198.56 83.8523C198.512 84.7538 198.427 85.5708 198.306 86.3033C198.186 87.0317 198.031 87.6777 197.842 88.2411C197.652 88.8005 197.433 89.2775 197.184 89.6719ZM207.415 91V89.6719H207.753C208.03 89.6719 208.262 89.6175 208.447 89.5089C208.632 89.3962 208.781 89.201 208.894 88.9233C209.01 88.6416 209.099 88.2512 209.159 87.7521C209.224 87.2491 209.27 86.6091 209.298 85.8324L209.467 81.7273H215.649V91H214.224V83.0554H210.819L210.675 86.3636C210.642 87.1243 210.574 87.7944 210.469 88.3739C210.369 88.9495 210.214 89.4324 210.004 89.8228C209.799 90.2132 209.526 90.507 209.183 90.7042C208.841 90.9014 208.413 91 207.898 91H207.415ZM223.841 91V83.0312H221.378C220.823 83.0312 220.386 83.16 220.068 83.4176C219.75 83.6752 219.591 84.0294 219.591 84.4801C219.591 84.9228 219.734 85.271 220.02 85.5245C220.309 85.7781 220.706 85.9048 221.209 85.9048H224.203V87.233H221.209C220.581 87.233 220.04 87.1223 219.585 86.9009C219.13 86.6796 218.78 86.3636 218.535 85.9531C218.289 85.5386 218.166 85.0476 218.166 84.4801C218.166 83.9086 218.295 83.4176 218.553 83.0071C218.81 82.5966 219.179 82.2807 219.657 82.0593C220.14 81.8379 220.714 81.7273 221.378 81.7273H225.193V91H223.841ZM217.659 91L220.291 86.3878H221.837L219.205 91H217.659ZM237.661 89.0682L240.897 81.7273H242.249L238.241 91H237.082L233.146 81.7273H234.474L237.661 89.0682ZM234.015 81.7273V91H232.59V81.7273H234.015ZM241.307 91V81.7273H242.732V91H241.307ZM249.228 91.1932C248.334 91.1932 247.564 90.996 246.916 90.6016C246.272 90.2031 245.775 89.6477 245.425 88.9354C245.079 88.219 244.905 87.3859 244.905 86.4361C244.905 85.4863 245.079 84.6491 245.425 83.9247C245.775 83.1963 246.262 82.6288 246.886 82.2223C247.513 81.8118 248.246 81.6065 249.083 81.6065C249.566 81.6065 250.043 81.687 250.514 81.848C250.985 82.009 251.413 82.2706 251.8 82.6328C252.186 82.991 252.494 83.4659 252.723 84.0575C252.953 84.6491 253.067 85.3776 253.067 86.2429V86.8466H245.92V85.6151H251.619C251.619 85.0919 251.514 84.625 251.305 84.2145C251.099 83.804 250.806 83.48 250.423 83.2425C250.045 83.0051 249.598 82.8864 249.083 82.8864C248.516 82.8864 248.025 83.0272 247.61 83.3089C247.199 83.5866 246.884 83.9489 246.662 84.3956C246.441 84.8423 246.33 85.3213 246.33 85.8324V86.6534C246.33 87.3537 246.451 87.9473 246.692 88.4343C246.938 88.9173 247.278 89.2855 247.713 89.5391C248.147 89.7886 248.652 89.9134 249.228 89.9134C249.602 89.9134 249.94 89.861 250.242 89.7564C250.548 89.6477 250.812 89.4867 251.033 89.2734C251.254 89.0561 251.425 88.7865 251.546 88.4645L252.922 88.8509C252.778 89.3177 252.534 89.7282 252.192 90.0824C251.85 90.4325 251.427 90.7062 250.924 90.9034C250.421 91.0966 249.856 91.1932 249.228 91.1932ZM261.441 85.7116V87.0398H256.321V85.7116H261.441ZM256.659 81.7273V91H255.235V81.7273H256.659ZM262.527 81.7273V91H261.103V81.7273H262.527ZM270.707 91V83.0312H268.244C267.689 83.0312 267.252 83.16 266.934 83.4176C266.616 83.6752 266.457 84.0294 266.457 84.4801C266.457 84.9228 266.6 85.271 266.886 85.5245C267.176 85.7781 267.572 85.9048 268.075 85.9048H271.07V87.233H268.075C267.447 87.233 266.906 87.1223 266.451 86.9009C265.996 86.6796 265.646 86.3636 265.401 85.9531C265.155 85.5386 265.033 85.0476 265.033 84.4801C265.033 83.9086 265.161 83.4176 265.419 83.0071C265.677 82.5966 266.045 82.2807 266.524 82.0593C267.007 81.8379 267.58 81.7273 268.244 81.7273H272.06V91H270.707ZM264.525 91L267.158 86.3878H268.703L266.071 91H264.525ZM286.604 81.7273V91H285.179V81.7273H286.604ZM286.049 86.1463V87.4744C285.727 87.5952 285.407 87.7018 285.089 87.7944C284.771 87.8829 284.437 87.9534 284.087 88.0057C283.737 88.054 283.352 88.0781 282.934 88.0781C281.883 88.0781 281.04 87.7944 280.404 87.2269C279.772 86.6594 279.456 85.8082 279.456 84.6733V81.7031H280.881V84.6733C280.881 85.1482 280.972 85.5386 281.153 85.8445C281.334 86.1503 281.579 86.3777 281.889 86.5266C282.199 86.6755 282.547 86.75 282.934 86.75C283.537 86.75 284.083 86.6957 284.57 86.587C285.061 86.4743 285.554 86.3274 286.049 86.1463ZM293.106 91.1932C292.212 91.1932 291.442 90.996 290.794 90.6016C290.15 90.2031 289.653 89.6477 289.303 88.9354C288.956 88.219 288.783 87.3859 288.783 86.4361C288.783 85.4863 288.956 84.6491 289.303 83.9247C289.653 83.1963 290.14 82.6288 290.763 82.2223C291.391 81.8118 292.124 81.6065 292.961 81.6065C293.444 81.6065 293.921 81.687 294.392 81.848C294.863 82.009 295.291 82.2706 295.678 82.6328C296.064 82.991 296.372 83.4659 296.601 84.0575C296.831 84.6491 296.945 85.3776 296.945 86.2429V86.8466H289.798V85.6151H295.496C295.496 85.0919 295.392 84.625 295.183 84.2145C294.977 83.804 294.683 83.48 294.301 83.2425C293.923 83.0051 293.476 82.8864 292.961 82.8864C292.393 82.8864 291.902 83.0272 291.488 83.3089C291.077 83.5866 290.761 83.9489 290.54 84.3956C290.319 84.8423 290.208 85.3213 290.208 85.8324V86.6534C290.208 87.3537 290.329 87.9473 290.57 88.4343C290.816 88.9173 291.156 89.2855 291.591 89.5391C292.025 89.7886 292.53 89.9134 293.106 89.9134C293.48 89.9134 293.818 89.861 294.12 89.7564C294.426 89.6477 294.69 89.4867 294.911 89.2734C295.132 89.0561 295.303 88.7865 295.424 88.4645L296.8 88.8509C296.656 89.3177 296.412 89.7282 296.07 90.0824C295.728 90.4325 295.305 90.7062 294.802 90.9034C294.299 91.0966 293.734 91.1932 293.106 91.1932ZM302.88 91.1932C302.01 91.1932 301.262 90.9879 300.634 90.5774C300.006 90.1669 299.523 89.6014 299.185 88.881C298.847 88.1606 298.678 87.3376 298.678 86.4119C298.678 85.4702 298.851 84.6391 299.197 83.9187C299.547 83.1942 300.034 82.6288 300.658 82.2223C301.286 81.8118 302.018 81.6065 302.855 81.6065C303.507 81.6065 304.095 81.7273 304.618 81.9688C305.141 82.2102 305.57 82.5483 305.904 82.983C306.238 83.4176 306.445 83.9247 306.526 84.5043H305.101C304.993 84.0817 304.751 83.7074 304.377 83.3814C304.007 83.0514 303.507 82.8864 302.88 82.8864C302.324 82.8864 301.837 83.0312 301.419 83.321C301.004 83.6068 300.68 84.0112 300.447 84.5344C300.217 85.0536 300.103 85.6634 300.103 86.3636C300.103 87.08 300.215 87.7038 300.441 88.2351C300.67 88.7663 300.992 89.1789 301.407 89.4727C301.825 89.7665 302.316 89.9134 302.88 89.9134C303.25 89.9134 303.586 89.849 303.888 89.7202C304.19 89.5914 304.445 89.4062 304.654 89.1648C304.864 88.9233 305.013 88.6335 305.101 88.2955H306.526C306.445 88.8428 306.246 89.3358 305.928 89.7745C305.614 90.2092 305.198 90.5553 304.679 90.8129C304.163 91.0664 303.564 91.1932 302.88 91.1932ZM307.878 83.0554V81.7273H315.412V83.0554H312.37V91H310.945V83.0554H307.878ZM318.722 85.0838H321.378C322.465 85.0838 323.296 85.3595 323.872 85.9109C324.447 86.4622 324.735 87.1605 324.735 88.0057C324.735 88.5611 324.606 89.0662 324.348 89.521C324.091 89.9717 323.713 90.3319 323.214 90.6016C322.714 90.8672 322.103 91 321.378 91H317.491V81.7273H318.915V89.6719H321.378C321.942 89.6719 322.405 89.523 322.767 89.2251C323.129 88.9273 323.31 88.545 323.31 88.0781C323.31 87.5871 323.129 87.1867 322.767 86.8768C322.405 86.5669 321.942 86.4119 321.378 86.4119H318.722V85.0838ZM121.186 100.25L121.911 101.119C121.629 101.393 121.303 101.584 120.933 101.693C120.562 101.801 120.144 101.868 119.677 101.892C119.21 101.916 118.691 101.94 118.119 101.964C117.475 101.989 116.942 102.146 116.52 102.435C116.097 102.725 115.771 103.144 115.542 103.691C115.312 104.238 115.165 104.911 115.101 105.707H115.222C115.536 105.128 115.97 104.701 116.526 104.428C117.081 104.154 117.677 104.017 118.312 104.017C119.037 104.017 119.689 104.186 120.268 104.524C120.848 104.862 121.307 105.363 121.645 106.027C121.983 106.691 122.152 107.51 122.152 108.484C122.152 109.454 121.979 110.291 121.633 110.996C121.291 111.7 120.81 112.243 120.19 112.626C119.574 113.004 118.852 113.193 118.023 113.193C117.194 113.193 116.467 112.998 115.843 112.608C115.22 112.213 114.735 111.63 114.388 110.857C114.042 110.08 113.869 109.12 113.869 107.977V106.987C113.869 104.923 114.219 103.357 114.92 102.29C115.624 101.224 116.683 100.673 118.095 100.636C118.594 100.62 119.039 100.616 119.429 100.624C119.82 100.632 120.16 100.614 120.45 100.57C120.739 100.526 120.985 100.419 121.186 100.25ZM118.023 111.913C118.582 111.913 119.063 111.772 119.466 111.491C119.872 111.209 120.184 110.813 120.401 110.301C120.619 109.786 120.727 109.181 120.727 108.484C120.727 107.808 120.617 107.233 120.395 106.758C120.178 106.283 119.866 105.921 119.46 105.671C119.053 105.422 118.566 105.297 117.999 105.297C117.584 105.297 117.212 105.367 116.882 105.508C116.552 105.649 116.27 105.856 116.037 106.13C115.803 106.404 115.622 106.738 115.493 107.132C115.368 107.527 115.302 107.977 115.294 108.484C115.294 109.523 115.538 110.354 116.025 110.978C116.511 111.601 117.178 111.913 118.023 111.913ZM125.563 107.084H128.219C129.306 107.084 130.137 107.359 130.712 107.911C131.288 108.462 131.576 109.161 131.576 110.006C131.576 110.561 131.447 111.066 131.189 111.521C130.932 111.972 130.553 112.332 130.054 112.602C129.555 112.867 128.944 113 128.219 113H124.331V103.727H125.756V111.672H128.219C128.783 111.672 129.245 111.523 129.608 111.225C129.97 110.927 130.151 110.545 130.151 110.078C130.151 109.587 129.97 109.187 129.608 108.877C129.245 108.567 128.783 108.412 128.219 108.412H125.563V107.084ZM133.049 113V103.727H134.473V113H133.049ZM136.55 105.055V103.727H144.084V105.055H141.042V113H139.617V105.055H136.55ZM147.394 107.084H150.05C151.137 107.084 151.968 107.359 152.543 107.911C153.119 108.462 153.407 109.161 153.407 110.006C153.407 110.561 153.278 111.066 153.02 111.521C152.763 111.972 152.384 112.332 151.885 112.602C151.386 112.867 150.775 113 150.05 113H146.162V103.727H147.587V111.672H150.05C150.614 111.672 151.076 111.523 151.439 111.225C151.801 110.927 151.982 110.545 151.982 110.078C151.982 109.587 151.801 109.187 151.439 108.877C151.076 108.567 150.614 108.412 150.05 108.412H147.394V107.084ZM169.798 100.636V113H168.301V101.964H162.071V113H160.574V100.636H169.798ZM176.513 113.193C175.62 113.193 174.849 112.996 174.201 112.602C173.557 112.203 173.06 111.648 172.71 110.935C172.364 110.219 172.191 109.386 172.191 108.436C172.191 107.486 172.364 106.649 172.71 105.925C173.06 105.196 173.547 104.629 174.171 104.222C174.799 103.812 175.531 103.607 176.368 103.607C176.851 103.607 177.328 103.687 177.799 103.848C178.27 104.009 178.698 104.271 179.085 104.633C179.471 104.991 179.779 105.466 180.008 106.058C180.238 106.649 180.353 107.378 180.353 108.243V108.847H173.205V107.615H178.904C178.904 107.092 178.799 106.625 178.59 106.214C178.384 105.804 178.091 105.48 177.708 105.243C177.33 105.005 176.883 104.886 176.368 104.886C175.801 104.886 175.31 105.027 174.895 105.309C174.485 105.587 174.169 105.949 173.947 106.396C173.726 106.842 173.615 107.321 173.615 107.832V108.653C173.615 109.354 173.736 109.947 173.978 110.434C174.223 110.917 174.563 111.286 174.998 111.539C175.432 111.789 175.938 111.913 176.513 111.913C176.887 111.913 177.225 111.861 177.527 111.756C177.833 111.648 178.097 111.487 178.318 111.273C178.539 111.056 178.71 110.786 178.831 110.464L180.208 110.851C180.063 111.318 179.819 111.728 179.477 112.082C179.135 112.433 178.713 112.706 178.209 112.903C177.706 113.097 177.141 113.193 176.513 113.193ZM182.52 116.477V103.727H183.896V105.2H184.065C184.17 105.039 184.315 104.834 184.5 104.585C184.689 104.331 184.959 104.106 185.309 103.908C185.663 103.707 186.142 103.607 186.746 103.607C187.526 103.607 188.215 103.802 188.81 104.192C189.406 104.583 189.871 105.136 190.205 105.852C190.539 106.569 190.706 107.414 190.706 108.388C190.706 109.37 190.539 110.221 190.205 110.941C189.871 111.658 189.408 112.213 188.816 112.608C188.225 112.998 187.543 113.193 186.77 113.193C186.174 113.193 185.697 113.095 185.339 112.897C184.981 112.696 184.705 112.469 184.512 112.215C184.319 111.958 184.17 111.744 184.065 111.575H183.945V116.477H182.52ZM183.92 108.364C183.92 109.064 184.023 109.682 184.228 110.217C184.434 110.748 184.733 111.165 185.128 111.467C185.522 111.764 186.005 111.913 186.577 111.913C187.172 111.913 187.669 111.756 188.068 111.442C188.47 111.125 188.772 110.698 188.973 110.163C189.179 109.623 189.281 109.024 189.281 108.364C189.281 107.712 189.181 107.124 188.979 106.601C188.782 106.074 188.482 105.657 188.08 105.351C187.681 105.041 187.18 104.886 186.577 104.886C185.997 104.886 185.51 105.033 185.116 105.327C184.721 105.617 184.423 106.023 184.222 106.547C184.021 107.066 183.92 107.671 183.92 108.364ZM192.879 113V103.727H196.67C197.668 103.727 198.461 103.953 199.049 104.403C199.637 104.854 199.93 105.45 199.93 106.19C199.93 106.754 199.763 107.19 199.429 107.5C199.095 107.806 198.667 108.013 198.143 108.122C198.485 108.17 198.818 108.291 199.139 108.484C199.465 108.678 199.735 108.943 199.948 109.281C200.162 109.615 200.268 110.026 200.268 110.513C200.268 110.988 200.148 111.412 199.906 111.787C199.665 112.161 199.319 112.457 198.868 112.674C198.417 112.891 197.878 113 197.25 113H192.879ZM194.231 111.696H197.25C197.741 111.696 198.125 111.579 198.403 111.346C198.681 111.112 198.82 110.795 198.82 110.392C198.82 109.913 198.681 109.537 198.403 109.263C198.125 108.985 197.741 108.847 197.25 108.847H194.231V111.696ZM194.231 107.615H196.67C197.053 107.615 197.381 107.563 197.654 107.458C197.928 107.349 198.137 107.196 198.282 106.999C198.431 106.798 198.506 106.561 198.506 106.287C198.506 105.897 198.343 105.591 198.017 105.369C197.691 105.144 197.242 105.031 196.67 105.031H194.231V107.615ZM203.657 107.084H206.313C207.4 107.084 208.231 107.359 208.806 107.911C209.382 108.462 209.669 109.161 209.669 110.006C209.669 110.561 209.541 111.066 209.283 111.521C209.025 111.972 208.647 112.332 208.148 112.602C207.649 112.867 207.037 113 206.313 113H202.425V103.727H203.85V111.672H206.313C206.876 111.672 207.339 111.523 207.701 111.225C208.064 110.927 208.245 110.545 208.245 110.078C208.245 109.587 208.064 109.187 207.701 108.877C207.339 108.567 206.876 108.412 206.313 108.412H203.657V107.084ZM211.142 113V103.727H212.567V113H211.142ZM220.246 111.068L223.482 103.727H224.834L220.826 113H219.667L215.73 103.727H217.059L220.246 111.068ZM216.6 103.727V113H215.175V103.727H216.6ZM223.892 113V103.727H225.317V113H223.892ZM228.963 113.097C228.666 113.097 228.41 112.99 228.197 112.777C227.983 112.563 227.877 112.308 227.877 112.01C227.877 111.712 227.983 111.457 228.197 111.243C228.41 111.03 228.666 110.923 228.963 110.923C229.261 110.923 229.517 111.03 229.73 111.243C229.943 111.457 230.05 111.712 230.05 112.01C230.05 112.207 230 112.388 229.899 112.553C229.803 112.718 229.672 112.851 229.507 112.952C229.346 113.048 229.165 113.097 228.963 113.097Z" fill="white"/>
</svg>
