<svg width="108" height="107" viewBox="0 0 108 107" fill="none" xmlns="http://www.w3.org/2000/svg">
<path d="M44.4146 35.8789L93.3036 62.3519L88.4815 71.2579C87.9035 72.3239 86.6136 72.7079 85.5486 72.1309L38.5605 46.6889L44.4146 35.8789Z" fill="#D6111F"/>
<path d="M99.3831 51.1234L50.494 24.6504L44.4141 35.8794L93.3031 62.3524L99.3831 51.1234Z" fill="#3669C9"/>
<path d="M56.8442 14.0127L103.032 39.0227C104.25 39.6817 104.703 41.2067 104.043 42.4247L99.3442 51.1027L50.9492 24.8977L56.8442 14.0127Z" fill="white"/>
<path d="M56.5661 13.0731C58.1991 12.8751 59.7431 11.8401 60.4561 10.1591C61.3991 7.9631 60.5561 5.34011 58.5251 4.09311C56.1141 2.64011 53.0091 3.4681 51.6691 5.9431C50.8241 7.5031 50.9191 9.3271 51.7451 10.7091L3.90314 100.426C3.24314 101.644 3.71713 103.131 4.89713 103.77C6.15213 104.45 7.73614 103.978 8.43714 102.684L56.5661 13.0731Z" stroke="#3669C9" stroke-width="3" stroke-miterlimit="10"/>
<path d="M56.8454 14.0117L102.234 38.5887C103.908 39.4957 104.498 41.5867 103.612 43.2237L88.5254 71.0847C87.8244 72.3787 86.2414 72.8507 84.9474 72.1497L38.2754 47.1247" stroke="#3669C9" stroke-width="3" stroke-miterlimit="10"/>
</svg>
