<svg width="300" height="110" viewBox="0 0 300 110" fill="none" xmlns="http://www.w3.org/2000/svg">
<rect x="56.5771" width="245" height="76" rx="38" transform="rotate(8 56.5771 0)" fill="#3669C9"/>
<path d="M116.63 42.1951L116.092 46.0176L119.38 46.4796C120.073 46.577 121.058 46.6144 121.62 46.2086C121.956 45.9731 122.246 45.4888 122.335 44.855C122.432 44.1618 122.219 43.6674 121.862 43.3344C121.737 43.2159 121.284 42.8492 120.135 42.6878L116.63 42.1951ZM113.375 38.9102L120.802 39.954C122.684 40.2184 124.231 40.5572 125.281 41.8559C126.211 42.9964 126.254 44.2748 126.103 45.3443C125.948 46.4534 125.585 47.5941 124.512 48.4733C123.053 49.6617 121.259 49.4905 119.259 49.2093L115.714 48.7111L115.071 53.2861L111.427 52.774L113.375 38.9102ZM130.378 50.1459L134.616 50.7416L133.207 45.2519L130.378 50.1459ZM129.153 52.3973L127.549 55.0399L123.747 54.5054L131.914 41.5157L135.499 42.0195L139.769 56.7572L135.967 56.2228L135.154 53.2407L129.153 52.3973ZM140.319 52.9366L144.121 53.471C144.087 54.7184 145.811 55.2434 147.098 55.4243C148.346 55.5997 150.196 55.6577 150.408 54.1525C150.586 52.885 149.36 52.2683 147.498 52.0067L146.092 51.809L146.443 49.3136L147.77 49.5001C149.79 49.784 150.768 49.4367 150.915 48.387C151.127 46.8818 149.278 46.3797 148.11 46.2155C147.06 46.0679 145.408 46.0378 144.947 47.3059L141.184 46.7771C141.926 43.3671 145.702 43.0899 148.791 43.5241C153.03 44.1197 155.237 45.9447 154.864 48.5986C154.63 50.2623 153.532 51.1784 151.888 51.0888L151.875 51.1878C153.618 51.5742 154.803 52.7707 154.485 55.0285C154.085 57.8805 151.77 58.8276 146.898 58.1429C143.729 57.6976 139.863 56.6089 140.319 52.9366ZM160.921 53.7518L160.459 57.0394L164.341 57.585C165.509 57.7492 165.981 57.553 166.046 57.5217C166.411 57.371 166.828 56.9854 166.929 56.2724C167.034 55.5198 166.717 55.051 166.425 54.8282C166.008 54.4869 165.08 54.3363 164.743 54.289L160.921 53.7518ZM161.684 48.3251L161.272 51.2563L164.54 51.7156C165.391 51.8352 166.07 51.8903 166.559 51.5752C166.802 51.4276 167.089 51.1045 167.17 50.5301C167.251 49.9558 167.021 49.5801 166.771 49.3431C166.394 49.0074 165.783 48.9013 165.15 48.8122L161.684 48.3251ZM158.401 45.2382L166.403 46.3628C167.789 46.5576 169.147 46.8091 170.026 47.599C170.312 47.8614 171.228 48.8182 170.98 50.5809C170.827 51.6702 170.291 52.3219 169.842 52.6426C169.032 53.2355 167.923 53.2211 167.821 53.227L167.81 53.3062C168.69 53.5107 169.727 54.0401 170.271 54.7629C170.901 55.5987 170.889 56.5462 170.792 57.2394C170.616 58.4872 170.03 59.354 169.38 59.808C168.149 60.665 166.098 60.4575 164.593 60.246L156.453 59.102L158.401 45.2382ZM177.045 57.3306L185.183 49.0022L188.847 49.5171L186.898 63.3808L183.254 62.8687L184.571 53.5008L176.441 61.9112L172.757 61.3935L174.706 47.5297L178.35 48.0419L177.045 57.3306ZM195.115 53.2255L190.283 52.5464L190.672 49.7736L203.981 51.6441L203.592 54.4169L198.759 53.7377L197.201 64.8287L193.556 64.3165L195.115 53.2255ZM208.087 61.6933L216.225 53.3649L219.889 53.8798L217.941 67.7436L214.297 67.2314L215.613 57.8635L207.484 66.2739L203.8 65.7562L205.748 51.8925L209.393 52.4046L208.087 61.6933ZM225.813 60.327L233.418 61.3958L233.051 64.0102L225.446 62.9413L225.028 65.9121L234.238 67.2064L233.848 69.9792L220.994 68.1727L222.943 54.309L235.579 56.0848L235.189 58.8576L226.197 57.5939L225.813 60.327Z" fill="white"/>
<circle cx="40" cy="63" r="40" fill="#D6111F"/>
<path d="M16.9336 84.3682L67.8843 78.1122" stroke="white" stroke-width="3" stroke-miterlimit="10" stroke-linecap="round" stroke-linejoin="round"/>
<path d="M59.9998 79L59.4595 69.4717" stroke="white" stroke-width="3" stroke-miterlimit="10" stroke-linecap="round" stroke-linejoin="round"/>
<path d="M58.1629 53.9877C55.3375 54.3346 53.3465 56.8829 53.6935 59.7084L54.339 64.9655C54.6859 67.791 57.2342 69.7819 60.0596 69.435C62.8851 69.0881 64.876 66.5398 64.5291 63.7143L63.8836 58.4572C63.5367 55.6317 60.9884 53.6408 58.1629 53.9877Z" stroke="white" stroke-width="3" stroke-miterlimit="10" stroke-linecap="round" stroke-linejoin="round"/>
<path d="M20.3844 83.5832L15.8432 46.5977C15.2716 41.9427 17.3004 39.3191 21.9092 38.7533L36.3373 36.9817C40.9461 36.4158 43.5261 38.4734 44.0976 43.1285L48.6389 80.114" stroke="white" stroke-width="3" stroke-miterlimit="10" stroke-linecap="round" stroke-linejoin="round"/>
<path d="M25.4658 50.6523L36.9298 49.2447" stroke="white" stroke-width="3" stroke-miterlimit="10" stroke-linecap="round" stroke-linejoin="round"/>
<path d="M26.1602 59.374L37.6242 57.9664" stroke="white" stroke-width="3" stroke-miterlimit="10" stroke-linecap="round" stroke-linejoin="round"/>
<path d="M33.872 81.9162L32.8057 73.2314" stroke="white" stroke-width="3" stroke-miterlimit="10" stroke-linecap="round" stroke-linejoin="round"/>
</svg>
