<svg width="52" height="42" viewBox="0 0 52 42" fill="none" xmlns="http://www.w3.org/2000/svg">
<path d="M37.5662 3.76779C38.2565 3.55537 39 3.62972 39.6373 3.96959C40.2745 4.30946 40.7418 4.88299 40.9543 5.57335V5.58397C40.9543 5.58397 40.9543 5.58397 40.9543 5.59459L45.5212 20.0815C44.1405 19.4549 42.6005 19.1044 40.9861 19.1044C35.4632 19.1044 30.8856 23.1828 30.0997 28.4933H21.8791C21.0082 23.289 16.473 19.3062 11.0139 19.3062C9.38889 19.3062 7.84886 19.6567 6.46814 20.2939L11.0882 5.60521C11.0882 5.60521 11.0882 5.60521 11.0882 5.59459V5.58397C11.5237 4.15014 13.0425 3.34295 14.4763 3.77841C15.4428 4.06518 16.4518 3.52351 16.7492 2.56763C17.0466 1.60112 16.4943 0.592137 15.5384 0.294752C12.1928 -0.724856 8.64542 1.16567 7.6152 4.50063C7.6152 4.50063 7.6152 4.50063 7.6152 4.51125V4.52188L0.839052 26.0398C0.81781 26.1036 0.80719 26.1673 0.785948 26.231C0.276144 27.4949 0 28.8756 0 30.3095C0 36.3846 4.93872 41.3233 11.0139 41.3233C16.4624 41.3233 21.0082 37.3405 21.8791 32.1363H30.1634C31.1087 37.2449 35.6013 41.1322 40.9861 41.1322C47.0613 41.1322 52 36.1934 52 30.1183C52 28.6632 51.7132 27.2825 51.2034 26.008L44.4273 4.50063V4.49001C43.9281 2.87563 42.8341 1.54802 41.3472 0.751451C39.8497 -0.0451173 38.1291 -0.215052 36.5041 0.27351C35.5376 0.570896 34.9959 1.57988 35.2933 2.54639C35.5801 3.52351 36.5997 4.06518 37.5662 3.76779ZM11.0139 37.6804C6.94608 37.6804 3.64297 34.3773 3.64297 30.3095C3.64297 26.2416 6.94608 22.9385 11.0139 22.9385C15.0817 22.9385 18.3848 26.2416 18.3848 30.3095C18.3848 34.3773 15.0817 37.6804 11.0139 37.6804ZM40.9861 37.4892C36.9183 37.4892 33.6152 34.1861 33.6152 30.1183C33.6152 26.0505 36.9183 22.7474 40.9861 22.7474C45.0539 22.7474 48.357 26.0505 48.357 30.1183C48.357 34.1861 45.0433 37.4892 40.9861 37.4892Z" fill="#D6111F"/>
</svg>
