<svg width="52" height="52" viewBox="0 0 52 52" fill="none" xmlns="http://www.w3.org/2000/svg">
<g clip-path="url(#clip0_708_31)">
<path d="M37.5662 9.10568C38.2565 8.89326 39 8.96761 39.6373 9.30748C40.2745 9.64735 40.7418 10.2209 40.9543 10.9112V10.9219C40.9543 10.9219 40.9543 10.9219 40.9543 10.9325L45.5212 25.4194C44.1405 24.7928 42.6005 24.4423 40.9861 24.4423C35.4632 24.4423 30.8856 28.5207 30.0997 33.8312H21.8791C21.0082 28.6269 16.473 24.6441 11.0139 24.6441C9.38889 24.6441 7.84886 24.9946 6.46814 25.6318L11.0882 10.9431C11.0882 10.9431 11.0882 10.9431 11.0882 10.9325V10.9219C11.5237 9.48803 13.0425 8.68084 14.4763 9.1163C15.4428 9.40307 16.4518 8.8614 16.7492 7.90552C17.0466 6.93902 16.4943 5.93003 15.5384 5.63264C12.1928 4.61303 8.64542 6.50356 7.6152 9.83852C7.6152 9.83852 7.6152 9.83852 7.6152 9.84915V9.85977L0.839052 31.3777C0.81781 31.4415 0.80719 31.5052 0.785948 31.5689C0.276144 32.8328 0 34.2135 0 35.6474C0 41.7225 4.93872 46.6612 11.0139 46.6612C16.4624 46.6612 21.0082 42.6784 21.8791 37.4741H30.1634C31.1087 42.5828 35.6013 46.4701 40.9861 46.4701C47.0613 46.4701 52 41.5313 52 35.4562C52 34.0011 51.7132 32.6204 51.2034 31.3459L44.4273 9.83852V9.8279C43.9281 8.21353 42.8341 6.88591 41.3472 6.08934C39.8497 5.29277 38.1291 5.12284 36.5041 5.6114C35.5376 5.90879 34.9959 6.91777 35.2933 7.88428C35.5801 8.8614 36.5997 9.40307 37.5662 9.10568ZM11.0139 43.0183C6.94608 43.0183 3.64297 39.7152 3.64297 35.6474C3.64297 31.5795 6.94608 28.2764 11.0139 28.2764C15.0817 28.2764 18.3848 31.5795 18.3848 35.6474C18.3848 39.7152 15.0817 43.0183 11.0139 43.0183ZM40.9861 42.8271C36.9183 42.8271 33.6152 39.524 33.6152 35.4562C33.6152 31.3884 36.9183 28.0853 40.9861 28.0853C45.0539 28.0853 48.357 31.3884 48.357 35.4562C48.357 39.524 45.0433 42.8271 40.9861 42.8271Z" fill="white"/>
</g>
<defs>
<clipPath id="clip0_708_31">
<rect width="52" height="52" fill="white"/>
</clipPath>
</defs>
</svg>
