<svg width="52" height="42" viewBox="0 0 52 42" fill="none" xmlns="http://www.w3.org/2000/svg">
<path d="M37.5662 4.10568C38.2565 3.89326 39 3.96761 39.6373 4.30748C40.2745 4.64735 40.7418 5.22088 40.9543 5.91124V5.92186C40.9543 5.92186 40.9543 5.92186 40.9543 5.93248L45.5212 20.4194C44.1405 19.7928 42.6005 19.4423 40.9861 19.4423C35.4632 19.4423 30.8856 23.5207 30.0997 28.8312H21.8791C21.0082 23.6269 16.473 19.6441 11.0139 19.6441C9.38889 19.6441 7.84886 19.9946 6.46814 20.6318L11.0882 5.9431C11.0882 5.9431 11.0882 5.9431 11.0882 5.93248V5.92186C11.5237 4.48803 13.0425 3.68084 14.4763 4.1163C15.4428 4.40307 16.4518 3.8614 16.7492 2.90552C17.0466 1.93902 16.4943 0.930028 15.5384 0.632642C12.1928 -0.386966 8.64542 1.50356 7.6152 4.83852C7.6152 4.83852 7.6152 4.83852 7.6152 4.84915V4.85977L0.839052 26.3777C0.81781 26.4415 0.80719 26.5052 0.785948 26.5689C0.276144 27.8328 0 29.2135 0 30.6474C0 36.7225 4.93872 41.6612 11.0139 41.6612C16.4624 41.6612 21.0082 37.6784 21.8791 32.4741H30.1634C31.1087 37.5828 35.6013 41.4701 40.9861 41.4701C47.0613 41.4701 52 36.5313 52 30.4562C52 29.0011 51.7132 27.6204 51.2034 26.3459L44.4273 4.83852V4.8279C43.9281 3.21353 42.8341 1.88591 41.3472 1.08934C39.8497 0.292773 38.1291 0.122839 36.5041 0.611401C35.5376 0.908786 34.9959 1.91777 35.2933 2.88428C35.5801 3.8614 36.5997 4.40307 37.5662 4.10568ZM11.0139 38.0183C6.94608 38.0183 3.64297 34.7152 3.64297 30.6474C3.64297 26.5795 6.94608 23.2764 11.0139 23.2764C15.0817 23.2764 18.3848 26.5795 18.3848 30.6474C18.3848 34.7152 15.0817 38.0183 11.0139 38.0183ZM40.9861 37.8271C36.9183 37.8271 33.6152 34.524 33.6152 30.4562C33.6152 26.3884 36.9183 23.0853 40.9861 23.0853C45.0539 23.0853 48.357 26.3884 48.357 30.4562C48.357 34.524 45.0433 37.8271 40.9861 37.8271Z" fill="white"/>
</svg>
