<svg width="156" height="156" viewBox="0 0 156 156" fill="none" xmlns="http://www.w3.org/2000/svg">
<path d="M1.18555 154.816V92.4492C1.18555 87.4712 5.21686 83.4414 10.1967 83.4414H73.6069C78.5868 83.4414 82.6181 87.4712 82.6181 92.4492V97.5219C82.6181 99.8924 80.6973 101.824 78.3141 101.824H62.3192L57.5409 97.0478H43.4669C39.7676 97.0478 36.756 100.046 36.756 103.756V139.787" stroke="#D61121" stroke-width="2" stroke-linejoin="round"/>
<path d="M84.7995 124.852H36.7676" stroke="#D61121" stroke-width="2" stroke-linejoin="round"/>
<path d="M1.18555 154.814H154.814V124.852H114.394" stroke="#D61121" stroke-width="2" stroke-linejoin="round"/>
<path d="M16.8848 154.816C16.8848 154.816 19.3866 139.42 31.2196 139.834C43.0409 140.249 51.4592 154.816 51.4592 154.816" stroke="#D61121" stroke-width="2" stroke-linejoin="round"/>
<path d="M110.742 154.815V151.058C110.742 147.063 107.505 143.839 103.521 143.839H94.8303C92.2574 143.839 89.7556 142.998 87.7162 141.433L81.5625 136.728C79.2505 134.95 76.4048 133.99 73.4881 133.99H53.7228C50.2013 133.99 46.8221 135.389 44.3322 137.878L39.791 142.417" stroke="#D61121" stroke-width="2" stroke-linejoin="round"/>
<path d="M18.5905 107.667C22.6963 107.667 26.0247 104.34 26.0247 100.236C26.0247 96.1318 22.6963 92.8047 18.5905 92.8047C14.4847 92.8047 11.1562 96.1318 11.1562 100.236C11.1562 104.34 14.4847 107.667 18.5905 107.667Z" stroke="#D61121" stroke-width="2" stroke-linejoin="round"/>
<path d="M18.5905 133.978C22.6963 133.978 26.0247 130.651 26.0247 126.547C26.0247 122.442 22.6963 119.115 18.5905 119.115C14.4847 119.115 11.1562 122.442 11.1562 126.547C11.1562 130.651 14.4847 133.978 18.5905 133.978Z" stroke="#D61121" stroke-width="2" stroke-linejoin="round"/>
<path d="M77.9949 101.812H66.8613V112.942H77.9949V101.812Z" stroke="#D61121" stroke-width="2" stroke-linejoin="round"/>
<path d="M72.4336 133.979V112.941" stroke="#D61121" stroke-width="2" stroke-linejoin="round"/>
<path d="M57.9082 124.853V97.0352" stroke="#D61121" stroke-width="2" stroke-linejoin="round"/>
<path d="M57.9082 83.4282V80.7259C57.9082 74.1834 62.6984 68.6366 69.1722 67.6765L75.6697 66.7165C82.1435 65.7565 86.9337 60.2096 86.9337 53.6671V53.0508" stroke="#D61121" stroke-width="2" stroke-linejoin="round"/>
<path d="M103.047 53.0508V53.6671C103.047 60.2096 107.837 65.7565 114.311 66.7165L120.808 67.6765C127.282 68.6366 132.072 74.1834 132.072 80.7259V83.4282V112.348C132.072 116.389 129.475 119.981 125.634 121.237L93.5018 131.821C89.9211 132.995 86.0795 130.956 85.0598 127.329C84.0994 123.939 85.9728 120.384 89.3164 119.258L114.737 110.7C117.275 109.847 118.982 107.453 118.958 104.774L118.638 67.3684" stroke="#D61121" stroke-width="2" stroke-linejoin="round"/>
<path d="M80.4609 65.0098L84.3974 68.9447C90.4207 74.9657 100.179 74.9657 106.19 68.9447L109.901 65.235" stroke="#D61121" stroke-width="2" stroke-linejoin="round"/>
<path d="M72.4336 67.1914V83.4291" stroke="#D61121" stroke-width="2" stroke-linejoin="round"/>
<path d="M83.7685 27.0469H106.581C109.877 27.0469 112.557 29.7255 112.557 33.0204V37.6784C112.557 47.2669 104.767 55.042 95.1866 55.042C85.5945 55.042 77.8164 47.2551 77.8164 37.6784V33.0204C77.8164 29.7255 80.496 27.0469 83.7922 27.0469H83.7685Z" stroke="#D61121" stroke-width="2" stroke-linejoin="round"/>
<path d="M75.6698 66.7169C75.6698 66.7169 63.4098 68.5066 59.5801 54.4261C67.5834 46.1887 68.532 39.7411 68.532 35.4506C68.532 31.16 66.5282 1.18555 95.1742 1.18555" stroke="#D61121" stroke-width="2" stroke-linejoin="round"/>
<path d="M114.69 66.7168C114.69 66.7168 126.95 68.5065 130.78 54.426C122.776 46.1886 121.828 39.741 121.828 35.4504C121.828 31.148 123.832 1.19727 95.1855 1.19727" stroke="#D61121" stroke-width="2" stroke-linejoin="round"/>
<path d="M91.9017 47.7174C92.9689 48.2744 94.1664 48.547 95.3758 48.5233C96.6563 48.5707 97.9131 48.1915 98.9447 47.4448C99.4189 46.9707 99.4189 46.2121 98.9447 45.7499C98.4704 45.2995 97.7234 45.2995 97.2492 45.7499C97.6641 45.4299 97.2373 45.7499 97.1069 45.8092C97.0002 45.8684 96.7393 45.9514 97.1069 45.8092C97.012 45.8447 96.9172 45.8803 96.8223 45.9158C96.5733 45.9988 96.2769 46.0107 96.0398 46.0936C96.1702 46.0462 96.2413 46.0699 96.0516 46.0936C95.9686 46.0936 95.8975 46.1055 95.8145 46.1173C95.6248 46.1292 95.4469 46.1292 95.2572 46.1292C95.0912 46.1292 94.9252 46.1292 94.7592 46.1055C94.6881 46.1055 94.6051 46.1055 94.534 46.0818C94.4865 46.0818 94.451 46.0818 94.4035 46.0699C94.3087 46.0699 94.3442 46.0699 94.5102 46.0818C94.2612 46.0581 94.0122 46.0107 93.7751 45.9158C93.6684 45.8803 93.5735 45.8447 93.4668 45.8092C93.7158 45.9277 93.1941 45.7143 93.4668 45.8092C93.3364 45.7499 93.2178 45.6906 93.0993 45.6195C92.5301 45.2877 91.795 45.4654 91.4512 46.0462C91.1192 46.6151 91.297 47.35 91.878 47.6937L91.9017 47.7174Z" fill="#D61123"/>
<path d="M94.6055 39.7401C94.7597 40.2853 94.8782 40.8424 94.9731 41.4113L94.9256 41.0912C94.9256 41.1624 94.9375 41.2453 94.9256 41.3164L94.9731 40.9964C94.9731 40.9964 94.9612 41.0675 94.9494 41.1031L95.0679 40.8186C95.0679 40.8186 95.0442 40.8661 95.0324 40.8898L95.2221 40.6409C95.2221 40.6409 95.1865 40.6764 95.1628 40.7001L95.3999 40.5105C95.3999 40.5105 95.3169 40.5579 95.2695 40.5816L95.5541 40.4631C95.4829 40.4986 95.4118 40.5105 95.3288 40.5223L95.6489 40.4749C95.5778 40.4749 95.5066 40.4749 95.4355 40.4749L95.7556 40.5223C95.6726 40.5223 95.6015 40.4868 95.5185 40.4868C95.3643 40.4394 95.1984 40.4275 95.0324 40.4631C94.8782 40.4631 94.7241 40.5223 94.5818 40.6053C94.0127 40.9372 93.8111 41.672 94.155 42.2528L94.3447 42.5017C94.4869 42.6439 94.6767 42.7506 94.8782 42.8098C95.0916 42.8335 95.2932 42.8928 95.5066 42.9047C95.8386 42.9047 96.1706 42.8217 96.467 42.6676C96.8583 42.478 97.1547 42.1343 97.2614 41.7076C97.3326 41.3757 97.3326 41.0438 97.2614 40.712C97.1666 40.1786 97.048 39.6453 96.9057 39.1119C96.7279 38.4719 96.0758 38.0926 95.4355 38.2704C95.1272 38.3534 94.8782 38.5549 94.7122 38.8275C94.5581 39.1119 94.5107 39.4438 94.5937 39.7519L94.6055 39.7401Z" fill="#D61123"/>
<path d="M86.0919 34.9281C85.8192 35.8288 85.997 37.9148 87.7044 38.0926C89.9691 38.0808 90.0876 35.5681 89.3288 34.3829C88.7004 33.411 86.8744 33.008 86.0919 34.9281Z" fill="#D61123"/>
<path d="M104.305 34.9281C104.578 35.8288 104.4 37.9148 102.693 38.0926C100.428 38.0808 100.31 35.5681 101.068 34.3829C101.697 33.411 103.523 33.008 104.305 34.9281Z" fill="#D61123"/>
</svg>
