<svg width="156" height="156" viewBox="0 0 156 156" fill="none" xmlns="http://www.w3.org/2000/svg">
<path d="M1.18579 154.815V92.4482C1.18579 87.4702 5.21711 83.4404 10.197 83.4404H73.6072C78.587 83.4404 82.6183 87.4702 82.6183 92.4482V97.521C82.6183 99.8914 80.6975 101.823 78.3143 101.823H62.3195L57.5412 97.0469H43.4672C39.7678 97.0469 36.7562 100.046 36.7562 103.755V139.786" stroke="#D61121" stroke-width="2" stroke-linejoin="round"/>
<path d="M84.8 124.853H36.7681" stroke="#D61121" stroke-width="2" stroke-linejoin="round"/>
<path d="M1.18579 154.815H154.814V124.853H114.395" stroke="#D61121" stroke-width="2" stroke-linejoin="round"/>
<path d="M16.8843 154.815C16.8843 154.815 19.3861 139.419 31.2192 139.833C43.0404 140.248 51.4587 154.815 51.4587 154.815" stroke="#D61121" stroke-width="2" stroke-linejoin="round"/>
<path d="M110.743 154.815V151.058C110.743 147.063 107.506 143.839 103.522 143.839H94.8308C92.2579 143.839 89.7561 142.998 87.7167 141.433L81.563 136.728C79.251 134.95 76.4053 133.99 73.4885 133.99H53.7233C50.2018 133.99 46.8226 135.389 44.3327 137.878L39.7915 142.417" stroke="#D61121" stroke-width="2" stroke-linejoin="round"/>
<path d="M18.5917 107.666C22.6975 107.666 26.0259 104.339 26.0259 100.235C26.0259 96.1309 22.6975 92.8037 18.5917 92.8037C14.4859 92.8037 11.1575 96.1309 11.1575 100.235C11.1575 104.339 14.4859 107.666 18.5917 107.666Z" stroke="#D61121" stroke-width="2" stroke-linejoin="round"/>
<path d="M18.5917 133.979C22.6975 133.979 26.0259 130.652 26.0259 126.548C26.0259 122.443 22.6975 119.116 18.5917 119.116C14.4859 119.116 11.1575 122.443 11.1575 126.548C11.1575 130.652 14.4859 133.979 18.5917 133.979Z" stroke="#D61121" stroke-width="2" stroke-linejoin="round"/>
<path d="M77.9941 101.812H66.8606V112.941H77.9941V101.812Z" stroke="#D61121" stroke-width="2" stroke-linejoin="round"/>
<path d="M72.4333 133.978V112.94" stroke="#D61121" stroke-width="2" stroke-linejoin="round"/>
<path d="M57.9087 124.853V97.0352" stroke="#D61121" stroke-width="2" stroke-linejoin="round"/>
<path d="M57.9087 83.4282V80.7259C57.9087 74.1834 62.6988 68.6366 69.1727 67.6765L75.6702 66.7165C82.144 65.7565 86.9341 60.2096 86.9341 53.6671V53.0508" stroke="#D61121" stroke-width="2" stroke-linejoin="round"/>
<path d="M103.048 53.0508V53.6671C103.048 60.2096 107.838 65.7565 114.312 66.7165L120.809 67.6765C127.283 68.6366 132.073 74.1834 132.073 80.7259V83.4282V112.348C132.073 116.389 129.476 119.981 125.635 121.237L93.5028 131.821C89.9221 132.995 86.0805 130.956 85.0608 127.329C84.1004 123.939 85.9737 120.384 89.3174 119.258L114.738 110.7C117.276 109.847 118.983 107.453 118.959 104.774L118.639 67.3684" stroke="#D61121" stroke-width="2" stroke-linejoin="round"/>
<path d="M80.4604 65.0098L84.3969 68.9447C90.4202 74.9657 100.178 74.9657 106.19 68.9447L109.901 65.235" stroke="#D61121" stroke-width="2" stroke-linejoin="round"/>
<path d="M72.4333 67.1914V83.4291" stroke="#D61121" stroke-width="2" stroke-linejoin="round"/>
<path d="M83.7685 27.0469H106.581C109.877 27.0469 112.557 29.7255 112.557 33.0204V37.6784C112.557 47.2669 104.767 55.042 95.1866 55.042C85.5945 55.042 77.8164 47.2551 77.8164 37.6784V33.0204C77.8164 29.7255 80.496 27.0469 83.7922 27.0469H83.7685Z" stroke="#D61121" stroke-width="2" stroke-linejoin="round"/>
<path d="M75.6703 66.7169C75.6703 66.7169 63.4103 68.5066 59.5806 54.4261C67.5839 46.1887 68.5325 39.7411 68.5325 35.4506C68.5325 31.16 66.5287 1.18555 95.1747 1.18555" stroke="#D61121" stroke-width="2" stroke-linejoin="round"/>
<path d="M114.691 66.7168C114.691 66.7168 126.951 68.5065 130.781 54.426C122.777 46.1886 121.829 39.741 121.829 35.4504C121.829 31.148 123.833 1.19727 95.1865 1.19727" stroke="#D61121" stroke-width="2" stroke-linejoin="round"/>
</svg>
