<svg width="304" height="123" viewBox="0 0 304 123" fill="none" xmlns="http://www.w3.org/2000/svg">
<rect y="47.0977" width="245" height="76" rx="38" transform="rotate(-8 0 47.0977)" fill="#D6111F"/>
<path d="M71.6744 70.8408L71.2958 68.1473L83.3177 66.4577L83.6378 68.7353C81.8143 70.8497 80.8106 73.1922 80.3546 74.6902C79.799 76.485 79.5194 78.8065 79.7206 81.1008L75.819 81.6492C75.7078 78.2718 76.4684 75.9231 76.8837 74.8548C77.4728 73.2977 78.4839 71.4389 79.9728 69.6745L71.6744 70.8408ZM84.2265 80.4676L83.77 77.2195L87.4142 76.7073L87.8707 79.9554L84.2265 80.4676ZM102.555 70.8026C102.77 72.3276 102.875 74.6557 101.422 76.5361C100.055 78.3036 97.9861 78.8165 96.4413 79.0336C94.8965 79.2507 92.7665 79.3279 90.9649 78.0058C89.0504 76.5985 88.5097 74.3317 88.2954 72.8067C88.0783 71.2619 87.9732 68.9339 89.4257 67.0534C90.793 65.2859 92.8617 64.773 94.4066 64.5559C95.9514 64.3388 98.0814 64.2616 99.8829 65.5838C101.797 66.991 102.338 69.2578 102.555 70.8026ZM94.7851 67.2494C94.1513 67.3385 93.5231 67.4672 92.9388 68.1956C92.0936 69.2232 92.0081 70.7702 92.2168 72.2556C92.4646 74.0183 93.0923 75.3236 94.0299 75.9593C94.7218 76.4276 95.4119 76.4518 96.0655 76.3599C96.6993 76.2708 97.3417 76.0998 97.9118 75.4137C98.757 74.3861 98.8398 72.8194 98.6338 71.3538C98.425 69.8684 97.9164 68.4049 96.8207 67.65C96.0582 67.1109 95.4189 67.1604 94.7851 67.2494ZM117.506 68.7014C117.72 70.2265 117.825 72.5545 116.373 74.4349C115.006 76.2024 112.937 76.7153 111.392 76.9324C109.847 77.1496 107.717 77.2267 105.916 75.9046C104.001 74.4974 103.46 72.2305 103.246 70.7055C103.029 69.1607 102.924 66.8327 104.376 64.9522C105.744 63.1847 107.812 62.6718 109.357 62.4547C110.902 62.2376 113.032 62.1604 114.834 63.4826C116.748 64.8898 117.289 67.1566 117.506 68.7014ZM109.736 65.1483C109.102 65.2373 108.474 65.366 107.89 66.0944C107.044 67.122 106.959 68.669 107.168 70.1544C107.415 71.9171 108.043 73.2224 108.981 73.8581C109.673 74.3264 110.363 74.3506 111.016 74.2587C111.65 74.1696 112.292 73.9986 112.863 73.3126C113.708 72.2849 113.79 70.7182 113.585 69.2526C113.376 67.7672 112.867 66.3037 111.771 65.5489C111.009 65.0097 110.37 65.0592 109.736 65.1483ZM132.457 66.6003C132.671 68.1253 132.776 70.4533 131.324 72.3337C129.956 74.1012 127.888 74.6141 126.343 74.8313C124.798 75.0484 122.668 75.1256 120.866 73.8034C118.952 72.3962 118.411 70.1294 118.197 68.6043C117.98 67.0595 117.875 64.7315 119.327 62.851C120.694 61.0836 122.763 60.5706 124.308 60.3535C125.853 60.1364 127.983 60.0592 129.784 61.3814C131.699 62.7886 132.24 65.0554 132.457 66.6003ZM124.687 63.0471C124.053 63.1361 123.425 63.2648 122.84 63.9932C121.995 65.0209 121.91 66.5678 122.118 68.0532C122.366 69.8159 122.994 71.1212 123.931 71.7569C124.623 72.2252 125.313 72.2494 125.967 72.1575C126.601 72.0685 127.243 71.8974 127.813 71.2114C128.658 70.1837 128.741 68.617 128.535 67.1514C128.326 65.666 127.818 64.2025 126.722 63.4477C125.96 62.9085 125.32 62.958 124.687 63.0471ZM134.804 73.3594L134.347 70.1113L137.991 69.5992L138.448 72.8472L134.804 73.3594ZM153.132 63.6945C153.347 65.2195 153.452 67.5475 151.999 69.428C150.632 71.1955 148.563 71.7084 147.018 71.9255C145.474 72.1426 143.344 72.2198 141.542 70.8976C139.628 69.4904 139.087 67.2236 138.873 65.6986C138.655 64.1537 138.55 61.8257 140.003 59.9453C141.37 58.1778 143.439 57.6649 144.984 57.4478C146.529 57.2306 148.659 57.1535 150.46 58.4756C152.375 59.8828 152.915 62.1497 153.132 63.6945ZM145.362 60.1413C144.729 60.2304 144.1 60.359 143.516 61.0874C142.671 62.1151 142.585 63.662 142.794 65.1474C143.042 66.9101 143.67 68.2154 144.607 68.8511C145.299 69.3194 145.989 69.3436 146.643 69.2518C147.276 69.1627 147.919 68.9916 148.489 68.3056C149.334 67.278 149.417 65.7112 149.211 64.2456C149.002 62.7602 148.494 61.2967 147.398 60.5419C146.635 60.0028 145.996 60.0522 145.362 60.1413ZM168.083 61.5933C168.297 63.1183 168.402 65.4463 166.95 67.3268C165.583 69.0943 163.514 69.6072 161.969 69.8243C160.424 70.0414 158.294 70.1186 156.493 68.7964C154.578 67.3892 154.038 65.1224 153.823 63.5974C153.606 62.0526 153.501 59.7245 154.954 57.8441C156.321 56.0766 158.39 55.5637 159.934 55.3466C161.479 55.1295 163.609 55.0523 165.411 56.3744C167.325 57.7817 167.866 60.0485 168.083 61.5933ZM160.313 58.0401C159.679 58.1292 159.051 58.2578 158.467 58.9863C157.622 60.0139 157.536 61.5608 157.745 63.0463C157.992 64.8089 158.62 66.1143 159.558 66.75C160.25 67.2182 160.94 67.2424 161.593 67.1506C162.227 67.0615 162.87 66.8904 163.44 66.2044C164.285 65.1768 164.368 63.61 164.162 62.1444C163.953 60.659 163.444 59.1956 162.349 58.4407C161.586 57.9016 160.947 57.951 160.313 58.0401ZM183.034 59.4921C183.248 61.0171 183.353 63.3451 181.901 65.2256C180.533 66.9931 178.465 67.506 176.92 67.7231C175.375 67.9402 173.245 68.0174 171.444 66.6953C169.529 65.288 168.988 63.0212 168.774 61.4962C168.557 59.9514 168.452 57.6233 169.904 55.7429C171.272 53.9754 173.34 53.4625 174.885 53.2454C176.43 53.0283 178.56 52.9511 180.362 54.2732C182.276 55.6805 182.817 57.9473 183.034 59.4921ZM175.264 55.9389C174.63 56.028 174.002 56.1567 173.417 56.8851C172.572 57.9127 172.487 59.4597 172.695 60.9451C172.943 62.7077 173.571 64.0131 174.509 64.6488C175.2 65.117 175.891 65.1412 176.544 65.0494C177.178 64.9603 177.82 64.7892 178.39 64.1032C179.236 63.0756 179.318 61.5088 179.112 60.0432C178.904 58.5578 178.395 57.0944 177.299 56.3395C176.537 55.8004 175.898 55.8498 175.264 55.9389Z" fill="white"/>
<circle cx="264" cy="40" r="40" fill="#3669C9"/>
<g clip-path="url(#clip0_58_132)">
<path d="M289.255 60.8131L287.306 53.0236C287.258 52.8632 287.158 52.7011 287.056 52.5917C285.829 48.3708 282.561 45.0306 278.321 43.7719L277.691 43.6441C276.749 43.3468 275.681 43.6268 274.967 44.3952C272.551 46.9552 269.585 47.0632 266.469 46.9543C263.352 46.8455 260.401 46.5309 258.17 43.8086C257.511 42.9923 256.465 42.6385 255.505 42.8694L254.866 43.0057C251.614 43.7384 248.795 45.7025 246.956 48.3884L240.301 48.156C240.248 48.1541 240.248 48.1541 240.197 48.0995C240.199 48.0467 240.148 47.992 240.151 47.8863L241.696 43.0218C243.046 39.2082 245.411 38.1273 249.994 37.1238C250.207 37.0783 250.369 36.9782 250.479 36.8763C250.837 37.2061 251.251 37.485 251.666 37.711C251.821 37.8222 251.979 37.8278 252.138 37.8333C252.507 37.8462 252.884 37.6478 253.109 37.2854C253.391 36.7664 253.202 36.1252 252.683 35.8426C250.297 34.49 248.68 30.8372 248.809 27.1397C248.923 23.8647 251.711 21.2648 254.986 21.3792C255.62 21.4013 256.197 21.5272 256.773 21.706C256.142 23.1119 255.772 24.6327 255.715 26.2702C255.399 35.3028 260.574 43.0993 267.019 43.3243C273.357 43.5457 279.228 35.9763 279.538 27.1021C279.768 20.4993 274.619 14.9779 268.016 14.7473C263.844 14.6016 260.07 16.6382 257.843 19.8394C256.956 19.4911 256.011 19.2995 255.06 19.2663C252.208 19.1666 249.619 20.61 248.113 22.8315C248.011 22.7222 247.907 22.6657 247.804 22.6092C247.026 22.1589 246.239 21.9728 245.341 21.9414C242.385 21.7853 239.925 24.0793 239.822 27.0374C239.763 28.7277 240.183 30.329 240.878 31.6225C238.426 32.1716 236.227 33.0467 235.111 36.2339L234.159 39.2681C233.982 39.7907 234.067 40.3755 234.369 40.8091C234.67 41.2956 235.242 41.58 235.823 41.6003L239.89 41.7423C239.83 41.9518 239.717 42.1594 239.656 42.3688L238.11 47.2862C237.874 47.9655 238.007 48.7105 238.462 49.3082C238.864 49.904 239.487 50.2431 240.227 50.2689L245.826 50.4644C245.655 50.8286 245.536 51.1947 245.417 51.5608L242.928 59.2482C242.685 60.1388 242.81 61.0952 243.366 61.855C243.921 62.6148 244.751 63.0669 245.649 63.0982L277.343 64.205L279.139 64.2677L286.27 64.5167C287.168 64.5481 288.081 64.1569 288.635 63.4358C289.241 62.7166 289.486 61.7731 289.255 60.8131ZM259.039 21.9438C259.094 21.8928 259.148 21.8418 259.205 21.738C259.259 21.687 259.263 21.5814 259.318 21.5304C261.059 18.6295 264.298 16.7329 267.943 16.8602C272.327 17.0133 275.923 20.0477 277.053 24.0537C275.191 24.3589 273.262 23.5511 272.155 21.9258C271.802 21.4375 271.172 21.3097 270.684 21.6629C270.467 21.814 270.356 21.9688 270.296 22.1782C270.241 22.2292 270.239 22.282 270.184 22.333C268.6 25.2922 263.591 26.3866 257.977 25.0799C258.175 23.9762 258.528 22.9308 259.039 21.9438ZM261.8 27.6991C266.025 27.8466 269.558 26.6478 271.44 24.2279C272.72 25.4361 274.336 26.1271 276.079 26.188C276.501 26.2028 276.979 26.1666 277.405 26.0757C277.447 26.3944 277.438 26.6586 277.426 26.9755C277.155 34.7404 272.322 41.394 267.092 41.2114C262.074 41.0362 257.909 34.5972 257.798 27.1891C259.162 27.5012 260.532 27.6548 261.8 27.6991ZM236.319 39.5021L237.151 36.8868C237.86 34.7433 239.203 34.1555 241.866 33.6139C242.026 33.5666 242.187 33.5193 242.296 33.4173C242.553 33.6378 242.759 33.8037 243.07 33.9732C243.225 34.0844 243.383 34.0899 243.542 34.0955C243.911 34.1084 244.289 33.91 244.513 33.5476C244.795 33.0286 244.606 32.3874 244.14 32.1067C242.792 31.3192 241.861 29.2241 241.935 27.1112C241.997 25.3152 243.473 23.9388 245.269 24.0015C245.85 24.0218 246.322 24.144 246.788 24.4247C246.945 24.4831 247.049 24.5396 247.207 24.5452C246.915 25.3283 246.727 26.1679 246.696 27.0659C246.591 30.0768 247.491 33.0699 249.004 35.1853C245.807 35.867 242.97 36.8256 241.02 39.6663L236.319 39.5021ZM287.041 62.1109C286.932 62.2128 286.713 62.4167 286.344 62.4038L279.213 62.1548L277.417 62.0921L245.723 60.9853C245.353 60.9724 245.149 60.7537 245.047 60.6444C244.896 60.4276 244.855 60.1088 244.915 59.8994L247.403 52.2647C248.586 48.6569 251.591 45.9059 255.322 45.0842L255.961 44.9479C256.122 44.9006 256.382 45.0155 256.535 45.1795C259.324 48.6088 262.907 48.9983 266.393 49.12C269.879 49.2418 273.481 49.1031 276.502 45.8767C276.666 45.7238 276.881 45.6255 277.143 45.6876L277.772 45.8682C281.383 46.9463 284.242 49.902 285.171 53.5836L286.007 56.8918C286.054 57.0522 286.104 57.1596 286.206 57.269L287.227 61.3241C287.271 61.59 287.207 61.9051 287.041 62.1109Z" fill="white"/>
</g>
<defs>
<clipPath id="clip0_58_132">
<rect width="56" height="56" fill="white" transform="translate(238.088 7.13281) rotate(2)"/>
</clipPath>
</defs>
</svg>
