<svg width="50" height="50" viewBox="0 0 50 50" fill="none" xmlns="http://www.w3.org/2000/svg">
<path d="M9 4C6.25048 4 4 6.25048 4 9V41C4 43.7495 6.25048 46 9 46H41C43.7495 46 46 43.7495 46 41V9C46 6.25048 43.7495 4 41 4H9ZM9 6H41C42.6685 6 44 7.33152 44 9V41C44 42.6685 42.6685 44 41 44H9C7.33152 44 6 42.6685 6 41V9C6 7.33152 7.33152 6 9 6ZM25 8C20.0408 8 16 12.0408 16 17C16 21.9592 20.0408 26 25 26C29.9592 26 34 21.9592 34 17C34 12.0408 29.9592 8 25 8ZM25 10C28.8788 10 32 13.1212 32 17C32 20.8788 28.8788 24 25 24C21.1212 24 18 20.8788 18 17C18 13.1212 21.1212 10 25 10ZM25 12C22.2504 12 20 14.2504 20 17C20 19.7496 22.2504 22 25 22C27.7496 22 30 19.7496 30 17C30 14.2504 27.7496 12 25 12ZM25 14C26.6687 14 28 15.3313 28 17C28 18.6687 26.6687 20 25 20C23.3313 20 22 18.6687 22 17C22 15.3313 23.3313 14 25 14ZM32.9512 25.4961C32.3728 25.5036 31.7913 25.6763 31.2852 26.0273H31.2832L31.2812 26.0293C29.4329 27.3209 27.2684 28 25 28C22.7373 28 20.5767 27.3238 18.7285 26.0391C17.3776 25.0982 15.4909 25.4378 14.5527 26.7891C13.6132 28.1396 13.9525 30.0255 15.3027 30.9648C16.4542 31.7652 17.7583 32.2258 19.0469 32.7109L14.8789 36.8789C13.7158 38.042 13.7158 39.958 14.8789 41.1211C15.4604 41.7026 16.2341 42 17 42C17.7659 42 18.5396 41.7026 19.1211 41.1211L25 35.2422L30.8789 41.1211C31.4604 41.7026 32.2341 42 33 42C33.7659 42 34.5396 41.7026 35.1211 41.1211C36.2842 39.958 36.2842 38.042 35.1211 36.8789L31.0605 32.8164C32.3358 32.3311 33.5769 31.7462 34.7168 30.9512C36.0648 30.0098 36.4024 28.1231 35.4609 26.7734C34.9905 26.0987 34.2828 25.678 33.5254 25.543C33.336 25.5092 33.144 25.4936 32.9512 25.4961ZM33.1758 27.5C33.4263 27.5445 33.6597 27.6877 33.8203 27.918C34.1428 28.3803 34.0342 28.9879 33.5723 29.3105C32.164 30.2927 30.6154 31.0072 28.9824 31.4551L27.3242 31.9102L28.5391 33.127L33.707 38.293C34.106 38.6919 34.106 39.3081 33.707 39.707C33.5065 39.9075 33.2581 40 33 40C32.7419 40 32.4935 39.9075 32.293 39.707L25 32.4141L17.707 39.707C17.5065 39.9075 17.2581 40 17 40C16.7419 40 16.4935 39.9075 16.293 39.707C15.894 39.3081 15.894 38.6919 16.293 38.293L22.6758 31.9102L21.0176 31.4551C19.3905 31.0079 17.8486 30.2978 16.4453 29.3223C15.9816 28.9996 15.8729 28.3951 16.1953 27.9316V27.9297C16.5152 27.469 17.1248 27.3585 17.5859 27.6797V27.6816C19.7657 29.1969 22.3367 30 25 30C27.6687 30 30.2447 29.1933 32.4258 27.6699C32.6579 27.509 32.9252 27.4555 33.1758 27.5Z" fill="white"/>
</svg>
