<svg width="50" height="50" viewBox="0 0 50 50" fill="none" xmlns="http://www.w3.org/2000/svg">
<path d="M5.37533 23.4946C5.4507 23.4602 5.5133 23.4344 5.55736 23.4171C5.54759 23.421 5.53678 23.4254 5.52497 23.4303C5.47684 23.45 5.41131 23.4781 5.33489 23.5139C5.2645 23.5469 5.18011 23.5887 5.08859 23.639C5.19233 23.5816 5.29026 23.5334 5.37533 23.4946ZM4.21405 24.3691C4.34103 24.1846 4.49608 24.0389 4.67326 23.9063C4.50293 24.0365 4.33147 24.1997 4.21405 24.3691ZM4.80206 26.4019C4.43383 26.1392 4.10543 25.7622 4.0168 25.1969C4.0173 25.1994 4.01781 25.2019 4.01832 25.2044C4.08856 25.5903 4.32834 25.8604 4.43509 25.9737C4.58354 26.1314 4.75272 26.2662 4.88891 26.366C5.03037 26.4697 5.16617 26.5571 5.26438 26.6177C5.31423 26.6484 5.35621 26.6733 5.38671 26.691L5.4238 26.7124L5.4353 26.7189L5.43916 26.721L5.4406 26.7218L5.44119 26.7222L5.44146 26.7223C5.44158 26.7224 5.44171 26.7225 5.92796 25.8486L5.44171 26.7225L5.51965 26.7658L5.53663 26.7716L5.51829 26.7666C5.51798 26.7665 5.51763 26.7664 5.51724 26.7663C5.51214 26.7648 5.5007 26.7612 5.48376 26.7554C5.44972 26.7439 5.39455 26.7238 5.32483 26.6941C5.18336 26.6339 4.9937 26.5387 4.80206 26.4019ZM4.04496 25.31C4.04461 25.309 4.04216 25.3 4.03862 25.2861C4.04353 25.304 4.0453 25.311 4.04496 25.31ZM5.96117 24.333C5.74197 23.7389 5.66152 23.5211 5.63197 23.4412L5.63319 23.4441L5.96117 24.333ZM5.73794 23.3437L5.6614 23.3766L5.66136 23.3765L5.73732 23.3439L6.04232 23.2131L7.20117 22.716L11.3471 20.938C14.7838 19.4644 19.3794 17.4942 24.0151 15.5081C28.651 13.5219 33.3274 11.519 36.9246 9.98102C40.1254 8.61252 42.3907 7.64545 43.1472 7.3297C42.4216 7.63518 40.0395 8.65048 36.9255 9.98189C33.3284 11.5198 28.6524 13.5214 24.0166 15.5076C19.3808 17.4937 14.785 19.464 11.3482 20.9377L7.20194 22.7158L6.04298 23.2129L5.73794 23.3437ZM43.4683 7.19997C43.797 7.077 44.1183 6.99768 44.421 6.9844C44.7309 6.97081 45.0204 7.0256 45.2952 7.17936C45.086 7.06615 44.8715 7.04074 44.8005 7.03234L44.7997 7.03224C44.6705 7.01695 44.529 7.01291 44.3837 7.01964C44.122 7.03176 43.8014 7.08101 43.4683 7.19997ZM45.8985 7.99489C45.8962 7.98621 45.8938 7.97731 45.8913 7.96821C45.8939 7.97722 45.8964 7.98629 45.8988 7.99539C45.9896 8.33809 46.0005 8.7562 45.9012 9.30825C45.9962 8.76612 45.9851 8.32161 45.8985 7.99489ZM45.8485 9.57133L39.3456 43.4646L39.3448 43.4668L39.3447 43.4667L39.3443 43.468L39.3437 43.4695L39.3436 43.4699L39.3408 43.4764C39.3363 43.4874 39.3272 43.5082 39.3135 43.5372C39.2859 43.5956 39.2403 43.6849 39.175 43.7914C39.1308 43.8634 39.079 43.941 39.0192 44.0208C39.0525 43.9758 39.0822 43.9325 39.1087 43.892C39.167 43.8027 39.2117 43.7228 39.2444 43.6595C39.2608 43.6277 39.2742 43.6001 39.2847 43.5777C39.2868 43.5734 39.2888 43.569 39.2907 43.5649C39.2979 43.5492 39.3033 43.5371 39.3024 43.5392L39.3508 43.432L39.3729 43.3164L45.8455 9.58488L45.8485 9.57133ZM35.9514 44.7142C36.107 44.7794 36.2595 44.8354 36.4094 44.8806C36.2344 44.8365 36.0536 44.7748 35.868 44.6927L35.8305 44.6635L35.9514 44.7142ZM26.4156 37.3222L29.6614 39.8534L27.0858 37.8452L26.4154 37.3224L26.4156 37.3222ZM22.2777 41.1582L24.2317 39.3468L20.3565 42.941C20.3545 42.9424 20.3521 42.944 20.3494 42.9458L22.2777 41.1582ZM19.9771 43.1097C19.9762 43.1099 19.9753 43.1101 19.9744 43.1104L20.3631 41.3626L21.9744 34.1165L21.9983 34.0093V34.0032L22.0007 33.9998L21.6646 35.5127L20.6217 40.208L19.9771 43.1097ZM22.0037 33.9955L22.0063 33.9924L34.3755 19.4396L33.0588 17.96L39.0002 13.9991L39.0008 13.9987L39.0008 13.9988L39.0009 13.9988L39.9924 14.1286L39.0008 13.9988L39.0008 13.9989L39 13.9998L22.6895 33.1893L22.0014 33.9988L22.0037 33.9955ZM22.0011 33.9992L22.0012 33.999L22.8512 34.6368L25.7536 36.8145L26.0452 37.0333L26.0672 37.0505L25.4637 36.5976L23.2411 34.9297L22.0011 33.9992ZM18.4408 41.4693L18.6174 41.9854C18.5355 41.7813 18.4489 41.5372 18.3575 41.2432L18.3574 41.2429C17.8372 39.5714 15.5403 31.9077 15.1545 30.6205L15.1163 30.4931L14.9688 30.0011L14.9875 30.0075L15.3987 29.7334L31.635 18.9092L15.59 29.6065L14.9744 30.0169L15.1869 30.7257L15.2301 30.8698C15.6644 32.3185 17.7426 39.2497 18.3127 41.0958V41.0981L18.3578 41.243C18.3835 41.3259 18.4066 41.3847 18.4247 41.429C18.4315 41.4456 18.435 41.4544 18.4371 41.4594C18.4397 41.4659 18.4397 41.4661 18.4408 41.4693ZM5.63814 26.8064L11.8107 28.9198L5.64333 26.809L5.63814 26.8064ZM19.4571 43.1243L19.4569 43.1242L19.4571 43.1243Z" fill="white" stroke="white" stroke-width="2"/>
</svg>
