<svg width="134" height="120" viewBox="0 0 134 120" fill="none" xmlns="http://www.w3.org/2000/svg">
<path d="M94.3363 64.1963C94.326 64.2088 94.3143 64.2201 94.3036 64.2322C94.2893 64.2533 94.2862 64.2592 94.3363 64.1963Z" fill="#D6111F"/>
<path d="M94.9723 59.6621C94.9268 60.8587 94.8018 62.051 94.598 63.2311C94.5715 63.4226 94.5353 63.6127 94.4896 63.8006C94.4696 63.8782 94.4463 63.9547 94.4202 64.0304C94.363 64.1948 94.4016 64.0675 94.4176 64.0367C94.3931 64.0842 94.3672 64.1303 94.3408 64.1766C94.3345 64.1877 94.3153 64.2147 94.3036 64.2319C94.3143 64.2198 94.326 64.2085 94.3363 64.196C94.2863 64.2589 94.2893 64.253 94.3036 64.2319C94.2859 64.2519 94.2688 64.2723 94.2498 64.291C94.1406 64.4024 94.2126 64.3456 94.1062 64.4161C93.9749 64.5006 93.8354 64.5722 93.6903 64.6296C92.6467 65.0577 91.589 65.456 90.5383 65.8674C90.0935 66.041 89.6499 66.2246 89.1995 66.3858C89.6652 66.7979 90.2401 67.2241 90.656 67.7323C91.4414 67.428 92.2229 67.111 93.005 66.8034C93.395 66.6496 93.7856 66.4963 94.1768 66.3433C95.2659 65.9157 96.033 65.2177 96.261 64.0356C96.5498 62.5945 96.7148 61.1314 96.7544 59.6621C96.7773 58.515 94.9954 58.515 94.9723 59.6621Z" fill="#D6111F"/>
<path d="M108.272 59.6624C108.323 61.0816 108.479 62.495 108.74 63.8911C108.803 64.3532 108.968 64.7956 109.222 65.1864C109.62 65.7125 110.166 66.1074 110.791 66.3202C110.84 66.3403 110.891 66.3629 110.942 66.3807C110.703 66.2953 110.871 66.351 111.023 66.416C111.309 66.5373 111.595 66.6591 111.881 66.7813L114.071 67.7176C114.623 67.9538 115.174 68.194 115.728 68.423C116.203 68.5508 116.691 68.2732 116.824 67.8004C116.942 67.3276 116.669 66.8454 116.202 66.7045C116.632 66.883 116.142 66.6781 116.03 66.6302L115.238 66.2913L113.19 65.4158C112.65 65.1854 112.111 64.9556 111.571 64.7264C111.339 64.6422 111.117 64.5344 110.907 64.4049C110.809 64.338 110.727 64.249 110.669 64.145C110.643 64.1005 110.567 63.926 110.62 64.0626C110.582 63.9596 110.55 63.8544 110.525 63.7474C110.223 62.4057 110.065 61.0355 110.055 59.6602C110.032 58.5149 108.25 58.5112 108.273 59.6602L108.272 59.6624Z" fill="#D6111F"/>
<path d="M107.635 75.7513C104.805 76.1857 101.931 76.2588 99.0829 75.9689C96.5754 75.709 93.9837 75.1272 91.8129 73.7985C90.8321 73.1982 89.9358 74.7389 90.9137 75.3374C93.3195 76.8098 96.1611 77.4346 98.9329 77.7349C101.99 78.0445 105.073 77.9554 108.107 77.4699C108.579 77.336 108.857 76.8476 108.729 76.3735C108.589 75.9069 108.106 75.633 107.633 75.7513H107.635Z" fill="#D6111F"/>
<path d="M114.544 73.2442C114.045 73.5785 113.528 73.8841 112.995 74.1593C112.734 74.294 112.469 74.4216 112.201 74.5421C112.138 74.5703 112.075 74.5978 112.012 74.6253L111.904 74.6717C112.026 74.6202 112.043 74.613 111.954 74.6501C111.808 74.7092 111.663 74.7678 111.517 74.8239C111.296 74.892 111.107 75.0369 110.984 75.2323C110.736 75.657 110.878 76.2028 111.303 76.4514C111.511 76.5729 111.759 76.6054 111.99 76.5414C113.204 76.0861 114.362 75.4958 115.443 74.7816C115.868 74.5332 116.011 73.9874 115.763 73.5625C115.514 73.1377 114.968 72.9947 114.544 73.2431V73.2442Z" fill="#D6111F"/>
<path d="M132.445 88.5305C132.323 86.0267 132.241 83.5029 131.872 81.021C131.53 78.4471 130.487 76.0166 128.858 73.9949C127.264 72.1227 125.079 70.7278 122.979 69.4938C121.888 68.853 120.768 68.2656 119.627 67.7199C118.545 67.2001 117.272 66.3696 116.028 66.641C115.507 66.8104 115.016 67.0632 114.575 67.3895C114.101 67.6716 113.615 67.9336 113.118 68.1754C112.191 68.6227 111.232 68.9977 110.247 69.2974C108.266 69.9031 106.214 70.2495 104.143 70.328C100.137 70.5327 96.1418 69.7636 92.4985 68.0867C91.671 67.6902 90.9159 67.2009 90.1259 66.7413C89.8364 66.5728 89.552 66.4872 89.2708 66.4482C90.166 67.2257 91.406 68.0643 91.1753 69.4193C94.2596 71.005 97.7356 71.8342 101.178 72.0703C105.356 72.387 109.548 71.6792 113.39 70.0084C114.313 69.5908 115.205 69.1091 116.061 68.5668C116.484 68.3016 116.749 68.3555 117.2 68.5571C117.788 68.8197 118.372 69.0906 118.952 69.3698C121.191 70.4329 123.326 71.7043 125.327 73.1674C126.247 73.8314 127.076 74.6137 127.792 75.4941C128.482 76.4349 129.026 77.4755 129.404 78.58C130.295 80.9312 130.385 83.4658 130.526 85.9539C131.078 95.6787 131.199 105.422 131.691 115.15C131.75 116.327 131.816 117.502 131.888 118.677C131.957 119.816 133.74 119.824 133.67 118.677C133.055 108.638 132.931 98.5764 132.445 88.5305Z" fill="#D6111F"/>
<path d="M85.6013 89.3484C85.631 88.6589 85.6733 87.9702 85.7372 87.2834C85.7999 86.6103 85.8486 86.2041 85.9633 85.5719C86.0801 85.0992 85.8066 84.6177 85.3407 84.4759C84.8667 84.3494 84.3789 84.6263 84.2448 85.0982C83.9465 87.0162 83.7805 88.9516 83.7488 90.8909C84.3519 91.0496 84.9552 91.8 85.5583 92.0536C85.5671 91.1518 85.5682 90.25 85.6013 89.3484Z" fill="#D6111F"/>
<path d="M119.038 85.1714C119.591 89.9116 119.725 94.6912 119.438 99.4549C119.329 101.638 119.161 103.818 118.934 105.992C118.767 107.61 118.488 109.185 118.637 110.812C118.862 113.315 119.297 115.799 119.597 118.294C119.611 118.78 120.002 119.17 120.488 119.185C120.979 119.182 121.376 118.785 121.379 118.294C121.107 116.035 120.744 113.788 120.491 111.527C120.389 110.783 120.343 110.033 120.354 109.282C120.387 108.465 120.54 107.64 120.628 106.826C121.137 102.348 121.378 97.8443 121.349 93.338C121.331 90.6075 121.155 87.8804 120.821 85.1703C120.806 84.6846 120.416 84.2944 119.93 84.2793C119.439 84.2819 119.042 84.6793 119.039 85.1703L119.038 85.1714Z" fill="#D6111F"/>
<path d="M85.2556 36.481C84.8235 34.5645 84.8788 32.3407 85.1038 30.3507C85.3688 28.3237 86.065 26.3771 87.1457 24.6419C89.3621 21.0185 92.825 18.329 96.8842 17.0786C98.9818 16.4422 101.067 16.378 103.241 16.3888C105.347 16.4074 107.429 16.8431 109.366 17.6707C113.298 19.3363 116.481 22.3883 118.31 26.2468C119.225 28.2186 119.612 30.3986 119.824 32.5486C120.055 34.8856 120.163 37.4544 119.245 39.6667C119.118 40.1409 119.395 40.6295 119.868 40.7627C120.341 40.8807 120.823 40.6069 120.964 40.1405C121.852 37.9994 121.84 35.4927 121.665 33.2187C121.554 31.0841 121.163 28.9733 120.503 26.9403C118.89 22.5586 115.709 18.931 111.576 16.7593C109.484 15.6462 107.198 14.9451 104.841 14.694C103.684 14.6008 102.522 14.5713 101.362 14.6056C100.172 14.6152 98.9858 14.746 97.8224 14.9962C93.2405 16.0233 89.1923 18.6906 86.4407 22.4956C85.0834 24.3449 84.1155 26.4503 83.5954 28.6845C83.131 30.9235 83.035 33.2232 83.311 35.493C83.3591 35.9848 83.4351 36.4734 83.5386 36.9565C83.791 38.0748 85.5092 37.6018 85.2567 36.4828L85.2556 36.481Z" fill="#D6111F"/>
<path d="M109.198 27.7212C109.766 29.9257 110.358 32.2658 111.438 34.2854C112.381 36.098 113.589 37.7596 115.023 39.215C115.795 40.0522 116.771 40.6736 117.857 41.0178C118.968 41.3037 119.442 39.5855 118.33 39.2997C117.374 39.0535 116.474 38.1985 115.762 37.4103C114.947 36.4925 114.219 35.5008 113.588 34.448C112.24 32.2491 111.558 29.7364 110.915 27.2475C110.629 26.1378 108.911 26.6082 109.197 27.7212L109.198 27.7212Z" fill="#D6111F"/>
<path d="M109.267 26.7067C107.831 28.6839 105.965 30.3097 103.809 31.4617C102.723 32.0644 101.587 32.5731 100.413 32.9821C100.113 33.0872 99.8107 33.1863 99.5068 33.2791C99.1727 33.3537 98.8434 33.4483 98.5207 33.5623C98.3722 33.6292 98.5129 33.5564 98.5678 33.5698C98.636 33.5789 98.7029 33.596 98.7672 33.6206C98.8774 33.6834 98.9741 33.7674 99.0516 33.8679C98.984 33.7895 99.0776 33.8679 99.0516 33.8768C98.9588 33.9109 99.1689 33.9299 99.0597 33.8694C99.0397 33.8586 99.0545 33.7313 99.0538 33.8501C99.0538 33.9477 99.0538 33.6492 99.0538 33.6024C99.0794 32.5778 99.4084 31.497 99.5647 30.4334C99.658 30.045 99.4938 29.6404 99.1563 29.4269C98.805 29.2296 98.3659 29.2864 98.0763 29.5665C94.3477 33.1929 89.9401 36.0468 86.1217 39.5741C85.2775 40.3538 86.5401 41.6116 87.3818 40.8342C91.1998 37.3072 95.607 34.4534 99.3364 30.8265L97.8476 29.9615C97.6739 31.1439 97.3341 32.3145 97.2766 33.5122C97.2154 34.0002 97.3352 34.4937 97.6133 34.8992C98.0837 35.4713 98.7104 35.3663 99.349 35.1866C102.253 34.402 104.977 33.059 107.368 31.2327C108.689 30.2027 109.847 28.981 110.806 27.6081C111.05 27.1825 110.908 26.64 110.486 26.3889C110.06 26.151 109.522 26.2921 109.268 26.7085L109.267 26.7067Z" fill="#D6111F"/>
<path d="M92.4541 61.6753C92.4451 61.6793 92.4368 61.6845 92.4277 61.6884C92.4758 61.6674 92.4719 61.6684 92.4541 61.6753Z" fill="#D6111F"/>
<path d="M86.8429 62.3203C86.8196 62.3176 86.7966 62.3154 86.7729 62.3125C86.8667 62.3241 86.8674 62.3239 86.8429 62.3203Z" fill="#D6111F"/>
<path d="M85.7522 62.0679C85.6485 62.0455 85.862 62.1429 85.7522 62.0679V62.0679Z" fill="#D6111F"/>
<path d="M94.1091 60.3083C94.1133 60.3145 94.1445 60.2488 94.1091 60.3083V60.3083Z" fill="#D6111F"/>
<path d="M93.4582 61.1055C93.447 61.1136 93.4345 61.1199 93.4233 61.128C93.4023 61.145 93.3989 61.1488 93.4582 61.1055Z" fill="#D6111F"/>
<path d="M93.912 60.6514C93.8976 60.6691 93.8816 60.6846 93.867 60.7018C93.8629 60.7092 93.8699 60.7025 93.912 60.6514Z" fill="#D6111F"/>
<path d="M85.5254 52.5475C85.369 51.282 85.4341 50.0081 85.9084 48.7406C86.0349 48.2665 85.7581 47.7786 85.2861 47.6442C84.813 47.5245 84.3296 47.7989 84.1898 48.2665H84.1917C83.8405 49.2062 83.687 50.1712 83.667 51.1406C84.2338 51.715 84.9001 52.0901 85.5254 52.5475Z" fill="#D6111F"/>
<path d="M85.6329 62.0099C85.5791 61.9588 85.5896 61.9787 85.6119 62.009C85.6354 62.0212 85.6529 62.0283 85.6329 62.0099Z" fill="#D6111F"/>
<path d="M95.2169 59.6426C94.7437 59.5221 94.2598 59.7967 94.1206 60.2648C94.1089 60.2978 94.1078 60.3061 94.1091 60.3082C94.103 60.3187 94.1025 60.3183 94.0908 60.339C94.052 60.4092 94.0166 60.4809 93.9744 60.5496C93.9573 60.5769 93.8757 60.6857 93.8669 60.7018C93.8816 60.6846 93.8976 60.6691 93.912 60.6513C93.8699 60.7024 93.8629 60.7091 93.8669 60.7018C93.8202 60.7566 93.7737 60.8108 93.7234 60.8622C93.6643 60.9227 93.6021 60.9791 93.5377 61.0359C93.5127 61.0571 93.4509 61.1054 93.4233 61.1279C93.4346 61.1197 93.447 61.1135 93.4583 61.1053C93.3989 61.1487 93.4023 61.1448 93.4233 61.1279C93.2777 61.2322 93.1277 61.3303 92.9716 61.418C92.8035 61.5123 92.6304 61.5972 92.4541 61.6748C92.4719 61.6679 92.4758 61.6669 92.4277 61.6879C92.4368 61.684 92.4451 61.6788 92.4541 61.6748C92.4202 61.6879 92.3171 61.7302 92.2908 61.7402C92.1833 61.7807 92.0757 61.8185 91.9669 61.8545C91.559 61.988 91.1431 62.0958 90.7217 62.1775C90.326 62.2609 89.9252 62.3174 89.5219 62.3465C89.3257 62.3634 89.1284 62.3616 88.9319 62.3705V64.1652C89.8718 64.1274 90.8076 64.0058 91.7238 63.7781C93.4275 63.357 95.2092 62.4916 95.8391 60.7389C95.9651 60.265 95.6885 59.7775 95.2169 59.6426Z" fill="#D6111F"/>
<path d="M85.7395 62.4551L85.7175 62.4836C85.7198 62.4967 85.7257 62.494 85.7395 62.4551Z" fill="#D6111F"/>
<path d="M118.644 41.036C119.236 40.5561 120.105 40.6468 120.585 41.2386C120.616 41.2771 120.645 41.3173 120.672 41.359C120.863 41.8156 120.943 42.3108 120.907 42.8043C120.918 43.3492 120.873 43.8939 120.773 44.4297C120.401 46.3602 119.388 48.6468 117.243 49.027C116.771 49.1613 116.494 49.649 116.62 50.1229C116.76 50.5905 117.244 50.865 117.717 50.7455C120.847 50.1886 122.351 46.6921 122.641 43.8605C122.788 42.4286 122.744 40.6528 121.534 39.6697C120.308 38.6938 118.558 38.7386 117.384 39.7759C117.04 40.1256 117.04 40.6864 117.384 41.036C117.736 41.3751 118.294 41.3751 118.646 41.036H118.644Z" fill="#D6111F"/>
<path d="M116.565 48.1608C116.525 48.8228 116.4 49.4768 116.193 50.107C116.124 50.3368 116.049 50.5644 115.971 50.792C115.946 50.8662 115.918 50.9405 115.896 51.0147C115.841 51.1862 115.916 50.9776 115.902 51.0058C115.6 51.6594 115.255 52.2919 114.868 52.8992C113.793 54.6767 112.424 56.2585 110.819 57.5771C109.942 58.302 108.915 58.8233 107.812 59.1033C106.695 59.3632 107.168 61.081 108.286 60.8215C110.617 60.281 112.575 58.6215 114.12 56.865C115.444 55.414 116.547 53.7766 117.395 52.0052C117.954 50.7954 118.277 49.4901 118.346 48.1594C118.388 47.0125 116.606 47.014 116.564 48.1594L116.565 48.1608Z" fill="#D6111F"/>
<path d="M87.5459 39.7758C86.3716 38.7386 84.6222 38.6939 83.3964 39.6696C82.1861 40.6523 82.1415 42.4288 82.2885 43.8604C82.5789 46.6923 84.0832 50.1903 87.2133 50.7454C87.6861 50.862 88.1676 50.5886 88.3096 50.1228C88.4357 49.6488 88.1587 49.1612 87.687 49.0268C85.5419 48.6466 84.5313 46.3608 84.1575 44.4295C84.0625 43.9204 84.0174 43.4033 84.0227 42.8854C83.978 42.3651 84.0587 41.8416 84.2581 41.3588C84.6718 40.7187 85.526 40.5353 86.1661 40.949C86.2076 40.9758 86.2475 41.0047 86.2859 41.0358C86.639 41.371 87.1928 41.371 87.5459 41.0358C87.89 40.6863 87.89 40.1253 87.5459 39.7758Z" fill="#D6111F"/>
<path d="M86.6842 47.99C87.5381 52.8958 90.2033 57.6988 94.7427 60.0744C95.9987 60.7308 97.3684 61.1413 98.7783 61.284C99.2692 61.281 99.6663 60.8838 99.6693 60.393C99.6583 59.9055 99.2658 59.513 98.7783 59.502C95.8973 59.1986 93.4812 57.3776 91.6769 55.2117C89.8555 53.0257 88.8846 50.2884 88.4027 47.5162C88.2685 47.0442 87.7804 46.7672 87.3064 46.894C86.839 47.0338 86.5647 47.517 86.6842 47.99Z" fill="#D6111F"/>
<path d="M99.5761 53.015C100.518 53.5024 101.566 53.746 102.626 53.7233C103.733 53.7683 104.824 53.4432 105.726 52.7993C106.074 52.4513 106.074 51.8872 105.726 51.5392C105.373 51.2057 104.82 51.2057 104.466 51.5392C104.743 51.3239 104.552 51.4716 104.482 51.5169C104.421 51.5555 104.36 51.5913 104.296 51.6242C104.212 51.668 104.007 51.7159 104.255 51.6521C104.169 51.674 104.085 51.7174 104 51.7449C103.766 51.8173 103.528 51.8718 103.286 51.9079C103.419 51.8867 103.331 51.9016 103.249 51.9097C103.178 51.9164 103.108 51.9223 103.038 51.9268C102.869 51.9379 102.7 51.942 102.53 51.9413C102.379 51.9413 102.227 51.9358 102.076 51.9249C102.006 51.9201 101.937 51.9145 101.868 51.9075C101.837 51.9045 101.582 51.86 101.797 51.9008C101.572 51.8629 101.349 51.8133 101.129 51.7523C101.036 51.7241 100.943 51.6907 100.852 51.6591C100.635 51.5849 101.011 51.7378 100.815 51.645C100.701 51.5913 100.588 51.5349 100.476 51.4757C100.051 51.2274 99.5049 51.3706 99.2566 51.7956C99.0083 52.2205 99.1512 52.7666 99.5761 53.015Z" fill="#D6111F"/>
<path d="M102.122 45.8957C102.259 46.3934 102.37 46.8984 102.452 47.4082L102.42 47.1714C102.43 47.2405 102.432 47.3105 102.426 47.38L102.458 47.1431C102.453 47.1751 102.445 47.2065 102.435 47.2371L102.525 47.024C102.515 47.0451 102.504 47.0653 102.491 47.0845L102.631 46.904C102.616 46.922 102.6 46.9383 102.582 46.9527L102.762 46.8135C102.723 46.8374 102.683 46.8586 102.642 46.8769L102.855 46.7871C102.79 46.8147 102.722 46.8345 102.653 46.8461L102.89 46.8142C102.827 46.8216 102.763 46.8216 102.7 46.8142L102.937 46.8461C102.866 46.8361 102.796 46.8187 102.724 46.809C102.609 46.7721 102.487 46.7666 102.369 46.793C102.251 46.7984 102.137 46.8349 102.038 46.8988C101.613 47.1471 101.47 47.6928 101.718 48.1177C101.718 48.1175 101.718 48.1178 101.718 48.1177C101.832 48.3207 102.025 48.4687 102.25 48.5265C102.423 48.5495 102.591 48.5933 102.767 48.6007C103.036 48.6021 103.302 48.5384 103.541 48.4151C103.852 48.2713 104.082 47.9958 104.168 47.6644C104.223 47.4019 104.22 47.1305 104.16 46.8691C104.078 46.3821 103.965 45.8994 103.84 45.4212C103.709 44.9468 103.219 44.6681 102.744 44.7988C102.744 44.7989 102.745 44.7988 102.744 44.7988C102.276 44.9373 102 45.4225 102.122 45.8957Z" fill="#D6111F"/>
<path d="M94.2376 41.5817C93.9847 42.4022 94.1496 44.2919 95.704 44.4508C97.759 44.4385 97.8685 42.156 97.1765 41.0827C96.6103 40.2058 94.9448 39.8401 94.2376 41.5817Z" fill="#D6111F"/>
<path d="M110.692 41.5817C110.945 42.4022 110.78 44.2919 109.226 44.4508C107.171 44.4381 107.062 42.156 107.753 41.0827C108.32 40.2058 109.985 39.8401 110.692 41.5817Z" fill="#D6111F"/>
<path d="M45.0561 4.86452C45.3436 5.13186 45.6494 5.37885 45.9713 5.6037C46.2104 5.77913 46.4629 5.93566 46.7264 6.07185C46.9206 6.16912 47.1237 6.25154 47.3234 6.33619C47.5892 6.46116 47.8632 6.56784 48.1435 6.65548C48.618 6.78629 49.1087 6.50771 49.2395 6.03324C49.3703 5.55878 49.0917 5.0681 48.6172 4.93729C48.41 4.87438 48.2072 4.79761 48.0102 4.70748L48.223 4.79732C47.9868 4.69745 47.7463 4.60055 47.5209 4.47804C47.2061 4.30273 46.9055 4.10287 46.6221 3.88031L46.8022 4.01953C46.634 3.88848 46.471 3.75148 46.3162 3.60446C45.9654 3.25936 45.4012 3.26399 45.0561 3.61479C44.715 3.96154 44.715 4.51777 45.0561 4.86452Z" fill="#D6111F"/>
<path d="M28.3022 52.1891C28.4824 51.0011 28.5869 49.8029 28.6152 48.6016C28.6375 47.4544 26.8555 47.4544 26.8333 48.6016L26.8313 48.5986C26.8147 49.6159 26.7351 50.6311 26.593 51.6385C26.5842 51.7138 26.5649 51.7874 26.5554 51.8626C27.1067 51.8797 27.6578 52.4864 28.2091 52.8576C28.2413 52.635 28.2791 52.413 28.3022 52.1891Z" fill="#D6111F"/>
<path d="M26.1267 54.1975C26.145 54.1521 26.1353 54.1717 26.1199 54.2052C26.1142 54.2241 26.1125 54.2324 26.1267 54.1975Z" fill="#D6111F"/>
<path d="M25.9543 54.506C25.9491 54.5139 25.9451 54.5225 25.9397 54.5302C25.9747 54.4793 25.9711 54.484 25.9543 54.506Z" fill="#D6111F"/>
<path d="M46.1491 54.5048C46.1611 54.5211 46.1592 54.5162 46.1519 54.5031C46.1379 54.487 46.1304 54.4793 46.1491 54.5048Z" fill="#D6111F"/>
<path d="M47.8235 57.3209C47.8209 57.3196 47.818 57.3198 47.8154 57.3184C47.8342 57.3257 47.8373 57.3267 47.8235 57.3209Z" fill="#D6111F"/>
<path d="M47.8064 57.3151C47.8092 57.3167 47.8125 57.3165 47.8154 57.318C47.8118 57.3166 47.8025 57.3129 47.7966 57.3105C47.8004 57.3123 47.7949 57.3102 47.8064 57.3151Z" fill="#D6111F"/>
<path d="M47.7968 57.3112C47.8027 57.3135 47.8119 57.3172 47.8156 57.3186C47.8182 57.32 47.8211 57.3198 47.8237 57.3212C47.8027 57.3125 47.7819 57.3043 47.7968 57.3112Z" fill="#D6111F"/>
<path d="M45.5082 51.5187C45.3763 50.5487 45.2916 49.5728 45.2745 48.5938C45.2522 47.4485 43.4698 47.4447 43.4924 48.5938L43.4917 48.5982C43.517 49.6713 43.6163 50.7404 43.7623 51.8034C44.3444 51.4267 44.9263 50.9428 45.5082 51.5187Z" fill="#D6111F"/>
<path d="M45.9912 54.2133C45.9834 54.1964 45.9739 54.1802 45.9663 54.1631C45.9874 54.2122 45.9922 54.2198 45.9912 54.2133Z" fill="#D6111F"/>
<path d="M61.8719 84.9257C61.8737 84.9178 61.8746 84.9096 61.8763 84.9017L61.8768 84.8971C61.9005 84.6595 61.8423 85.0616 61.8719 84.9257Z" fill="#D6111F"/>
<path d="M61.7448 86.7173C61.7681 86.267 61.7936 85.8167 61.8312 85.3674C61.8441 85.2119 61.8606 85.0567 61.8763 84.9016C61.8746 84.9095 61.8738 84.9177 61.8719 84.9256C61.8423 85.0615 61.9005 84.6594 61.8768 84.897C61.8766 84.8986 61.8766 84.9 61.8763 84.9016C61.9081 84.7532 61.9303 84.6021 61.9581 84.453C62.0511 83.9574 62.1547 83.464 62.2513 82.9691C61.4573 82.5142 61.4938 81.2284 60.9165 80.5566C60.8121 81.0662 60.7024 81.5746 60.6019 82.0851C60.3165 83.3738 60.116 84.6799 60.0016 85.9949C59.8717 88.0323 59.8176 90.0752 59.7732 92.1175C60.3768 91.7754 60.9388 91.4866 61.574 91.3135C61.6141 89.7806 61.6663 88.2482 61.7448 86.7173Z" fill="#D6111F"/>
<path d="M25.7969 53.6144C25.6577 53.5797 25.5058 53.5707 25.33 53.6301C20.7631 55.1498 16.3162 57.007 12.0247 59.1864C9.7879 60.335 7.54962 61.5023 5.74762 63.2925C4.2536 64.756 3.19098 66.6024 2.67609 68.6293C2.12555 70.8477 2.16754 73.1981 2.05499 75.4669C1.9234 78.1325 1.79279 80.7984 1.66339 83.4645C1.39899 88.921 1.13776 94.3772 0.879578 99.8329C0.589784 105.932 0.296937 112.031 0.00128254 118.129C-0.0545036 119.275 1.72784 119.272 1.78326 118.129C2.30304 107.456 2.81403 96.7826 3.31647 86.1086C3.44293 83.4813 3.57074 80.8541 3.69977 78.2268C3.81989 75.7735 3.84454 73.2916 4.09174 70.8477C4.242 69.0202 4.88092 67.2668 5.94135 65.7711C7.33917 63.8613 9.357 62.6153 11.4085 61.5193C15.6793 59.256 20.1216 57.3375 24.6851 55.748C24.4681 55.0368 25.4349 54.3256 25.7969 53.6144Z" fill="#D6111F"/>
<path d="M56.3836 57.2176C53.3996 55.8759 50.3571 54.6661 47.2513 53.6295C46.1623 53.2612 45.6953 54.9816 46.7775 55.3476C49.9875 56.4145 53.1359 57.6556 56.2104 59.062C56.1147 58.2836 55.7077 57.4694 56.3836 57.2176Z" fill="#D6111F"/>
<path d="M6.67155 62.8711C7.02684 67.2252 7.92009 71.4698 8.86198 75.7271C9.47864 78.5115 10.0715 81.2986 10.6021 84.0997C10.6507 84.3563 10.6971 84.6132 10.7461 84.8697C10.7933 85.1162 10.7324 84.7108 10.7461 84.8538C10.761 85.019 10.7814 85.1838 10.7955 85.349C10.8363 85.8354 10.8634 86.3232 10.8883 86.8107C11.0535 90.0681 11.1059 93.3326 11.1645 96.5937C11.2301 100.253 11.2781 103.912 11.3086 107.571C11.3349 110.467 11.3602 113.362 11.3193 116.258C11.3097 116.949 11.2951 117.639 11.2755 118.329C11.2429 119.476 13.0249 119.475 13.0576 118.329C13.1497 115.107 13.127 111.883 13.0999 108.66C13.0707 105.116 13.0278 101.572 12.9711 98.0275C12.9146 94.593 12.8571 91.1566 12.7112 87.7243C12.6711 86.7687 12.6421 85.8049 12.5256 84.8541C12.3897 83.7322 12.1287 82.6206 11.9078 81.5128C11.6279 80.1102 11.3356 78.7099 11.0309 77.312C10.1139 73.0882 9.06914 68.838 8.61063 64.5733C8.54975 64.0068 8.49653 63.4395 8.45099 62.8715C8.43887 62.3845 8.04696 61.9926 7.55997 61.9805C7.06947 61.9843 6.67278 62.381 6.66895 62.8715L6.67155 62.8711Z" fill="#D6111F"/>
<path d="M42.2385 63.5045C44.0856 61.6519 45.5168 59.4577 46.8681 57.2302C47.1963 56.69 47.5212 56.148 47.8498 55.6081C48.0588 55.2647 48.3164 54.9228 48.1991 54.4966C48.0841 54.1863 47.9312 53.8914 47.7439 53.6186C47.1044 52.4999 46.3053 51.4805 45.3716 50.5924C45.0201 50.253 44.463 50.253 44.1115 50.5924C42.9411 51.7693 41.6534 52.8236 40.2686 53.7389C39.5588 54.2091 38.8273 54.6435 38.0741 55.042C37.4229 55.3854 36.3793 55.6419 36.0946 56.3934C35.8377 57.072 36.2267 57.6523 36.621 58.1669C37.1144 58.811 37.6282 59.4399 38.1432 60.067C39.0854 61.2153 40.0418 62.3521 40.9789 63.5045C41.3282 63.8489 41.8892 63.849 42.2385 63.5045C42.5756 63.1521 42.576 62.5968 42.2389 62.2444C41.4307 61.2505 40.6076 60.2689 39.7927 59.2806C39.3364 58.7271 38.8809 58.1728 38.4335 57.61C38.2772 57.4143 38.1202 57.2194 37.9728 57.016C37.9248 56.9554 37.88 56.8923 37.8387 56.827C37.7894 56.7427 37.8016 56.7026 37.8016 56.7338L37.6802 57.1834C37.5837 57.2646 37.6025 57.2653 37.7366 57.1856C37.8283 57.144 37.9201 57.1017 38.011 57.059C38.1959 56.9721 38.3794 56.8828 38.5616 56.791C38.8876 56.6271 39.2093 56.4558 39.5269 56.2771C40.2283 55.8838 40.9104 55.4588 41.5732 55.0019C42.9345 54.0709 44.2064 53.0157 45.3727 51.8499H44.1127C45.1148 52.813 45.9463 53.9392 46.5719 55.1804V54.2809C44.8737 57.0497 43.2918 59.924 40.9796 62.2414C40.168 63.0575 41.4273 64.3179 42.2385 63.5045Z" fill="#D6111F"/>
<path d="M31.1524 62.1552C28.8584 59.8534 27.2891 57.0043 25.6039 54.257V55.1562C26.2249 53.925 27.0497 52.8078 28.0435 51.852H26.7834C27.9414 53.0103 29.2042 54.0588 30.5558 54.9839C31.2025 55.4294 31.8685 55.8451 32.5536 56.231C32.8753 56.4116 33.2005 56.5849 33.5292 56.7507C33.7134 56.8435 33.899 56.9339 34.0861 57.0217C34.1782 57.0651 34.2706 57.1078 34.3634 57.1498C34.4973 57.2295 34.5152 57.2281 34.4169 57.1454L34.2951 56.6958C34.3362 56.6525 34.3425 56.6525 34.3141 56.6958C34.2966 56.7262 34.2769 56.7556 34.2584 56.7845C34.2213 56.8499 34.17 56.9107 34.1251 56.9701C33.9788 57.1703 33.8236 57.3633 33.6692 57.5571C33.2352 58.101 32.7934 58.6382 32.3512 59.1751C31.5322 60.1689 30.7047 61.1554 29.8924 62.154C29.5583 62.5076 29.5583 63.0605 29.8924 63.4141C30.2417 63.7586 30.803 63.7586 31.1524 63.4141C32.0965 62.2535 33.0599 61.1093 34.0085 59.9525C34.5053 59.3462 35.0009 58.7385 35.478 58.1162C35.8704 57.6035 36.2576 57.0258 36.0007 56.3501C35.7152 55.5972 34.6642 55.3392 34.0111 54.9939C33.299 54.6172 32.606 54.207 31.9321 53.7632C30.5294 52.8434 29.2261 51.7803 28.0431 50.5912C27.6915 50.2522 27.1347 50.2522 26.7831 50.5912C25.844 51.4848 25.0419 52.512 24.4025 53.6396C24.1983 53.9258 24.0481 54.2469 23.9593 54.587C23.9568 54.95 24.0859 55.3017 24.3227 55.5768C24.6628 56.1356 24.9992 56.6969 25.3389 57.256C26.6676 59.4412 28.0784 61.5953 29.8924 63.4141C30.7047 64.2283 31.9636 62.9686 31.1524 62.1552Z" fill="#D6111F"/>
<path d="M53.4321 28.8657C54.0954 28.3265 55.0703 28.4272 55.6094 29.0905C55.6297 29.1155 55.6492 29.141 55.6678 29.1672C55.9556 29.6127 55.9526 30.2494 55.9619 30.7613C55.9758 31.3372 55.9324 31.913 55.8323 32.4803C55.4454 34.5898 54.3376 37.1158 51.9931 37.5294C51.5214 37.6638 51.2445 38.1515 51.3709 38.6254C51.5105 39.0929 51.9937 39.3674 52.4668 39.248C55.7985 38.6629 57.3979 34.918 57.6975 31.9078C57.846 30.4302 57.8141 28.5594 56.5733 27.5303C55.2859 26.4731 53.4217 26.5058 52.1721 27.6075C51.8282 27.9571 51.8282 28.5179 52.1721 28.8675C52.5241 29.2054 53.08 29.2054 53.4321 28.8675L53.4321 28.8657Z" fill="#D6111F"/>
<path d="M51.3132 36.5393C51.2716 37.243 51.1402 37.9384 50.9223 38.6087C50.848 38.8575 50.7667 39.104 50.6843 39.3513C50.6576 39.4311 50.6312 39.5113 50.603 39.5904C50.5922 39.6219 50.5068 39.8257 50.5659 39.6843C50.6249 39.5428 50.5362 39.7481 50.5206 39.7812C50.4834 39.8554 50.4493 39.9327 50.4122 40.008C50.3327 40.1706 50.2492 40.331 50.163 40.4907C49.9614 40.8645 49.7457 41.231 49.5208 41.5914C48.3582 43.5286 46.8709 45.2511 45.1239 46.6836C44.181 47.4605 43.0781 48.0194 41.894 48.3205C40.7772 48.5804 41.2498 50.2975 42.3677 50.0387C44.8644 49.461 46.9594 47.6753 48.6104 45.7919C50.0127 44.2483 51.1827 42.5088 52.0836 40.628C52.6781 39.3427 53.021 37.9555 53.0938 36.5412C53.1342 35.3944 51.3522 35.3959 51.3117 36.5412L51.3132 36.5393Z" fill="#D6111F"/>
<path d="M20.1339 27.6058C18.8845 26.5038 17.02 26.4711 15.7327 27.5286C14.4915 28.5595 14.4611 30.4266 14.6085 31.9061C14.9081 34.9162 16.5071 38.663 19.8388 39.2462C20.3116 39.3629 20.7931 39.0894 20.9351 38.6236C21.0614 38.1496 20.7844 37.6619 20.3125 37.5277C17.9662 37.1156 16.8635 34.5903 16.4737 32.4804C16.3729 31.9132 16.3294 31.3374 16.3438 30.7615C16.3092 30.2359 16.3982 29.7095 16.6036 29.2245C17.0644 28.5091 18.0179 28.3028 18.7332 28.7636C18.782 28.795 18.829 28.8291 18.8739 28.8658C19.2273 29.2024 19.7827 29.2024 20.1362 28.8658C20.4799 28.5161 20.4799 27.9555 20.1362 27.6058L20.1339 27.6058Z" fill="#D6111F"/>
<path d="M19.3163 36.3397C20.2266 41.5833 23.0771 46.7201 27.9343 49.2513C29.2636 49.9439 30.7125 50.3774 32.2038 50.5285C32.6945 50.5252 33.0916 50.1282 33.0948 49.6374C33.0842 49.1498 32.6914 48.757 32.2038 48.7464C27.3032 48.233 23.4755 43.8191 21.9329 39.4063C21.5369 38.2524 21.2365 37.0679 21.0348 35.8648C20.8998 35.3932 20.4117 35.1168 19.9378 35.2437C19.4704 35.3835 19.1968 35.8667 19.3163 36.3397Z" fill="#D6111F"/>
<path d="M22.0053 25.8123C22.0636 24.0244 22.4338 22.2604 23.099 20.5998C23.4423 19.6643 23.9212 18.7844 24.5206 17.9884C25.0104 17.3363 25.6615 16.823 26.4099 16.4989C26.876 16.3575 27.1496 15.8757 27.0322 15.4029C26.8981 14.931 26.4102 14.6539 25.9362 14.7807C23.6916 15.6045 22.3721 17.6903 21.5052 19.8105C20.7135 21.7156 20.279 23.75 20.2233 25.8123C20.2069 26.9595 21.989 26.9602 22.0053 25.8123Z" fill="#D6111F"/>
<path d="M30.6976 14.2348C30.8201 13.7598 30.9682 13.2917 31.1413 12.8326C31.2155 12.6436 31.0979 12.9269 31.1324 12.8497C31.1532 12.8029 31.1736 12.7565 31.1951 12.7101C31.2322 12.6292 31.2731 12.549 31.3158 12.4703C31.3585 12.3915 31.4075 12.3084 31.4583 12.2304C31.4829 12.1933 31.5081 12.1562 31.5326 12.119C31.5805 12.0522 31.6711 11.9895 31.5003 12.1584C31.618 12.0418 31.7182 11.9137 31.8445 11.8042C31.8782 11.7749 31.9135 11.7467 31.948 11.7181C32.0553 11.6282 31.954 11.7211 31.9031 11.7511C31.9933 11.6973 32.0765 11.6223 32.163 11.5622C32.3462 11.4342 32.534 11.3133 32.7266 11.1994C32.8153 11.1475 32.9051 11.097 32.9968 11.0509C33.0711 11.0138 33.3707 10.8891 33.0592 11.0138C33.2795 10.9451 33.4681 10.8003 33.5916 10.6054C33.84 10.1806 33.697 9.63487 33.2722 9.38648C33.0647 9.2652 32.8171 9.23284 32.5855 9.29673C32.1268 9.48438 31.6908 9.72352 31.2861 10.0095C30.8975 10.2563 30.5454 10.5562 30.2399 10.9006C29.6238 11.7563 29.1938 12.7316 28.9776 13.7637C28.8468 14.2383 29.1254 14.729 29.6 14.8599C30.0746 14.9907 30.5653 14.712 30.6961 14.2374L30.6976 14.2348Z" fill="#D6111F"/>
<path d="M34.5332 14.3185C34.7515 14.027 34.9889 13.7503 35.2438 13.4903C35.3738 13.3581 35.5082 13.2304 35.6478 13.1086C35.7087 13.0551 35.771 13.0028 35.8334 12.9519C35.8605 12.928 35.8893 12.906 35.9195 12.8862C36.4937 12.4942 37.0983 12.1489 37.7276 11.8534C37.8709 11.7791 37.6069 11.8964 37.7205 11.8567C37.7781 11.8367 37.8349 11.8133 37.8924 11.7925C38.0242 11.7453 38.1571 11.7019 38.2908 11.6607C38.6164 11.5601 38.9468 11.4751 39.2791 11.3975C39.462 11.3554 39.6456 11.3172 39.83 11.2827C39.9128 11.2675 39.9952 11.253 40.078 11.2397C40.1151 11.2334 40.2989 11.2055 40.1797 11.2219C40.4855 11.1775 40.7948 11.1619 41.1034 11.1755C41.5955 11.1752 41.9942 10.776 41.9939 10.2839C41.9936 9.79222 41.5951 9.3937 41.1034 9.39341C40.3451 9.38273 39.5889 9.47503 38.8554 9.66777C38.1595 9.81161 37.4806 10.0285 36.8302 10.3149C36.1366 10.6248 35.4791 11.0098 34.8692 11.4628C34.156 12.0237 33.5254 12.6822 32.9959 13.419C32.7508 13.8444 32.8933 14.3877 33.3155 14.6382C33.742 14.8745 34.279 14.7337 34.5347 14.3185L34.5332 14.3185Z" fill="#D6111F"/>
<path d="M43.7917 15.6407C44.7673 15.8126 45.7066 16.1491 46.5694 16.6357C47.3314 17.1447 47.946 17.8452 48.3515 18.6668C48.3979 18.7548 48.3515 18.6557 48.3456 18.6405C48.3626 18.6776 48.3775 18.7203 48.3912 18.7604C48.4202 18.8447 48.4484 18.9289 48.4733 19.0147C48.5305 19.2166 48.5772 19.4213 48.6132 19.628C48.6832 20.055 48.7315 20.4852 48.758 20.917C48.8323 21.8719 48.8646 22.8298 48.9893 23.7798C49.1141 24.7299 49.3049 25.7983 50.034 26.49C50.8653 27.28 52.1276 26.0218 51.2941 25.2299C51.2428 25.1826 51.1947 25.1318 51.15 25.0781C51.2592 25.2121 51.1356 25.0362 51.1044 24.9794C51.0858 24.9456 51.0041 24.7674 51.0301 24.8308C51.0491 24.8769 50.9752 24.6638 50.9588 24.6099C50.8494 24.2331 50.7735 23.8474 50.732 23.4572C50.6206 22.4615 50.5958 21.4587 50.5026 20.4611C50.4674 19.5198 50.2538 18.5937 49.8733 17.732C49.3523 16.724 48.5901 15.8604 47.6546 15.2182C46.617 14.577 45.4676 14.1374 44.2669 13.9225C43.1498 13.6712 42.6731 15.389 43.7932 15.6411L43.7917 15.6407Z" fill="#D6111F"/>
<path d="M46.3381 3.63473C44.1306 1.44059 41.0057 0.380646 37.9624 0.0780693C36.439 -0.0773789 34.9007 -0.000391424 33.4004 0.306394C32.6788 0.458456 31.9742 0.682326 31.2972 0.974661C31.2152 1.00993 30.8276 1.15138 31.1075 1.05968C31.014 1.09049 30.9219 1.12205 30.8265 1.14952C30.5113 1.2416 30.1909 1.31585 29.8705 1.3875C29.5753 1.45359 29.2791 1.51596 28.9817 1.57313C28.8729 1.59355 28.763 1.61026 28.6542 1.63068C28.4233 1.67634 28.877 1.60506 28.6501 1.63068C28.5072 1.64775 28.3646 1.6678 28.2225 1.68859C27.4016 1.82526 26.6014 2.06527 25.8408 2.4029C24.2207 3.12404 22.7463 4.13583 21.4908 5.38819C18.9328 7.87972 17.2402 11.217 16.3254 14.6459C15.2228 18.7777 15.3561 23.1021 16.2055 27.2658C16.3363 27.7402 16.827 28.0188 17.3015 27.888C17.7759 27.7572 18.0545 27.2665 17.9237 26.792C17.162 23.3567 17.1044 19.8026 17.7544 16.3444C18.4108 13.1687 19.7563 9.96657 21.9214 7.51885C22.9711 6.30956 24.2185 5.2872 25.6103 4.49532C26.2618 4.12602 26.9545 3.83456 27.6741 3.62694C28.2611 3.46136 28.8584 3.39936 29.4561 3.28835C30.0465 3.17697 30.6371 3.05223 31.2155 2.89073C31.7305 2.74668 32.1767 2.50871 32.6787 2.34312C33.9492 1.93951 35.278 1.75018 36.6107 1.78289C39.6153 1.82225 42.8991 2.72849 45.078 4.89442C45.8922 5.70376 47.153 4.44482 46.3381 3.63473Z" fill="#D6111F"/>
<path d="M48.1658 6.68622C50.6187 7.71089 52.2968 9.96926 53.2468 12.3828C54.472 15.4917 54.8459 18.9073 54.7348 22.2286C54.7086 23.8742 54.4745 25.5098 54.038 27.0966C53.7135 28.1992 55.4324 28.67 55.7562 27.5703C56.7166 24.3077 56.7181 20.6686 56.2826 17.3209C55.8471 13.9733 54.8626 10.5737 52.6814 7.92511C51.5969 6.62253 50.2086 5.60685 48.6388 4.96766C48.1646 4.8398 47.6758 5.11722 47.5424 5.58989C47.4246 6.06286 47.6992 6.54512 48.1658 6.68622Z" fill="#D6111F"/>
<path d="M33.0915 41.6813C34.0897 42.1981 35.2017 42.456 36.3255 42.4312C37.4948 42.4801 38.6471 42.1386 39.6008 41.4604C39.9487 41.1124 39.9487 40.5483 39.6008 40.2003C39.247 39.8668 38.6945 39.8668 38.3407 40.2003C38.614 39.9872 38.415 40.1413 38.3441 40.1866C38.2799 40.2278 38.2134 40.2657 38.1458 40.3013C38.1109 40.3195 38.0749 40.3358 38.0396 40.354C37.9554 40.3975 37.9212 40.3566 38.0872 40.3373C37.9934 40.3625 37.9019 40.3958 37.8139 40.4368C37.5639 40.5152 37.308 40.5735 37.0488 40.6113C37.1839 40.5905 37.0591 40.6087 36.9916 40.6154C36.9173 40.6228 36.8422 40.629 36.7662 40.634C36.5854 40.6458 36.4039 40.6503 36.2227 40.6492C36.0601 40.6492 35.8978 40.6429 35.7356 40.6317C35.6614 40.6265 35.5871 40.6206 35.5129 40.6132C35.4921 40.6109 35.2218 40.5675 35.4208 40.6035C35.1798 40.5641 34.9412 40.5112 34.7061 40.445C34.6059 40.4149 34.5086 40.3789 34.4091 40.3455C34.1863 40.2694 34.5546 40.4197 34.3534 40.324C34.2305 40.266 34.1099 40.2059 33.9899 40.1428C33.5633 39.8976 33.0186 40.0447 32.7734 40.4713C32.5307 40.8936 32.6728 41.4325 33.0915 41.6813Z" fill="#D6111F"/>
<path d="M35.846 34.0972C35.9936 34.6297 36.1115 35.17 36.1991 35.7156L36.1675 35.4787C36.1778 35.5525 36.1798 35.6272 36.1735 35.7015L36.2054 35.4646C36.2004 35.4988 36.1922 35.5325 36.1809 35.5652L36.2707 35.3525C36.2602 35.375 36.2478 35.3966 36.2336 35.4171L36.3728 35.2366C36.3572 35.2558 36.3395 35.2732 36.3201 35.2886L36.5002 35.1494C36.4591 35.175 36.4163 35.1977 36.3721 35.2173L36.5848 35.1275C36.5156 35.1572 36.4431 35.1784 36.3688 35.1906L36.6075 35.1587C36.5402 35.1668 36.4721 35.1668 36.4048 35.1587L36.6416 35.1906C36.5652 35.1798 36.4898 35.1613 36.4133 35.1509C36.2984 35.114 36.1758 35.1085 36.058 35.1349C35.9402 35.1402 35.8259 35.1768 35.7269 35.2407C35.302 35.489 35.1587 36.0346 35.407 36.4595C35.4069 36.4594 35.407 36.4597 35.407 36.4595C35.5213 36.6626 35.7138 36.8105 35.9396 36.8683C36.1193 36.8924 36.2934 36.9381 36.4761 36.9459C36.7533 36.9475 37.0269 36.8822 37.2735 36.7555C37.5915 36.6095 37.8269 36.3282 37.9147 35.9895C37.9715 35.72 37.9689 35.4412 37.9069 35.1728C37.8189 34.6508 37.6982 34.1332 37.5642 33.6224C37.5001 33.3998 37.3543 33.2096 37.1558 33.09C36.7312 32.8414 36.1854 32.9841 35.9367 33.4088C35.8152 33.6163 35.7827 33.8643 35.8468 34.0961L35.846 34.0972Z" fill="#D6111F"/>
<path d="M27.343 29.4959C27.0728 30.3747 27.2491 32.3962 28.9138 32.5681C31.1139 32.5547 31.2309 30.1111 30.4902 28.962C29.8839 28.0213 28.1008 27.63 27.343 29.4959Z" fill="#D6111F"/>
<path d="M44.9626 29.4961C45.2333 30.3749 45.0569 32.3964 43.3922 32.5683C41.1921 32.5549 41.0748 30.1113 41.8155 28.9619C42.4217 28.0211 44.2049 27.6302 44.9626 29.4961Z" fill="#D6111F"/>
<path d="M61.4107 92.2887C62.2754 91.9887 63.1159 91.6007 63.962 91.2525C64.5491 91.0681 65.089 90.758 65.544 90.3436C65.9942 89.8176 66.2699 89.1646 66.3329 88.4751C66.5265 87.3525 66.6628 86.2208 66.7413 85.0844C66.7413 84.5923 66.3424 84.1934 65.8503 84.1934C65.3582 84.1934 64.9592 84.5923 64.9592 85.0844C64.8948 86.145 64.7664 87.2009 64.5746 88.246C64.5493 88.4036 64.515 88.5595 64.4718 88.7131C64.4558 88.7665 64.3389 89.0205 64.4462 88.8115C64.405 88.8917 64.3611 88.9678 64.3162 89.0454C64.2598 89.1256 64.2643 89.1196 64.33 89.0305C64.2988 89.0676 64.2657 89.1022 64.2312 89.1359C64.2123 89.1545 64.0307 89.2922 64.1729 89.1939C64.027 89.2944 63.8704 89.3783 63.7059 89.4441C62.7807 89.8102 61.8759 90.2438 60.9355 90.5701C60.4686 90.7107 60.1945 91.1934 60.3129 91.6665C60.4476 92.1381 60.9353 92.4148 61.4093 92.2887L61.4107 92.2887Z" fill="#D6111F"/>
<path d="M78.2963 84.8711C78.35 85.9616 78.4713 87.0476 78.6594 88.123C78.7741 88.8284 78.8606 89.5212 79.3095 90.1081C79.5626 90.4408 79.8864 90.713 80.2577 90.9052C80.4017 90.9795 80.5547 91.0411 80.7032 91.102C80.7492 91.1206 80.9961 91.223 80.77 91.1246C80.5617 91.0341 80.77 91.1269 80.822 91.1491C81.2808 91.353 81.7382 91.5605 82.1956 91.7665C82.669 91.9796 83.1397 92.2009 83.6198 92.3977C84.0938 92.5251 84.5822 92.2478 84.7157 91.7755C84.834 91.3025 84.5602 90.8201 84.0935 90.6791C84.4926 90.8436 84.2049 90.7248 84.1117 90.684L83.7635 90.528C83.4664 90.3951 83.1705 90.262 82.8758 90.1285C82.3682 89.8999 81.8641 89.6589 81.348 89.4499C81.1983 89.3873 81.0537 89.3128 80.9159 89.2271C80.7674 89.1384 80.953 89.2902 80.8372 89.1621C80.8023 89.125 80.6304 88.8859 80.7358 89.0604C80.6872 88.9795 80.6408 88.9 80.5981 88.8154C80.6994 89.017 80.5821 88.7504 80.568 88.7014C80.5234 88.5397 80.4882 88.3756 80.4626 88.2099C80.2633 87.1064 80.1346 85.9913 80.0772 84.8715C80.0772 84.3794 79.6783 83.9805 79.1862 83.9805C78.6941 83.9805 78.2952 84.3794 78.2952 84.8715L78.2963 84.8711Z" fill="#D6111F"/>
<path d="M45.2524 118.779C45.4566 115.37 45.6441 111.948 46.204 108.573C46.4718 106.898 46.8583 105.244 47.3604 103.623C47.7744 102.314 48.2299 100.967 49.0749 99.8659C51.0578 97.2838 54.0947 95.527 56.9204 94.0208C57.7025 93.6038 58.4945 93.2071 59.2964 92.8309C59.8106 92.59 60.5446 92.0513 61.0763 92.5105C61.7393 93.0815 62.3411 93.6915 63.051 94.215C65.1359 95.7273 67.5685 96.6897 70.1238 97.0131C73.2763 97.4295 76.4813 96.8987 79.3311 95.488C80.4092 94.9628 81.434 94.3344 82.391 93.6117C82.7901 93.3109 83.1755 92.9969 83.5568 92.6742C84.107 92.2094 84.5551 92.5031 85.1435 92.7771C88.284 94.2398 91.5243 95.9625 94.0705 98.346C95.0622 99.2137 95.8602 100.28 96.4127 101.477C97.0326 102.97 97.5188 104.516 97.8658 106.096C98.6295 109.425 98.9232 112.838 99.1463 116.24C99.2016 117.086 99.2521 117.932 99.303 118.779C99.3713 119.918 101.154 119.926 101.085 118.779C100.933 115.176 100.59 111.584 100.056 108.018C99.783 106.318 99.3859 104.64 98.8682 102.998C98.4016 101.552 97.8751 100.084 96.9462 98.8665C94.8197 96.0791 91.6639 94.1552 88.6155 92.5235C87.7705 92.0711 86.9134 91.6425 86.0442 91.2378C85.2029 90.8458 84.4017 90.4493 83.4547 90.7147C82.8235 90.8915 82.3839 91.3544 81.8954 91.7543C81.5204 92.0613 81.19 92.3067 80.7322 92.6163C78.3287 94.2473 75.5223 95.3514 72.5912 95.3863C69.7928 95.445 67.0395 94.6757 64.6767 93.1751C63.9404 92.7064 63.2559 92.1608 62.6348 91.5475C62.1773 91.0216 61.5498 90.6728 60.8617 90.5618C59.9461 90.4586 59.1231 90.9498 58.3215 91.3273C55.063 92.8621 51.7391 94.6887 49.1143 97.1903C48.0594 98.1395 47.2061 99.2911 46.6049 100.577C45.9287 102.155 45.3944 103.791 45.0085 105.464C44.188 108.967 43.8695 112.574 43.6349 116.156C43.5769 117.03 43.5235 117.904 43.4726 118.777C43.4043 119.922 45.1864 119.919 45.2547 118.777L45.2524 118.779Z" fill="#D6111F"/>
<path d="M52.6416 112.141C52.6787 112.357 52.6308 112 52.6386 112.099C52.6434 112.165 52.6531 112.23 52.6594 112.295C52.6757 112.464 52.6884 112.633 52.6999 112.802C52.7344 113.313 52.7574 113.824 52.7782 114.336C52.8387 115.816 52.8747 117.298 52.9078 118.78C52.933 119.925 54.7154 119.931 54.6898 118.78C54.6564 117.267 54.6193 115.753 54.5562 114.241C54.5485 113.38 54.483 112.52 54.3601 111.668C54.2258 111.196 53.7376 110.919 53.2634 111.045C52.7961 111.185 52.5221 111.668 52.6416 112.141Z" fill="#D6111F"/>
<path d="M90.2884 111.982C90.1699 112.799 90.1059 113.623 90.0969 114.449C90.0352 115.892 89.9989 117.335 89.9658 118.779C89.9658 119.271 90.3647 119.67 90.8568 119.67C91.3489 119.67 91.7479 119.271 91.7479 118.779C91.7802 117.366 91.8158 115.951 91.8748 114.538C91.8949 114.067 91.9168 113.595 91.9491 113.124C91.9606 112.952 91.9732 112.781 91.9899 112.61C92.0064 112.543 92.0139 112.473 92.0122 112.404C92.0493 112.449 91.9702 112.664 92.0077 112.456C92.1244 111.983 91.8511 111.502 91.3855 111.36C90.9115 111.233 90.423 111.51 90.2884 111.982Z" fill="#D6111F"/>
<path d="M89.4011 66.6163C90.1276 62.1786 89.6951 57.4792 87.2849 53.5907C84.9434 49.8952 81.2978 47.2155 77.0719 46.0834C72.6726 44.9003 67.9924 45.368 63.9141 47.3981C60.9286 48.9426 58.4539 51.3184 56.7889 54.2385C55.7107 56.1888 55.0319 58.3344 54.7923 60.5499C54.6071 62.5763 54.703 64.6184 55.077 66.6185C55.2111 67.0907 55.6993 67.3678 56.1734 67.2408C56.6402 67.1003 56.9142 66.6177 56.7956 66.1448C56.268 62.9059 56.3352 59.3508 57.772 56.2285C59.0233 53.5647 60.9989 51.3067 63.4731 49.7129C66.828 47.6196 70.8244 46.8042 74.7311 47.4159C78.6813 48.0016 82.2698 50.0427 84.7923 53.1385C87.7289 56.7672 88.4195 61.6403 87.6818 66.1444C87.5661 66.6169 87.839 67.0976 88.304 67.2404C88.7781 67.3674 89.2663 67.0903 89.4003 66.6182L89.4011 66.6163Z" fill="#D6111F"/>
<path d="M79.2194 55.953C78.2074 56.5125 77.1588 57.0029 76.0808 57.421C75.6424 57.5989 75.1953 57.7546 74.7412 57.8876C74.4624 57.9619 73.9494 58.1238 73.6746 57.9619C73.489 57.8505 73.4611 57.4577 73.3776 57.2331C73.22 56.7503 72.8804 56.3479 72.4309 56.1115C71.4326 55.6148 70.1926 56.0529 69.2028 56.3692C65.7676 57.4493 62.7895 59.642 60.7381 62.6015C60.2001 63.3809 59.7221 64.2 59.3084 65.0518C59.1703 65.4609 58.8903 65.807 58.5191 66.0275C58.3922 66.0873 58.2525 66.1142 58.1125 66.1058C57.9822 66.1025 57.9889 66.0988 58.0331 66.104C57.9614 66.0955 57.6473 65.9666 57.7825 66.0457C56.7901 65.4654 55.8924 67.005 56.8829 67.5842C57.7358 68.0253 58.758 67.9845 59.5731 67.4769C60.4578 66.933 60.8004 65.9919 61.2749 65.1239C62.0836 63.6178 63.136 62.2559 64.3894 61.0935C65.6963 59.9087 67.2166 58.9834 68.8694 58.3669C69.3179 58.1986 69.7728 58.0494 70.2341 57.9192C70.556 57.8275 71.2937 57.5075 71.6167 57.6964C71.7734 57.7874 71.7949 58.1653 71.8658 58.3595C72.0311 58.8765 72.3965 59.3058 72.8805 59.5516C74.0069 60.0937 75.3119 59.6099 76.3963 59.2004C77.6761 58.7194 78.9205 58.1487 80.12 57.4926C81.1254 56.9406 80.2273 55.4013 79.2205 55.9538L79.2194 55.953Z" fill="#D6111F"/>
<path d="M78.7115 58.1569C79.7191 58.5007 80.5808 59.5625 81.1763 60.3986C81.9515 61.4692 82.5652 62.6479 82.9977 63.8969C83.2035 64.5027 83.3629 65.1233 83.4744 65.7532C83.5443 66.382 83.7896 66.9784 84.1824 67.4744C85.0137 68.4319 86.4408 68.3223 87.4532 67.7629C88.4556 67.2078 87.559 65.6682 86.5536 66.224C86.2516 66.4338 85.8609 66.4674 85.5275 66.3124C85.4161 66.2633 85.5965 66.417 85.5007 66.2812C85.5791 66.3925 85.4213 66.1616 85.4087 66.1375C85.3056 65.9141 85.2413 65.6748 85.2186 65.4299C85.0036 64.1597 84.6086 62.9267 84.0454 61.7681C83.4935 60.5886 82.7863 59.4882 81.9426 58.4962C81.2184 57.5822 80.2678 56.8733 79.1852 56.4398C78.0975 56.0686 77.6304 57.7897 78.7115 58.1584L78.7115 58.1569Z" fill="#D6111F"/>
<path d="M87.6049 67.6259C88.1462 67.1917 88.9369 67.2785 89.3711 67.8197C89.3977 67.8528 89.4226 67.8873 89.4457 67.923C89.617 68.3343 89.6904 68.78 89.6599 69.2246C89.6731 69.7486 89.6315 70.2726 89.5359 70.788C89.1873 72.5982 88.2439 74.7437 86.2317 75.1001C85.7599 75.2347 85.4829 75.7224 85.6091 76.1965C85.7492 76.6638 86.2323 76.938 86.7054 76.8187C89.7029 76.2871 91.1408 72.9205 91.4022 70.2103C91.5329 68.8544 91.4764 67.196 90.3352 66.2668C89.1568 65.3264 87.4731 65.3686 86.3434 66.367C85.9993 66.7166 85.9993 67.2775 86.3434 67.6271C86.6956 67.9647 87.2513 67.9647 87.6035 67.6271L87.6049 67.6259Z" fill="#D6111F"/>
<path d="M85.5578 74.3274C85.5212 74.9332 85.4083 75.532 85.2218 76.1095C85.1535 76.3397 85.0781 76.5676 85.002 76.7952C84.9727 76.8824 84.8268 77.2407 84.9415 76.9853C84.6643 77.5897 84.3466 78.1747 83.9903 78.7361C82.97 80.4369 81.6638 81.9489 80.1292 83.2054C79.3078 83.8804 78.3477 84.3663 77.3173 84.6284C76.2009 84.8883 76.6735 86.6068 77.791 86.347C80.0123 85.8302 81.8778 84.2482 83.3477 82.5716C84.5939 81.2012 85.6336 79.6563 86.4339 77.9858C86.9648 76.8355 87.2716 75.5945 87.338 74.3293C87.3807 73.1825 85.5982 73.1839 85.5559 74.3293L85.5578 74.3274Z" fill="#D6111F"/>
<path d="M58.2075 66.3664C57.078 65.3676 55.3939 65.3253 54.2157 66.2661C53.073 67.1943 53.0184 68.8546 53.1487 70.2096C53.4086 72.9217 54.8476 76.2864 57.8455 76.8181C58.3182 76.9347 58.7997 76.6615 58.9419 76.1958C59.068 75.7218 58.791 75.2341 58.3193 75.0995C56.3089 74.7431 55.3651 72.5972 55.015 70.7873C54.9239 70.299 54.8819 69.8027 54.8896 69.306C54.8509 68.8342 54.9248 68.36 55.1053 67.9223C55.4821 67.34 56.2597 67.1734 56.8421 67.5503C56.878 67.5735 56.9126 67.5985 56.946 67.6253C57.2992 67.9603 57.8528 67.9603 58.206 67.6253C58.5499 67.2757 58.5499 66.7149 58.206 66.3652L58.2075 66.3664Z" fill="#D6111F"/>
<path d="M57.3103 74.1784C57.7716 77.1763 59.03 79.9952 60.9538 82.3402C62.9739 84.7162 65.6488 86.45 68.7904 86.7819C69.2812 86.7789 69.6784 86.3817 69.6814 85.8909C69.6706 85.4034 69.2779 85.0107 68.7904 84.9999C66.0802 84.7137 63.8084 82.9951 62.1114 80.9584C60.3951 78.8979 59.4829 76.3176 59.03 73.7047C58.8959 73.2327 58.408 72.9557 57.934 73.0825C57.466 73.2216 57.191 73.705 57.3103 74.1784Z" fill="#D6111F"/>
<path d="M87.7494 118.779C87.8479 117.889 87.893 116.994 87.8845 116.099C87.9203 115.702 87.8656 115.301 87.7245 114.928C87.5279 114.504 87.1526 114.189 86.7006 114.07C86.3247 114.006 85.9425 113.988 85.5623 114.016H84.2083C82.482 114.016 80.7315 113.929 79.007 114.016C78.542 114.021 78.1117 114.262 77.8661 114.657C77.6971 115.059 77.6363 115.499 77.6898 115.931C77.6846 116.882 77.686 117.832 77.754 118.78C77.7655 119.267 78.1578 119.66 78.645 119.671C79.1354 119.667 79.532 119.271 79.536 118.78C79.4818 118.022 79.4688 117.263 79.4696 116.503C79.4696 116.201 79.4729 115.899 79.4737 115.597C79.4737 115.327 79.5806 115.202 79.2327 115.554C78.6873 116.108 78.932 115.752 79.0564 115.798C79.2736 115.829 79.4941 115.829 79.7113 115.798H85.9135C86.0412 115.807 86.1693 115.807 86.297 115.798C86.2811 115.849 86.0208 115.65 86.0991 115.597C86.0808 115.786 86.0808 115.977 86.0991 116.167C86.1056 117.04 86.0605 117.912 85.964 118.78C85.9667 119.271 86.364 119.668 86.855 119.671C87.3423 119.659 87.7345 119.267 87.7461 118.78L87.7494 118.779Z" fill="#D6111F"/>
<path d="M69.4874 78.6337C70.2359 79.3662 71.4005 79.5956 72.4089 79.5949C73.4172 79.5941 74.5819 79.3665 75.3303 78.6337C75.6812 78.2886 75.6858 77.7244 75.3407 77.3736C74.9956 77.0228 74.4315 77.0181 74.0807 77.3632C74.0772 77.3667 74.0737 77.3701 74.0703 77.3736C74.0361 77.407 73.8939 77.5221 74.0376 77.4107C74.1813 77.2994 74.0005 77.4326 73.9563 77.4594C73.8969 77.4965 73.8356 77.5295 73.7733 77.5611C73.7298 77.5787 73.6873 77.5986 73.6459 77.6209C73.7027 77.5837 73.8316 77.55 73.6935 77.5979C73.4948 77.6684 73.2911 77.7241 73.0842 77.7646C73.0493 77.7709 72.8184 77.8199 73.043 77.7757C72.9815 77.7853 72.9196 77.7916 72.8574 77.7946C72.7089 77.8072 72.5604 77.8128 72.4119 77.8128C72.2753 77.8128 72.1383 77.8084 72.0035 77.798C71.9278 77.7975 71.8524 77.79 71.7781 77.7757C71.8865 77.8076 71.8762 77.7894 71.7703 77.7705C71.5603 77.7338 71.3537 77.6791 71.1529 77.6071C71.0742 77.5785 70.9773 77.501 71.1752 77.6209C71.1425 77.6008 71.1032 77.5878 71.0687 77.5711C70.9996 77.537 70.9317 77.5002 70.8659 77.4597C70.8158 77.4293 70.7698 77.3892 70.7174 77.3606C70.9654 77.5006 70.8288 77.4497 70.7505 77.374C70.4026 77.0252 69.8379 77.0245 69.4891 77.3723C69.1403 77.7202 69.1396 78.2849 69.4874 78.6337Z" fill="#D6111F"/>
<path d="M72.0254 72.3531C72.1556 72.8236 72.26 73.3009 72.338 73.7828L72.306 73.5459C72.3155 73.6112 72.3174 73.6774 72.3116 73.7431L72.3432 73.5062C72.339 73.5364 72.3318 73.5662 72.3216 73.595L72.4115 73.3822C72.4027 73.4022 72.3921 73.4213 72.3799 73.4394L72.5195 73.259C72.5056 73.276 72.4899 73.2914 72.4727 73.305L72.6532 73.1658C72.6168 73.1882 72.579 73.2082 72.5399 73.2256L72.7527 73.1357C72.6916 73.162 72.6275 73.1807 72.5618 73.1914L72.7987 73.1595C72.7391 73.1665 72.6789 73.1665 72.6194 73.1595L72.8562 73.191C72.789 73.1817 72.7226 73.1654 72.655 73.1561C72.5401 73.1192 72.4175 73.1137 72.2997 73.1402C72.1819 73.1455 72.0676 73.182 71.9686 73.246C71.5437 73.4942 71.4004 74.0399 71.6487 74.4648C71.6486 74.4647 71.6488 74.4649 71.6487 74.4648C71.763 74.6679 71.9555 74.8158 72.1813 74.8736C72.3491 74.8962 72.5117 74.9382 72.6825 74.946C72.9457 74.9471 73.2054 74.8844 73.4391 74.7633C73.7439 74.6212 73.9692 74.3504 74.0535 74.0249C74.1082 73.7682 74.1058 73.5027 74.0465 73.2471C73.9689 72.7864 73.8609 72.3301 73.7439 71.8783C73.6797 71.6557 73.5339 71.4655 73.3355 71.3459C72.9109 71.0972 72.365 71.2399 72.1164 71.6646C71.9949 71.8722 71.9624 72.1201 72.0265 72.352L72.0254 72.3531Z" fill="#D6111F"/>
<path d="M64.7045 68.5536C64.471 69.3121 64.6232 71.0566 66.06 71.2051C67.959 71.194 68.06 69.0845 67.4207 68.0929C66.8972 67.2805 65.3583 66.9431 64.7045 68.5536Z" fill="#D6111F"/>
<path d="M79.8493 68.5536C80.0829 69.3121 79.9307 71.0567 78.4939 71.2052C76.5949 71.1937 76.4939 69.0845 77.1332 68.0925C77.6552 67.2806 79.1956 66.9431 79.8493 68.5536Z" fill="#D6111F"/>
</svg>
