<svg width="1230" height="712" viewBox="0 0 1230 712" fill="none" xmlns="http://www.w3.org/2000/svg">
<path d="M1229.33 695.047C1229.33 695.047 1191.51 711.595 1134.77 711.595C1078.03 711.595 151.302 711.595 94.564 711.595C37.8256 711.595 0 695.047 0 695.047L614.666 690.318L1229.33 695.047Z" fill="url(#paint0_linear_649_210)"/>
<path d="M1113.49 671.404H115.841V23.641C115.841 10.5841 126.425 0 139.482 0H1089.85C1102.91 0 1113.49 10.5841 1113.49 23.641V671.404Z" fill="url(#paint1_linear_649_210)"/>
<path d="M119.387 671.405V23.6417C119.387 12.5612 128.402 3.54688 139.482 3.54688H1089.85C1100.93 3.54688 1109.95 12.5612 1109.95 23.6417V671.405H119.387Z" fill="black"/>
<path d="M1229.33 671.404H0V695.045H1229.33V671.404Z" fill="url(#paint2_linear_649_210)"/>
<path d="M697.41 687.953H531.923C522.783 687.953 515.374 680.544 515.374 671.404H713.958C713.958 680.544 706.549 687.953 697.41 687.953Z" fill="url(#paint3_linear_649_210)"/>
<path d="M1109.95 650.128H119.387" stroke="black" stroke-width="0.5" stroke-miterlimit="10"/>
<path d="M553.2 7.0918L122.934 501.189V23.6405C122.934 14.5151 130.357 7.0918 139.482 7.0918H553.2Z" fill="url(#paint4_linear_649_210)"/>
<path d="M1085.12 47.2822H144.21V633.579H1085.12V47.2822Z" fill="white"/>
<path d="M614.666 33.0977C618.583 33.0977 621.758 29.9224 621.758 26.0054C621.758 22.0884 618.583 18.9131 614.666 18.9131C610.749 18.9131 607.574 22.0884 607.574 26.0054C607.574 29.9224 610.749 33.0977 614.666 33.0977Z" fill="#232323"/>
<defs>
<linearGradient id="paint0_linear_649_210" x1="614.666" y1="695.078" x2="614.666" y2="712.014" gradientUnits="userSpaceOnUse">
<stop offset="0.3564" stop-color="#808185"/>
<stop offset="0.5045" stop-color="#78797D"/>
<stop offset="0.5443" stop-color="#7A7B7F"/>
<stop offset="1" stop-color="#0D0C11"/>
</linearGradient>
<linearGradient id="paint1_linear_649_210" x1="614.666" y1="0" x2="614.666" y2="686.064" gradientUnits="userSpaceOnUse">
<stop offset="0.000159439" stop-color="#363636"/>
<stop offset="0.0092" stop-color="#3A3A3A"/>
<stop offset="0.0982" stop-color="#404040"/>
<stop offset="0.1199" stop-color="#7D7D7D"/>
<stop offset="0.1519" stop-color="#404040"/>
<stop offset="0.2384" stop-color="#383838"/>
<stop offset="0.4063" stop-color="#404040"/>
<stop offset="0.4336" stop-color="#797979"/>
<stop offset="0.4621" stop-color="#404040"/>
<stop offset="0.5727" stop-color="#404040"/>
<stop offset="0.5998" stop-color="#626262"/>
<stop offset="0.6294" stop-color="#404040"/>
<stop offset="0.6916" stop-color="#404040"/>
<stop offset="0.7905" stop-color="#3D3D3D"/>
<stop offset="0.9015" stop-color="#404040"/>
<stop offset="0.9334" stop-color="#7E7E7E"/>
<stop offset="0.9577" stop-color="#474747"/>
</linearGradient>
<linearGradient id="paint2_linear_649_210" x1="0" y1="683.225" x2="1229.33" y2="683.225" gradientUnits="userSpaceOnUse">
<stop stop-color="#49484D"/>
<stop offset="0.0121" stop-color="#D3D4D9"/>
<stop offset="0.0282" stop-color="#D0D1D6"/>
<stop offset="0.0804" stop-color="#8C8D92"/>
<stop offset="0.0918" stop-color="#85868B"/>
<stop offset="0.5113" stop-color="#CBCCD2"/>
<stop offset="0.9264" stop-color="#85868B"/>
<stop offset="0.937" stop-color="#8B8C91"/>
<stop offset="0.979" stop-color="#D0D1D6"/>
<stop offset="0.994" stop-color="#D3D4D9"/>
<stop offset="1" stop-color="#454449"/>
</linearGradient>
<linearGradient id="paint3_linear_649_210" x1="515.374" y1="679.679" x2="713.958" y2="679.679" gradientUnits="userSpaceOnUse">
<stop stop-color="#161617"/>
<stop offset="0.0581" stop-color="#84848A"/>
<stop offset="0.3011" stop-color="#8F8F96"/>
<stop offset="0.524" stop-color="#ADADB5"/>
<stop offset="0.7161" stop-color="#8A8B91"/>
<stop offset="0.9495" stop-color="#7B7C81"/>
<stop offset="1" stop-color="#0D0C11"/>
</linearGradient>
<linearGradient id="paint4_linear_649_210" x1="103.05" y1="19.1232" x2="318.344" y2="234.418" gradientUnits="userSpaceOnUse">
<stop offset="0.000478316" stop-color="#9E9E9E"/>
<stop offset="1" stop-color="#1D1D1B"/>
</linearGradient>
</defs>
</svg>
